<svg width="260" height="260" viewBox="0 0 260 260" fill="none" xmlns="http://www.w3.org/2000/svg">
<path d="M105.558 55.6564C102.618 60.7197 108.153 69.2511 102.574 71.0227L103.034 70.5632C106.402 66.4218 99.3628 57.6563 102.73 53.5149C103.254 52.9074 103.703 52.2399 104.069 51.5264" fill="#2F2E41"/>
<path d="M133.089 129.94C133.186 129.433 133.17 128.911 133.043 128.411C132.916 127.911 132.681 127.446 132.354 127.046C132.027 126.647 131.617 126.324 131.152 126.101C130.687 125.877 130.179 125.758 129.663 125.753L122.396 104.645L118.374 109.771L126.057 129.493C126.105 130.361 126.469 131.18 127.08 131.797C127.692 132.413 128.508 132.784 129.375 132.839C130.242 132.894 131.099 132.629 131.783 132.095C132.468 131.561 132.933 130.794 133.089 129.94L133.089 129.94Z" fill="#FFB8B8"/>
<path d="M101.147 78.9778C101.147 78.9778 100.921 71.3372 107.755 75.7142C114.589 80.0912 129.469 121.093 129.469 121.093L122.064 125.099L105.254 87.5771L101.147 78.9778Z" fill="#5B4A9A"/>
<path d="M121.309 209.934L117.897 211.392L110.648 198.926L115.685 196.774L121.309 209.934Z" fill="#FFB6B6"/>
<path d="M125.637 215.076L123.19 216.121L121.766 213.998L121.634 216.786L115.143 219.559C114.832 219.692 114.487 219.722 114.157 219.644C113.828 219.567 113.532 219.387 113.312 219.129C113.093 218.872 112.961 218.551 112.937 218.214C112.913 217.876 112.997 217.54 113.178 217.254L116.831 211.46L115.833 209.125L121.424 207.121L125.637 215.076Z" fill="#2F2E41"/>
<path d="M67.8132 214.162L64.1067 213.981L63.0413 199.601L68.5122 199.868L67.8132 214.162Z" fill="#FFB6B6"/>
<path d="M69.456 220.679L66.7978 220.549L66.4459 218.017L65.1081 220.467L58.0579 220.122C57.72 220.106 57.3962 219.982 57.1337 219.768C56.8713 219.555 56.684 219.263 56.5992 218.935C56.5144 218.608 56.5365 218.262 56.6624 217.948C56.7882 217.634 57.0111 217.368 57.2986 217.19L63.1187 213.578L63.2427 211.041L69.1472 211.684L69.456 220.679Z" fill="#2F2E41"/>
<path d="M177.027 211.871C177.273 211.88 177.515 211.813 177.722 211.68C177.928 211.546 178.088 211.353 178.181 211.125C178.273 210.898 178.294 210.647 178.239 210.408C178.185 210.168 178.058 209.951 177.876 209.786C177.845 209.666 177.822 209.58 177.791 209.461C178.02 208.862 178.423 208.345 178.947 207.977C179.472 207.609 180.095 207.405 180.736 207.393C181.377 207.381 182.008 207.56 182.546 207.909C183.084 208.257 183.506 208.758 183.758 209.348C185.21 212.657 187.08 216.08 186.201 219.749C192.117 206.899 189.912 191.006 180.886 180.151C178.406 178.816 176.384 176.422 175.837 173.625C177.062 174.027 178.574 173.02 177.644 171.743C177.242 171.256 176.836 170.772 176.433 170.285C181.023 165.304 186.621 173.01 181.581 179.721C183.27 181.798 184.738 184.046 185.96 186.428C185.659 183.889 185.965 181.315 186.853 178.918C187.754 176.683 189.467 174.791 190.972 172.852C192.802 170.49 196.625 171.535 196.902 174.509C195.198 175.087 195 177.558 196.958 177.877C196.499 183.418 192.93 188.54 187.971 191.015C189.86 196.159 190.63 201.646 190.232 207.111C191.05 200.721 197.888 199.107 202.653 196.525C202.956 196.326 203.31 196.221 203.672 196.22C204.034 196.219 204.389 196.324 204.692 196.522C204.996 196.719 205.236 197.001 205.382 197.332C205.528 197.663 205.575 198.03 205.516 198.387C204.858 198.662 204.228 199.002 203.637 199.401C203.36 199.591 203.148 199.862 203.032 200.177C202.915 200.492 202.898 200.836 202.984 201.16C203.07 201.485 203.254 201.775 203.512 201.991C203.769 202.207 204.087 202.338 204.422 202.366C202.065 208.363 195.861 212.434 189.45 212.472C188.86 215.154 187.992 217.768 186.861 220.271L177.347 220.362C177.311 220.256 177.28 220.147 177.248 220.042C178.129 220.089 179.013 220.028 179.879 219.86C177.523 217.124 175.708 215.734 177.027 211.871L177.027 211.871Z" fill="#FDAB96"/>
<path d="M77.1769 120.686C77.1769 120.686 69.6392 141.224 69.5174 143.522C69.3956 145.82 67.2459 174.883 65.443 176.572C63.6401 178.261 58.1282 204.441 62.417 206.489C66.7058 208.537 80.2367 205.144 80.2367 205.144L84.9438 174.219L86.5428 150.526C86.5428 150.526 91.4109 206.318 100.24 206.154C109.07 205.99 119.829 202.629 119.829 202.629L107.471 168.841C107.471 168.841 107.645 128.84 104.781 120.772C101.916 112.704 77.1769 120.686 77.1769 120.686Z" fill="#2F2E41"/>
<path d="M99.5441 67.7744L89.4493 68.6988L87.823 73.6898C87.823 73.6898 79.3751 78.3283 81.2457 80.4356C83.1163 82.5429 80.8274 96.7441 80.8274 96.7441L81.3444 108.271C81.3444 108.271 80.789 116.258 79.1271 118.098C77.4652 119.938 73.1172 124.45 76.1894 122.291C86.9615 114.722 105.79 121.109 105.79 121.109L103.1 104.638C103.1 104.638 109.209 77.6709 106.798 75.3934C104.387 73.1159 102.113 72.8281 102.113 72.8281L99.5441 67.7744Z" fill="#5B4A9A"/>
<path d="M46.5002 120.02C47.0074 119.926 47.4877 119.721 47.9073 119.421C48.3269 119.121 48.6755 118.733 48.9287 118.283C49.1819 117.834 49.3335 117.334 49.3728 116.82C49.4121 116.306 49.3381 115.789 49.156 115.307L66.1821 100.865L59.9436 98.9824L44.3594 113.308C43.5688 113.668 42.9375 114.305 42.5852 115.098C42.2329 115.892 42.1841 116.788 42.448 117.615C42.7119 118.442 43.2701 119.144 44.017 119.587C44.7638 120.031 45.6474 120.185 46.5002 120.02V120.02Z" fill="#FFB8B8"/>
<path d="M89.7395 82.245C89.7395 82.245 93.0942 75.3761 85.0633 76.5494C77.0324 77.7228 46.5779 108.955 46.5779 108.955L51.6745 115.654L82.4535 88.3888L89.7395 82.245Z" fill="#7CB966"/>
<path d="M76.6621 70.5942L44.8212 111.377C44.2704 112.085 44.0227 112.982 44.1324 113.872C44.2421 114.763 44.7003 115.573 45.4065 116.126C52.8008 134.076 74.9225 147.386 100.945 159.468C101.653 160.019 102.551 160.267 103.441 160.157C104.332 160.047 105.142 159.589 105.695 158.882L137.536 118.099C138.087 117.392 138.335 116.494 138.226 115.604C138.116 114.714 137.657 113.903 136.951 113.351C115.112 101.022 96.3425 86.7388 81.4117 70.009C80.7037 69.4583 79.8062 69.2107 78.9159 69.3204C78.0256 69.4301 77.2152 69.8881 76.6621 70.5942V70.5942Z" fill="#E6E6E6"/>
<path d="M135.301 117.171L125.609 129.585C119.688 137.122 111.025 142.011 101.511 143.183C91.9969 144.356 82.4055 141.716 74.8318 135.841L47.6703 114.645C47.2679 114.331 47.0066 113.87 46.9437 113.363C46.8807 112.857 47.0213 112.346 47.3346 111.943L78.1025 72.5342C78.4175 72.1325 78.879 71.8721 79.3857 71.8102C79.8924 71.7482 80.403 71.8897 80.8055 72.2037C94.5453 89.9418 112.937 103.745 134.968 114.471C135.37 114.786 135.63 115.246 135.693 115.752C135.755 116.258 135.614 116.768 135.301 117.171Z" fill="white"/>
<path d="M76.0265 92.8571L69.7145 100.942C69.547 101.156 69.3013 101.295 69.0315 101.328C68.7616 101.361 68.4896 101.286 68.2752 101.118C68.0609 100.951 67.9218 100.706 67.8884 100.436C67.855 100.166 67.9301 99.8941 68.0972 99.6796L74.4092 91.595C74.4921 91.4887 74.5951 91.3997 74.7123 91.3332C74.8295 91.2667 74.9587 91.224 75.0925 91.2075C75.2263 91.1909 75.362 91.2009 75.4919 91.2368C75.6218 91.2727 75.7434 91.3339 75.8496 91.4168C75.9559 91.4998 76.0448 91.6028 76.1112 91.7201C76.1776 91.8373 76.2202 91.9666 76.2366 92.1003C76.253 92.2341 76.243 92.3697 76.2069 92.4996C76.1709 92.6295 76.1096 92.7509 76.0265 92.8571H76.0265Z" fill="#CCCCCC"/>
<path d="M87.866 86.8602L74.0044 104.615C73.9215 104.721 73.8185 104.81 73.7013 104.876C73.5841 104.942 73.4549 104.985 73.3212 105.002C73.1875 105.018 73.0519 105.008 72.9221 104.972C72.7922 104.936 72.6707 104.875 72.5646 104.792C72.4584 104.709 72.3695 104.606 72.3031 104.489C72.2368 104.372 72.1941 104.243 72.1776 104.109C72.1611 103.975 72.1712 103.84 72.2071 103.71C72.2431 103.58 72.3042 103.459 72.3871 103.353L86.2488 85.598C86.3316 85.4916 86.4345 85.4026 86.5518 85.336C86.6691 85.2694 86.7983 85.2266 86.9321 85.21C87.066 85.1934 87.2018 85.2033 87.3317 85.2392C87.4617 85.2751 87.5834 85.3363 87.6897 85.4193C87.796 85.5022 87.8849 85.6053 87.9513 85.7227C88.0177 85.84 88.0603 85.9693 88.0767 86.1032C88.0931 86.237 88.0829 86.3727 88.0468 86.5026C88.0106 86.6325 87.9492 86.754 87.8661 86.8602H87.866Z" fill="#CCCCCC"/>
<path d="M64.2242 116.475C67.9558 116.475 70.9808 113.45 70.9808 109.719C70.9808 105.989 67.9558 102.964 64.2242 102.964C60.4926 102.964 57.4675 105.989 57.4675 109.719C57.4675 113.45 60.4926 116.475 64.2242 116.475Z" fill="#FD7C5F"/>
<path d="M88.6021 100.892L71.5773 122.699C71.3996 122.879 71.1616 122.989 70.9085 123.005C70.6555 123.022 70.4052 122.945 70.2053 122.789C70.0054 122.633 69.8699 122.409 69.8247 122.159C69.7794 121.91 69.8276 121.653 69.96 121.436L86.9849 99.6303C87.1625 99.4494 87.4006 99.3402 87.6536 99.3235C87.9066 99.3068 88.1569 99.3838 88.3568 99.5398C88.5567 99.6958 88.6922 99.9199 88.7374 100.169C88.7827 100.419 88.7345 100.676 88.6021 100.892Z" fill="#CCCCCC"/>
<path d="M99.6465 95.9139L75.8839 126.35C75.7062 126.531 75.4682 126.64 75.2152 126.657C74.9621 126.673 74.7118 126.596 74.5119 126.44C74.312 126.284 74.1766 126.06 74.1313 125.811C74.0861 125.561 74.1342 125.304 74.2666 125.088L98.0292 94.6518C98.2069 94.4709 98.4449 94.3617 98.6979 94.345C98.9509 94.3283 99.2013 94.4053 99.4012 94.5613C99.601 94.7173 99.7365 94.9414 99.7818 95.1908C99.827 95.4403 99.7789 95.6977 99.6465 95.9139V95.9139Z" fill="#CCCCCC"/>
<path d="M99.5638 109.447L82.5389 131.253C82.3613 131.434 82.1232 131.543 81.8702 131.56C81.6172 131.577 81.3669 131.5 81.167 131.344C80.9671 131.188 80.8316 130.964 80.7863 130.714C80.7411 130.465 80.7893 130.207 80.9216 129.991L97.9465 108.185C98.1242 108.004 98.3622 107.895 98.6152 107.878C98.8683 107.862 99.1186 107.939 99.3185 108.095C99.5184 108.251 99.6538 108.475 99.6991 108.724C99.7443 108.973 99.6962 109.231 99.5638 109.447Z" fill="#CCCCCC"/>
<path d="M122.091 112.136L105.066 133.942C104.888 134.123 104.65 134.232 104.397 134.249C104.144 134.266 103.894 134.189 103.694 134.033C103.494 133.877 103.358 133.653 103.313 133.403C103.268 133.154 103.316 132.896 103.448 132.68L120.473 110.874C120.651 110.693 120.889 110.584 121.142 110.567C121.395 110.55 121.645 110.627 121.845 110.783C122.045 110.939 122.181 111.164 122.226 111.413C122.271 111.662 122.223 111.92 122.091 112.136Z" fill="#FD7C5F"/>
<path d="M110.609 104.468L86.8461 134.904C86.6684 135.085 86.4303 135.194 86.1773 135.211C85.9243 135.228 85.674 135.151 85.4741 134.995C85.2742 134.839 85.1387 134.614 85.0935 134.365C85.0482 134.116 85.0964 133.858 85.2288 133.642L108.991 103.206C109.169 103.025 109.407 102.916 109.66 102.899C109.913 102.883 110.163 102.96 110.363 103.116C110.563 103.271 110.699 103.496 110.744 103.745C110.789 103.994 110.741 104.252 110.609 104.468V104.468Z" fill="#CCCCCC"/>
<path d="M82.6191 54.8891C82.6185 56.53 83.0208 58.146 83.7907 59.5952C84.5606 61.0444 85.6746 62.2825 87.0348 63.2008C88.3951 64.1191 89.96 64.6895 91.5922 64.862C93.2244 65.0345 94.874 64.8038 96.3962 64.1901C97.9185 63.5764 99.2667 62.5985 100.323 61.3422C101.379 60.086 102.11 58.5898 102.452 56.9849C102.795 55.3801 102.738 53.7158 102.287 52.138C101.836 50.5603 101.005 49.1173 99.8657 47.9358L99.8176 47.8878C99.7373 47.8035 99.6571 47.7193 99.5729 47.6391C99.5723 47.6391 99.5718 47.639 99.5713 47.6388C99.5708 47.6386 99.5704 47.6383 99.57 47.6379C99.5696 47.6376 99.5694 47.6371 99.5692 47.6366C99.569 47.6361 99.5689 47.6356 99.5689 47.6351C99.4646 47.5389 99.3603 47.4426 99.252 47.3504C97.8031 46.0804 96.0188 45.2548 94.1127 44.9725C92.2066 44.6901 90.2595 44.963 88.5045 45.7584C86.7495 46.5539 85.2611 47.8381 84.2173 49.4575C83.1735 51.0768 82.6186 52.9626 82.6191 54.8891V54.8891Z" fill="#2F2E41"/>
<path d="M95.1166 65.6147C99.7603 65.6147 103.525 61.8511 103.525 57.2085C103.525 52.5658 99.7603 48.8022 95.1166 48.8022C90.4729 48.8022 86.7085 52.5658 86.7085 57.2085C86.7085 61.8511 90.4729 65.6147 95.1166 65.6147Z" fill="#FFB8B8"/>
<path d="M86.153 59.4486C85.3312 55.7458 86.5191 51.5973 89.1091 49.1253C90.4117 47.9066 92.0318 47.08 93.7833 46.7406C95.5347 46.4012 97.3464 46.5627 99.0102 47.2066C99.2216 47.292 99.4331 47.3854 99.6406 47.4828L99.7371 47.5283V47.5424C99.7558 47.5554 99.7745 47.569 99.7933 47.5828C99.8324 47.6195 99.8802 47.6459 99.9322 47.6594C100.662 47.6404 101.388 47.7757 102.062 48.0566C102.736 48.3376 103.343 48.7577 103.844 49.2896C105.147 50.7033 105.761 52.9879 105.572 55.7225L105.566 55.808L105.494 55.8535C104.507 56.4785 103.483 57.0429 102.428 57.5434C98.7367 59.2786 95.3669 59.6001 92.1282 58.525L92.0687 58.5054L90.7094 56.2277C90.4303 57.7986 90.5794 63.0093 88.978 63.2916L86.1878 59.6057L86.153 59.4486Z" fill="#2F2E41"/>
<path d="M68.4531 66.768C71.3143 65.2915 67.6344 59.9327 68.3739 56.7996C69.1134 53.6664 74.4383 52.6587 74.7775 49.4574C75.1167 46.2561 75.9148 42.9544 78.0277 40.5252C79.3778 38.973 81.3673 37.8271 83.4156 38.0215C84.1086 38.0873 84.7794 38.3016 85.3821 38.6499C85.9848 38.9982 86.5053 39.4723 86.9083 40.0399C87.3112 40.6075 87.5871 41.2552 87.717 41.939C87.847 42.6227 87.8281 43.3264 87.6615 44.0022C88.2447 43.1761 89.7539 43.3551 90.1275 44.2949C90.4596 45.1303 89.7259 46.1422 88.8625 46.2161C87.7326 47.6111 86.4388 49.0916 84.6687 49.373C84.3867 49.4377 84.0936 49.4376 83.8117 49.3725C83.5297 49.3074 83.2662 49.1792 83.0411 48.9974C82.6247 48.5976 82.5923 47.7982 83.0863 47.4995C80.8618 48.3829 79.5576 50.7875 79.2276 53.1576C78.8975 55.5278 79.3542 57.9259 79.6551 60.2999C79.956 62.674 80.0856 65.1714 79.1546 67.3759C78.0545 69.9807 75.5219 71.8475 72.7579 72.4462C69.9939 73.0449 67.0504 72.4598 64.5486 71.1415C62.0467 69.8231 59.9604 67.8105 58.2561 65.5541C61.1919 67.6383 65.2535 68.4191 68.4531 66.768Z" fill="#2F2E41"/>
<path d="M91.1003 56.6652C88.1605 61.7285 93.6962 70.2599 88.1171 72.0315L88.5767 71.572C91.9444 67.4306 84.9055 58.6651 88.2732 54.5236C88.7964 53.9162 89.2456 53.2486 89.6113 52.5352" fill="#2F2E41"/>
<path d="M86.5459 59.3724C86.5459 59.3724 89.0366 50.0774 99.7134 47.9321C99.7255 47.9281 99.7656 47.912 99.8177 47.888C99.8498 47.8679 99.8899 47.8479 99.93 47.8278C99.8097 47.7596 99.6934 47.6995 99.5731 47.6393C99.5725 47.6393 99.572 47.6392 99.5715 47.639C99.571 47.6388 99.5706 47.6385 99.5702 47.6382C99.5698 47.6378 99.5695 47.6373 99.5693 47.6369C99.5691 47.6364 99.5691 47.6358 99.5691 47.6353C99.4648 47.5391 99.3605 47.4428 99.2522 47.3506L98.9474 47.3627C98.9474 47.3627 88.2345 45.6665 86.5459 59.3724Z" fill="#FD6584"/>
<path d="M9 220.652C8.99984 220.705 9.01009 220.757 9.03014 220.805C9.0502 220.854 9.07966 220.898 9.11685 220.935C9.15404 220.972 9.19821 221.002 9.24682 221.022C9.29544 221.042 9.34754 221.052 9.40013 221.052H249.895C250.001 221.052 250.103 221.01 250.178 220.935C250.253 220.86 250.295 220.758 250.295 220.652C250.295 220.546 250.253 220.444 250.178 220.369C250.103 220.294 250.001 220.252 249.895 220.252H9.4001C9.34752 220.252 9.29542 220.262 9.24681 220.282C9.1982 220.302 9.15403 220.332 9.11684 220.369C9.07966 220.406 9.05019 220.45 9.03014 220.499C9.01009 220.547 8.99985 220.599 9 220.652V220.652Z" fill="#CCCCCC"/>
</svg>
