<svg width="261" height="260" viewBox="0 0 261 260" fill="none" xmlns="http://www.w3.org/2000/svg">
<path d="M253.438 231.305C252.297 229.239 249.138 228.277 247.092 227.544C242.543 225.915 237.783 224.851 233.057 223.884C226.302 222.501 219.484 221.423 212.655 220.48C204.318 219.329 195.953 218.394 187.574 217.609C178.099 216.722 168.609 216.022 159.104 215.51C149.043 214.961 138.973 214.613 128.894 214.465C118.76 214.323 108.621 214.395 98.4905 214.741C88.792 215.072 79.0985 215.651 69.4402 216.602C60.7162 217.461 52.0096 218.613 43.4021 220.286C36.0358 221.718 28.704 223.516 21.649 226.097C20.1748 226.636 18.7157 227.214 17.2718 227.83L17.9523 228.353C20.5666 221.939 23.4451 214.104 19.3607 207.624C17.7848 205.124 14.9444 202.955 11.8363 203.353C9.31737 203.675 6.83882 206.243 7.66033 208.913C8.37121 211.223 11.5914 212.286 13.367 210.551C13.4295 210.486 13.4717 210.403 13.4883 210.314C13.5049 210.225 13.4953 210.133 13.4606 210.049C13.4259 209.965 13.3676 209.893 13.2928 209.842C13.2181 209.791 13.13 209.762 13.0394 209.76C9.69394 210.027 8.64298 214.04 9.74798 216.761C11.4606 220.978 17.1585 220.996 20.9155 220.544C21.5002 220.473 21.5072 219.546 20.9155 219.617C17.7199 220.002 13.0507 220.236 10.9971 217.163C9.63479 215.125 10.0404 210.926 13.0394 210.687L12.7119 209.896C11.6957 210.889 10.0502 210.562 9.12297 209.592C7.87306 208.284 8.54194 206.315 9.76873 205.246C12.8102 202.595 16.9622 205.464 18.6579 208.246C22.46 214.485 19.5518 221.991 17.0589 228.107C16.8857 228.531 17.4205 228.766 17.7394 228.63C24.2897 225.838 31.1904 223.895 38.1268 222.335C46.3942 220.52 54.751 219.141 63.1628 218.203C72.5431 217.107 81.9676 216.405 91.4 215.956C101.318 215.485 111.248 215.298 121.177 215.327C131.218 215.355 141.256 215.597 151.291 216.05C160.902 216.477 170.504 217.085 180.095 217.876C188.736 218.592 197.365 219.459 205.97 220.53C213.25 221.436 220.518 222.483 227.736 223.798C233.055 224.768 238.377 225.85 243.567 227.379C246.322 228.19 249.697 229.049 251.929 230.959C252.215 231.182 252.456 231.459 252.638 231.773C252.926 232.295 253.727 231.828 253.438 231.305L253.438 231.305Z" fill="#F2F2F2"/>
<path d="M146.734 73.6075L165.835 84.5411C166.646 85.0019 167.605 85.1255 168.506 84.8852C169.407 84.6449 170.177 84.0599 170.65 83.2565V83.2565C170.895 82.8409 171.053 82.3798 171.114 81.9012C171.175 81.4227 171.138 80.9367 171.005 80.4729C170.872 80.0092 170.646 79.5774 170.341 79.2039C170.035 78.8303 169.657 78.5229 169.229 78.3003L149.04 67.5514L137.048 60.5027C137.131 59.8716 137.019 59.23 136.725 58.6653C136.431 58.1005 135.971 57.6398 135.406 57.3459C134.841 57.0519 134.2 56.9389 133.569 57.0223C132.938 57.1056 132.348 57.3813 131.879 57.8117C131.41 58.2422 131.085 58.8066 130.948 59.4283C130.811 60.05 130.868 60.6988 131.113 61.2866C131.357 61.8744 131.777 62.3727 132.314 62.7138C132.851 63.0549 133.481 63.2223 134.117 63.1931L146.734 73.6075Z" fill="#FFB6B6"/>
<path d="M160.938 84.0689C160.994 84.2914 161.121 84.4896 161.3 84.6329C161.479 84.7763 161.7 84.8568 161.93 84.8623C162.212 84.8743 162.484 84.9744 162.708 85.1485C162.75 85.1827 162.791 85.2196 162.829 85.2591C163.051 85.5025 163.33 85.6884 163.64 85.8013C163.95 85.9141 164.282 85.9504 164.609 85.9071C165.684 85.749 166.937 86.1214 167.973 86.5845C169.108 87.0913 170.232 87.6673 171.455 87.8877C173.219 88.2057 175.297 87.6603 175.79 85.4846C175.986 84.556 175.855 83.5883 175.421 82.7447C174.536 80.9688 172.807 79.8996 171.144 78.8925L171.997 78.9695C170.161 77.9013 168.56 76.4732 167.289 74.7709C167.122 75.2207 166.408 75.1752 166.099 74.8079C165.79 74.4406 165.754 73.9255 165.672 73.4525C165.568 72.8564 165.286 72.1811 164.543 72.2273C164.366 72.2434 164.194 72.2959 164.038 72.3817C163.882 72.4675 163.745 72.5846 163.636 72.7257C161.527 75.3482 159.982 78.3788 159.099 81.6271C158.903 82.3487 158.75 83.1567 159.108 83.8131C159.466 84.4695 160.557 84.7122 160.938 84.0689Z" fill="#2F2E41"/>
<path d="M115.566 126.62C114.484 126.563 113.439 126.205 112.548 125.588C111.657 124.971 110.955 124.119 110.52 123.126C109.525 120.906 109.881 118.278 111.105 116.228C112.381 114.089 114.378 112.824 116.536 111.704C118.513 110.679 120.643 109.477 121.544 107.315C121.948 106.376 122.001 105.322 121.694 104.347C121.548 103.888 121.316 103.461 121.011 103.089C120.654 102.711 120.22 102.414 119.738 102.219C119.268 101.975 119.048 101.518 118.814 101.064C118.555 100.561 118.272 100.075 117.988 99.5852C117.313 98.4217 116.665 97.2433 116.043 96.0499C113.55 91.2916 111.53 86.2999 110.013 81.1465C107.179 71.4283 106.294 60.9767 108.667 51.0634C109.802 46.3252 111.654 41.6834 114.384 37.6319C116.9 33.8979 120.351 30.598 124.673 29.106C128.826 27.6719 133.904 27.8115 137.461 30.6494C140.383 32.9804 142.1 37.0564 141.308 40.7674C141.116 41.6673 140.773 42.5283 140.294 43.3138L141.141 43.6708C143.206 38.1133 150.134 36.0253 155.473 37.5454C162.001 39.4035 165.464 46.415 165.764 52.7744C166.131 60.5771 162.023 67.7701 157.189 73.5862C152.212 79.5316 146.391 84.7162 139.912 88.975C133.467 93.2427 126.448 96.5705 119.064 98.858C118.15 99.1399 117.232 99.4054 116.308 99.6543C116.194 99.6903 116.097 99.7693 116.04 99.8749C115.982 99.9804 115.968 100.104 116 100.22C116.032 100.336 116.108 100.435 116.211 100.496C116.314 100.557 116.438 100.576 116.555 100.548C124.324 98.4401 131.741 95.2024 138.569 90.9382C145.412 86.682 151.586 81.434 156.888 75.3655C162.042 69.439 166.623 62.1424 166.713 54.0373C166.787 47.3705 163.66 39.8999 157.181 37.1685C151.802 34.9012 144.524 36.3597 141.233 41.4315C140.832 42.0576 140.502 42.726 140.248 43.4244C140.06 43.9289 140.83 44.2169 141.094 43.7815C143.191 40.3317 142.629 35.8715 140.46 32.5942C137.993 28.8657 133.633 27.1152 129.25 27.2964C119.075 27.7173 112.552 36.9097 109.338 45.6394C105.71 55.4917 105.654 66.3718 107.882 76.5466C109.087 81.9471 110.857 87.206 113.16 92.2369C114.32 94.7963 115.601 97.2957 117.005 99.7352C117.301 100.251 117.618 100.757 117.89 101.286C118.1 101.779 118.386 102.235 118.737 102.639C119.118 103.019 119.662 103.105 120.068 103.438C120.482 103.818 120.766 104.318 120.878 104.868C121.476 107.322 119.186 109.183 117.306 110.244C116.136 110.904 114.9 111.45 113.777 112.192C112.793 112.833 111.914 113.623 111.17 114.532C109.661 116.401 108.802 118.772 109.068 121.19C109.174 122.314 109.543 123.399 110.147 124.354C110.75 125.309 111.57 126.108 112.541 126.687C113.462 127.221 114.502 127.516 115.566 127.547C116.163 127.564 116.162 126.637 115.566 126.62V126.62Z" fill="#FD7C5F"/>
<path d="M74.0723 120.188L78.3959 97.0217L91.9843 95.7861L100.904 120.995L74.0723 120.188Z" fill="#A0616A"/>
<path d="M170.118 98.8749L159 123.276L184.787 125.974L191.736 96.4038L170.118 98.8749Z" fill="#FFB6B6"/>
<path d="M209.538 195.005L207.267 197.539L196.194 189.793L199.545 186.052L209.538 195.005Z" fill="#FFB6B6"/>
<path d="M206.395 206.761C206.695 207.029 207.09 207.168 207.493 207.146C207.896 207.124 208.273 206.943 208.543 206.643L213.056 201.603L212.037 199.128L214.135 200.396L215.84 198.495L208.956 193.291L208.325 193.918L205.744 196.472L204.913 197.297L206.726 198.922L205.901 205.437C205.87 205.681 205.899 205.929 205.985 206.16C206.071 206.39 206.211 206.596 206.395 206.761V206.761Z" fill="#2F2E41"/>
<path d="M165.447 218.104L162.047 218.23L159.933 204.881L164.95 204.695L165.447 218.104Z" fill="#FFB6B6"/>
<path d="M154.806 224.004C154.821 224.407 154.996 224.788 155.291 225.062C155.587 225.337 155.979 225.483 156.382 225.469L163.142 225.218L164.216 222.766L164.76 225.157L167.311 225.064L166.276 216.496L165.386 216.477L161.757 216.392L160.586 216.367L160.676 218.8L155.415 222.729C155.218 222.877 155.06 223.07 154.953 223.292C154.847 223.514 154.797 223.758 154.806 224.004Z" fill="#2F2E41"/>
<path d="M185.567 121.252H160.002L151.897 139.029C151.897 139.029 145.66 169.168 149.118 176.712C152.515 184.126 159 210.38 159 210.38L165.795 208.836L167.339 204.203C167.339 204.203 164.731 199.869 165.486 198.334C166.24 196.8 163.633 196.79 163.633 196.79C163.633 196.79 163.674 195.772 163.942 192.774C164.21 189.776 161.471 171.153 161.471 171.153L170.736 142.118L185.567 121.252Z" fill="#5B4A9A"/>
<path d="M165.432 127.157L170.736 142.118L167.664 167.257C167.564 168.072 167.671 168.9 167.975 169.664C168.279 170.428 168.77 171.103 169.402 171.627L197.913 195.245L204.398 187.832L202.307 186.052C202.307 186.052 198.909 184.945 199.801 183.918C200.692 182.89 197.593 182.038 197.593 182.038C197.593 182.038 197.087 184.187 195.184 179.986C193.28 175.786 181.827 168.613 181.827 168.613C181.827 168.613 197.604 135.322 185.567 121.252L165.432 127.157Z" fill="#5B4A9A"/>
<path d="M50.7119 190.99L52.9821 193.524L64.0551 185.777L60.7043 182.037L50.7119 190.99Z" fill="#A0616A"/>
<path d="M54.3488 201.422L53.5232 194.907L55.3368 193.282L54.5057 192.457L51.9244 189.903L51.2932 189.276L44.4097 194.48L46.114 196.381L48.212 195.112L47.1933 197.588L51.7065 202.628C51.9229 202.869 52.2108 203.035 52.5282 203.102C52.8457 203.168 53.176 203.131 53.471 202.997C53.766 202.862 54.0102 202.637 54.1681 202.353C54.3261 202.07 54.3894 201.744 54.3488 201.422V201.422Z" fill="#2F2E41"/>
<path d="M80.3242 205.189L83.4162 206.609L90.4856 195.09L85.922 192.995L80.3242 205.189Z" fill="#A0616A"/>
<path d="M87.8161 213.308L84.4633 207.661L85.4793 205.448L84.3882 205.022L81.0033 203.709L80.1744 203.385L75.9346 210.902L78.2549 211.966L79.6737 209.966L79.7258 212.643L85.8731 215.467C86.1678 215.602 86.4981 215.639 86.8156 215.574C87.1332 215.508 87.4214 215.343 87.6384 215.102C87.8553 214.861 87.9895 214.556 88.0215 214.234C88.0535 213.911 87.9815 213.586 87.8161 213.308V213.308Z" fill="#2F2E41"/>
<path d="M74.6826 117.237H100.247L108.352 135.014C108.352 135.014 116.999 166.829 111.132 172.697C105.264 178.566 89.2048 198.643 89.2048 198.643L83.6459 196.481L98.7785 167.137L89.5136 138.103L74.6826 117.237Z" fill="#5B4A9A"/>
<path d="M94.8175 123.142L89.5139 138.103L92.5859 163.241C92.6856 164.057 92.5786 164.885 92.2748 165.649C91.971 166.412 91.48 167.087 90.8472 167.612L63.5724 186.597L59.5576 181.964L78.4229 164.598C78.4229 164.598 62.6459 131.307 74.6829 117.237L94.8175 123.142Z" fill="#5B4A9A"/>
<path d="M187.412 114.937L164.868 109.068C164.868 109.068 165.703 101.662 164.359 101.967C163.015 102.272 164.204 99.801 164.204 99.801C164.204 99.801 165.177 98.8748 164.041 97.5286C160.156 92.924 163.287 87.0076 163.287 87.0076C163.384 84.0958 164.498 81.3102 166.437 79.1354C168.375 76.9606 171.014 75.5343 173.895 75.1045L182.268 73.8555C184.009 73.8555 185.73 74.2329 187.311 74.9618C188.892 75.6906 190.297 76.7536 191.428 78.0776C192.559 79.4015 193.39 80.9548 193.863 82.6307C194.336 84.3066 194.441 86.0651 194.169 87.7852L187.412 114.937Z" fill="#2F2E41"/>
<path d="M183.706 76.6355L171.044 76.9444L172.28 71.0757H181.545L183.706 76.6355Z" fill="#2F2E41"/>
<path d="M202.451 104.555L187.988 87.9643C187.377 87.2596 187.068 86.343 187.127 85.4123C187.186 84.4817 187.608 83.6115 188.303 82.9897V82.9897C188.663 82.668 189.084 82.4229 189.541 82.2693C189.998 82.1157 190.482 82.0569 190.963 82.0964C191.444 82.1359 191.911 82.2729 192.337 82.4991C192.763 82.7253 193.139 83.0359 193.441 83.412L207.937 101.106L217.198 111.486C217.8 111.281 218.451 111.266 219.063 111.443C219.674 111.62 220.216 111.982 220.615 112.478C221.014 112.974 221.25 113.581 221.292 114.216C221.334 114.851 221.179 115.484 220.849 116.029C220.519 116.573 220.03 117.002 219.447 117.259C218.864 117.515 218.217 117.586 217.593 117.461C216.968 117.337 216.398 117.023 215.958 116.563C215.518 116.102 215.231 115.518 215.135 114.888L202.451 104.555Z" fill="#FFB6B6"/>
<path d="M189.41 92.6739C189.181 92.663 188.962 92.5771 188.786 92.4296C188.611 92.282 188.488 92.0808 188.438 91.857C188.371 91.582 188.219 91.3348 188.005 91.15C187.963 91.1148 187.919 91.0823 187.873 91.0529C187.59 90.8821 187.354 90.6457 187.182 90.3637C187.011 90.0818 186.91 89.7626 186.888 89.4334C186.833 88.3488 186.222 87.1929 185.565 86.2669C184.846 85.2536 184.061 84.264 183.605 83.1079C182.947 81.4402 183.075 79.2951 185.111 78.3848C185.983 78.011 186.958 77.9494 187.87 78.2102C189.785 78.7301 191.172 80.2158 192.485 81.6498L192.242 80.828C193.649 82.4192 195.363 83.7098 197.281 84.6224C196.873 84.8749 197.058 85.5661 197.478 85.7972C197.899 86.0282 198.411 85.9625 198.891 85.9504C199.496 85.9351 200.213 86.0795 200.313 86.817C200.332 86.9941 200.315 87.1732 200.261 87.3431C200.208 87.513 200.12 87.6699 200.003 87.8042C197.845 90.3875 195.176 92.4966 192.165 93.999C191.495 94.3322 190.733 94.6409 190.02 94.4185C189.306 94.1962 188.854 93.1734 189.41 92.6739Z" fill="#2F2E41"/>
<path d="M167.577 59.5925C170.396 64.4493 165.088 72.6329 170.438 74.3322L169.997 73.8914C166.768 69.9189 173.517 61.5108 170.288 57.5383C169.786 56.9555 169.356 56.3152 169.005 55.6309L167.577 59.5925Z" fill="#2F2E41"/>
<path d="M189.572 58.8563C189.572 60.4303 189.186 61.9804 188.448 63.3705C187.71 64.7606 186.642 65.9482 185.338 66.8291C184.033 67.7099 182.533 68.2571 180.968 68.4226C179.403 68.588 177.821 68.3667 176.361 67.778C174.902 67.1893 173.609 66.2513 172.597 65.0463C171.584 63.8412 170.883 62.406 170.554 60.8667C170.226 59.3273 170.28 57.7308 170.713 56.2174C171.145 54.704 171.943 53.3199 173.035 52.1866L173.081 52.1404C173.158 52.0596 173.235 51.9789 173.316 51.9019C173.316 51.9019 173.317 51.9018 173.317 51.9017C173.317 51.9015 173.318 51.9012 173.318 51.9008C173.319 51.9005 173.319 51.9 173.319 51.8996C173.319 51.8991 173.319 51.8986 173.319 51.8981C173.419 51.8058 173.519 51.7135 173.623 51.625C175.012 50.4068 176.723 49.6149 178.551 49.344C180.379 49.0732 182.246 49.335 183.928 50.098C185.611 50.861 187.038 52.0928 188.039 53.6462C189.04 55.1995 189.572 57.0083 189.572 58.8563Z" fill="#2F2E41"/>
<path d="M177.588 69.1445C182.041 69.1445 185.65 65.5343 185.65 61.081C185.65 56.6277 182.041 53.0176 177.588 53.0176C173.136 53.0176 169.526 56.6277 169.526 61.081C169.526 65.5343 173.136 69.1445 177.588 69.1445Z" fill="#FFB8B8"/>
<path d="M183.348 53.328C182.1 52.1589 180.547 51.3658 178.868 51.0398C177.188 50.7137 175.451 50.8679 173.856 51.4848C173.815 51.503 173.77 51.5211 173.729 51.5394C173.569 51.6031 173.41 51.6759 173.251 51.7533L173.16 51.7942V51.8079L173.105 51.8489C173.068 51.8832 173.022 51.9081 172.973 51.9217C172.273 51.903 171.576 52.0324 170.929 52.3014C170.283 52.5704 169.7 52.973 169.219 53.4828C167.972 54.8391 167.381 57.0328 167.563 59.6544L167.567 59.7363L167.64 59.7818C167.663 59.7955 167.681 59.8092 167.704 59.8228C168.341 60.2188 168.946 60.5692 169.533 60.8787C169.888 61.0699 170.234 61.2428 170.58 61.4021L170.702 61.4567C170.834 61.5205 170.971 61.5796 171.103 61.6388C174.434 63.0952 177.506 63.3228 180.454 62.3443L180.509 62.326L181.501 60.6648L181.815 60.1414C181.883 60.5146 181.924 61.1017 181.97 61.7753C182.021 62.8269 182.138 63.8743 182.32 64.9112V64.9203C182.502 65.8397 182.784 66.5816 183.248 66.8273C183.318 66.8713 183.395 66.9007 183.476 66.9138L184.213 65.9398L186.152 63.382L186.183 63.2318C186.971 59.6772 185.833 55.6993 183.348 53.328Z" fill="#2F2E41"/>
<path d="M206.251 38.0249C204.617 35.8585 203.119 29.7415 200.721 28.4763C200.48 28.3488 200.239 28.2305 199.993 28.1213C200.233 28.6946 200.28 29.3306 200.125 29.9327C199.911 30.67 199.365 31.2572 198.833 31.8124C197.354 33.3644 195.873 34.9149 194.391 36.4639C195.387 35.1444 196.095 33.6307 196.47 32.0204C196.845 30.4101 196.878 28.7392 196.566 27.1154C195.33 26.9309 194.072 26.9679 192.849 27.2247C190.2 27.7981 187.77 29.5913 186.719 32.0901C185.822 34.2019 185.95 36.6004 186.237 38.8761C186.523 41.1518 186.965 43.4548 186.646 45.7259C186.332 48.0015 185.081 50.3091 182.947 51.1556C183.42 50.8689 183.388 50.0997 182.992 49.7174C182.669 49.4404 182.252 49.3 181.827 49.326C181.694 49.3249 181.562 49.3356 181.431 49.3579C179.734 49.6264 178.492 51.0464 177.408 52.3845C177.135 52.4229 176.877 52.5358 176.662 52.7107C176.448 52.8856 176.286 53.116 176.194 53.3767C176.091 53.6511 176.091 53.9533 176.194 54.2278C176.553 55.129 178 55.3019 178.56 54.51C178.4 55.1582 178.382 55.8332 178.507 56.4889C178.632 57.1447 178.897 57.7659 179.283 58.3101C179.67 58.8544 180.169 59.3089 180.747 59.6427C181.325 59.9765 181.968 60.1819 182.633 60.2447C184.594 60.4313 187.711 60.7271 189.008 59.2388C191.033 56.9085 194.141 54.5737 194.469 51.5015C194.792 48.4339 196.489 49.0438 197.199 46.0399C197.909 43.0315 200.826 41.9938 203.57 40.5783C206.637 38.9944 203.434 36.0223 206.251 38.0249Z" fill="#2F2E41"/>
<path d="M181.439 60.5597C184.258 65.4166 178.95 73.6001 184.3 75.2995L183.859 74.8587C180.63 70.8862 187.379 62.4781 184.15 58.5055C183.649 57.9228 183.218 57.2825 182.867 56.5981L181.439 60.5597Z" fill="#2F2E41"/>
<path d="M185.806 63.1563C185.806 63.1563 183.418 54.2403 173.181 52.1825C173.169 52.1787 173.131 52.1633 173.081 52.1402C173.05 52.121 173.012 52.1017 172.973 52.0825C173.089 52.0171 173.2 51.9594 173.315 51.9017C173.316 51.9017 173.316 51.9016 173.317 51.9014C173.317 51.9012 173.318 51.9009 173.318 51.9006C173.319 51.9002 173.319 51.8998 173.319 51.8993C173.319 51.8988 173.319 51.8983 173.319 51.8978C173.419 51.8055 173.519 51.7132 173.623 51.6248L173.915 51.6363C173.915 51.6363 184.187 50.0093 185.806 63.1563Z" fill="#FD6584"/>
<path d="M96.3404 103.476L87.205 81.2153C86.8207 80.2711 86.8231 79.2136 87.2115 78.271C87.5999 77.3285 88.3433 76.5765 89.2812 76.1773V76.1773C89.7664 75.9708 90.2886 75.8653 90.8159 75.8672C91.3432 75.8691 91.8646 75.9784 92.3483 76.1885C92.832 76.3985 93.2678 76.7048 93.6292 77.0889C93.9907 77.4729 94.2702 77.9265 94.4506 78.422L103.231 101.836L109.166 115.839C109.862 115.838 110.542 116.051 111.112 116.45C111.682 116.849 112.116 117.413 112.354 118.067C112.593 118.721 112.624 119.432 112.444 120.105C112.264 120.777 111.882 121.378 111.348 121.825C110.815 122.272 110.157 122.544 109.464 122.605C108.771 122.665 108.076 122.51 107.474 122.162C106.871 121.813 106.391 121.288 106.098 120.657C105.804 120.026 105.712 119.319 105.834 118.634L96.3404 103.476Z" fill="#A0616A"/>
<path d="M87.0213 86.5909C86.788 86.4989 86.5913 86.333 86.4615 86.1184C86.3316 85.9039 86.2757 85.6526 86.3024 85.4033C86.3295 85.095 86.2597 84.7859 86.1027 84.5192C86.0718 84.468 86.0375 84.4188 86.0001 84.3721C85.768 84.096 85.6059 83.768 85.5277 83.4159C85.4495 83.0637 85.4574 82.6979 85.5508 82.3495C85.8747 81.2073 85.6492 79.7961 85.2946 78.6064C84.9065 77.3045 84.442 76.0041 84.3768 74.6471C84.2828 72.6896 85.1692 70.5141 87.5972 70.2883C88.6313 70.2083 89.6615 70.4873 90.514 71.0782C92.3129 72.29 93.226 74.3157 94.0811 76.2621L94.1189 75.3261C95.0158 77.4682 96.336 79.407 98.0003 81.0264C97.489 81.1441 97.4369 81.9245 97.791 82.3117C98.1452 82.6989 98.6983 82.811 99.1992 82.9672C99.8305 83.1642 100.522 83.566 100.367 84.3647C100.324 84.5547 100.243 84.7338 100.128 84.8908C100.012 85.0478 99.8661 85.1793 99.6978 85.2771C96.5559 87.1918 93.052 88.436 89.4063 88.9314C88.5965 89.041 87.699 89.0923 87.0386 88.6111C86.3781 88.1299 86.27 86.9122 87.0213 86.5909Z" fill="#E6E6E6"/>
<path d="M96.6168 108.759L76.1753 109.015C76.1753 109.015 73.883 108.915 73.883 107.529C73.883 106.144 75.1643 105.854 73.485 104.787C71.8056 103.72 71.1131 104.413 71.4594 102.681C71.8056 100.95 72.1518 100.377 72.1518 99.9709C72.1518 99.5646 71.8056 97.8332 71.8056 96.1017C71.8056 95.2623 74.5019 93.7381 73.8311 88.819C73.0139 82.8257 73.3006 73.6539 79.0765 71.8611L83.2313 64.5889H91.1511L93.6184 71.861L96.5429 75.6943C96.5429 75.6943 102.312 82.9905 100.581 86.7998C98.8494 90.609 96.6168 108.759 96.6168 108.759Z" fill="#E6E6E6"/>
<path d="M114.948 74.2592L91.8333 80.9344C90.8532 81.2143 89.8023 81.0976 88.9075 80.6094C88.0127 80.1212 87.3456 79.3007 87.0503 78.3249V78.3249C86.8976 77.8201 86.8492 77.2895 86.9081 76.7655C86.9671 76.2414 87.1321 75.7348 87.3932 75.2766C87.6543 74.8184 88.006 74.4181 88.4268 74.1003C88.8475 73.7824 89.3286 73.5536 89.8407 73.4278L114.064 67.2302L128.624 62.8437C128.698 62.1518 128.984 61.4995 129.442 60.9755C129.9 60.4515 130.508 60.0813 131.183 59.915C131.859 59.7488 132.57 59.7946 133.218 60.0463C133.867 60.298 134.423 60.7433 134.81 61.3218C135.196 61.9002 135.396 62.5838 135.381 63.2796C135.366 63.9754 135.137 64.6497 134.725 65.2109C134.314 65.7721 133.739 66.1929 133.08 66.4163C132.421 66.6396 131.71 66.6546 131.042 66.4593L114.948 74.2592Z" fill="#A0616A"/>
<path d="M97.1564 81.6987C97.0398 81.9207 96.8536 82.0983 96.6263 82.2043C96.399 82.3102 96.1432 82.3386 95.8982 82.2851C95.5947 82.2247 95.28 82.2607 94.9979 82.388C94.9436 82.4132 94.8911 82.442 94.8406 82.4741C94.5411 82.675 94.1975 82.8006 93.839 82.8403C93.4806 82.88 93.1178 82.8325 92.7816 82.702C91.6814 82.2564 90.2543 82.3279 89.0334 82.5518C87.6974 82.7969 86.3545 83.118 84.9987 83.036C83.0429 82.9178 80.9764 81.8011 81.0147 79.3625C81.047 78.3256 81.4358 77.3315 82.1154 76.5477C83.5144 74.8902 85.6267 74.2014 87.6538 73.5618L86.7276 73.4229C88.9537 72.7629 91.0237 71.66 92.8133 70.1804C92.875 70.7015 93.6451 70.8377 94.0682 70.5275C94.4914 70.2172 94.6626 69.6793 94.8722 69.1982C95.1362 68.5918 95.6105 67.9475 96.3875 68.1886C96.5717 68.2515 96.7409 68.3518 96.8845 68.4832C97.0282 68.6147 97.143 68.7744 97.222 68.9524C98.7853 72.2835 99.6429 75.902 99.7409 79.5806C99.7622 80.3976 99.7161 81.2955 99.1663 81.9001C98.6166 82.5048 97.3945 82.4805 97.1564 81.6987Z" fill="#E6E6E6"/>
<path d="M85.8104 65.8934C90.9097 65.8934 95.0436 61.7589 95.0436 56.6586C95.0436 51.5584 90.9097 47.4238 85.8104 47.4238C80.711 47.4238 76.5771 51.5584 76.5771 56.6586C76.5771 61.7589 80.711 65.8934 85.8104 65.8934Z" fill="#A0616A"/>
<path d="M78.6759 49.8314C78.771 49.0003 79.3405 47.9731 79.7366 47.2364C80.1328 46.4996 80.8978 45.898 81.7326 45.9493C82.0737 45.9889 82.4002 46.1103 82.6842 46.3034C82.9682 46.4964 83.2013 46.7553 83.3636 47.058C83.6823 47.6673 83.8559 48.342 83.871 49.0295C83.9582 50.5634 83.7022 52.0974 83.1214 53.5198C82.5406 54.9421 81.6499 56.2169 80.514 57.2513C79.8669 57.8317 79.0881 58.3483 78.2191 58.368C77.8244 58.3586 77.4356 58.2703 77.0756 58.1083C76.7155 57.9463 76.3915 57.714 76.1226 57.4249C74.7159 56.0159 74.5033 53.6995 75.2545 51.8556C76.0057 50.0117 76.341 49.2942 78.0583 48.287" fill="#2F2E41"/>
<path d="M91.6467 63.1131C91.4923 63.9347 92.9129 67.8421 92.4589 68.5463C92.4589 68.5463 87.7581 70.1793 85.9607 70.2967C83.765 70.4388 81.9989 69.5378 79.9452 68.1818C79.908 67.4462 79.6951 66.7302 79.3245 66.0938C79.3555 66.5868 79.2554 67.0792 79.0342 67.5208C76.0262 65.1239 74.8971 58.5327 77.8711 55.4717L80.9594 48.3674C80.0329 48.6763 82.8297 43.9038 85.779 47.3602C89.4695 43.6011 96.6188 49.0127 97.5145 53.8467C96.6526 52.7556 96.2036 52.8842 95.9826 53.6367C95.7285 53.0038 95.326 52.4413 94.8091 51.9965C95.0662 52.5046 95.1976 53.0671 95.1921 53.6366C89.3706 53.998 90.4541 57.926 95.2256 63.8102C93.4611 62.7116 94.6518 67.4457 93.7097 68.5772C93.6633 67.7864 91.8135 63.8822 91.6467 63.1131Z" fill="#2F2E41"/>
<path d="M83.246 55.5479C83.1715 55.5478 83.0996 55.5208 83.0434 55.4718C82.9873 55.4229 82.9507 55.3553 82.9404 55.2815C82.9302 55.2077 82.9469 55.1327 82.9876 55.0703C83.0282 55.0079 83.0901 54.9623 83.1617 54.9419C83.2427 54.8082 83.2095 54.2458 83.1828 53.7914C83.0824 52.0852 82.9143 49.2296 85.6862 47.3019C85.7195 47.2786 85.757 47.2621 85.7967 47.2533C85.8364 47.2446 85.8774 47.2438 85.9174 47.2509C85.9574 47.258 85.9955 47.273 86.0298 47.2949C86.064 47.3168 86.0935 47.3452 86.1167 47.3786C86.1399 47.4119 86.1563 47.4496 86.1649 47.4893C86.1735 47.529 86.1743 47.57 86.167 47.61C86.1598 47.6499 86.1447 47.6881 86.1227 47.7222C86.1007 47.7564 86.0722 47.7859 86.0387 47.809C83.5512 49.539 83.7005 52.0763 83.7994 53.7551C83.8558 54.7149 83.8967 55.4082 83.3146 55.5402C83.2921 55.5453 83.2691 55.5479 83.246 55.5479V55.5479Z" fill="#7CB966"/>
<path d="M83.3899 52.8904C81.505 53.6728 79.4973 54.1178 77.4584 54.2052C75.8412 54.2737 73.9117 53.913 73.2542 52.4336C72.8554 51.5361 73.0679 50.4841 73.4327 49.5723C73.7976 48.6604 74.3095 47.7989 74.5208 46.8397C74.9759 44.7734 73.9017 42.5836 72.2532 41.2577C70.6046 39.9317 68.4771 39.3466 66.3784 39.0806C67.9552 38.4955 69.5561 37.9048 71.2321 37.7645C72.908 37.6241 74.6979 37.9885 75.9492 39.1124C77.3033 40.3286 77.8236 42.2176 78.054 44.0232C78.2843 45.8289 78.2962 47.6885 78.9082 49.4028C79.5201 51.1171 80.9259 52.7136 82.7395 52.8656" fill="#2F2E41"/>
<path d="M226.441 188.997C226.509 188.415 226.462 187.825 226.303 187.261C226.143 186.697 225.874 186.17 225.511 185.711C225.148 185.251 224.698 184.867 224.186 184.581C223.675 184.295 223.112 184.113 222.53 184.045C222.519 184.043 222.508 184.043 222.497 184.042L222.497 184.041L222.497 184.041L222.5 184.009L222.467 184.005C222.534 183.401 222.478 182.79 222.3 182.208C222.123 181.627 221.829 181.088 221.436 180.625C221.043 180.161 220.56 179.783 220.015 179.513C219.471 179.243 218.877 179.087 218.271 179.055C217.664 179.022 217.057 179.114 216.487 179.325C215.917 179.535 215.396 179.86 214.956 180.279C214.516 180.698 214.167 181.203 213.929 181.762C213.691 182.321 213.569 182.923 213.572 183.531L212.598 191.832L212.63 191.836L212.631 191.836L220.964 192.814C221.577 192.963 222.215 192.98 222.836 192.864C223.456 192.747 224.045 192.501 224.563 192.14C225.08 191.779 225.516 191.312 225.839 190.77C226.163 190.228 226.368 189.624 226.441 188.997V188.997Z" fill="#F2F2F2"/>
<path d="M41.8793 173.506C41.2935 173.494 40.711 173.597 40.1649 173.809C39.6189 174.022 39.12 174.34 38.6969 174.745C38.2737 175.15 37.9345 175.635 37.6986 176.171C37.4627 176.708 37.3348 177.285 37.3221 177.871C37.3219 177.882 37.3224 177.893 37.3222 177.904L37.3214 177.904L37.3221 177.905L37.2893 177.904L37.2886 177.938C36.6811 177.928 36.078 178.043 35.5163 178.274C34.9547 178.506 34.4462 178.85 34.0223 179.285C33.5983 179.721 33.2676 180.238 33.0506 180.805C32.8336 181.373 32.7348 181.979 32.7603 182.586C32.7857 183.193 32.9349 183.789 33.1987 184.336C33.4625 184.884 33.8352 185.371 34.2942 185.77C34.7531 186.168 35.2886 186.468 35.8677 186.652C36.4467 186.836 37.0573 186.899 37.6618 186.839L46.0173 187.02L46.018 186.987L46.0173 186.986L46.199 178.597C46.289 177.972 46.2452 177.335 46.0706 176.728C45.8959 176.122 45.5944 175.559 45.186 175.078C44.7776 174.597 44.2716 174.208 43.7015 173.937C43.1314 173.666 42.5103 173.519 41.8793 173.506V173.506Z" fill="#F2F2F2"/>
</svg>
