<svg width="260" height="260" viewBox="0 0 260 260" fill="none" xmlns="http://www.w3.org/2000/svg">
<path d="M186.571 218.792C183.387 216.113 181.453 211.882 181.96 207.762C182.467 203.643 185.608 199.856 189.683 198.981C193.757 198.107 198.401 200.528 199.639 204.491C200.32 196.851 201.105 188.89 205.184 182.383C208.878 176.492 215.276 172.276 222.21 171.522C229.144 170.768 236.445 173.616 240.77 179.066C245.094 184.515 246.153 192.438 243.124 198.695C240.893 203.304 236.782 206.734 232.475 209.524C218.558 218.465 201.866 222.102 185.471 219.763" fill="#F2F2F2"/>
<path d="M233.912 173.774C228.191 178.414 222.942 183.604 218.242 189.269C210.886 198.103 204.934 208.008 200.592 218.638C200.274 219.413 201.539 219.751 201.853 218.984C208.957 201.708 220.297 186.48 234.837 174.695C235.49 174.166 234.56 173.249 233.912 173.774Z" fill="white"/>
<path d="M71.2313 220.626H53.1761C52.5661 220.625 51.9812 220.383 51.5498 219.954C51.1184 219.524 50.8757 218.942 50.875 218.334V180.968C50.8757 180.361 51.1184 179.778 51.5498 179.349C51.9812 178.919 52.5661 178.677 53.1761 178.677H71.2313C71.8414 178.677 72.4263 178.919 72.8577 179.349C73.2891 179.778 73.5318 180.361 73.5325 180.968V218.334C73.5318 218.942 73.2891 219.524 72.8577 219.954C72.4263 220.383 71.8414 220.625 71.2313 220.626Z" fill="#FD7C5F"/>
<path d="M114.068 220.978H96.0126C95.3086 220.977 94.6337 220.698 94.136 220.203C93.6382 219.707 93.3582 219.035 93.3574 218.334V145.717C93.3582 145.016 93.6382 144.344 94.136 143.848C94.6337 143.352 95.3086 143.074 96.0126 143.073H114.068C114.772 143.074 115.447 143.352 115.944 143.848C116.442 144.344 116.722 145.016 116.723 145.717V218.334C116.722 219.035 116.442 219.707 115.944 220.203C115.447 220.698 114.772 220.977 114.068 220.978V220.978ZM96.0126 143.778C95.4964 143.778 95.0014 143.983 94.6364 144.346C94.2714 144.71 94.0661 145.203 94.0655 145.717V218.334C94.0661 218.848 94.2714 219.341 94.6364 219.704C95.0014 220.068 95.4964 220.272 96.0126 220.273H114.068C114.584 220.272 115.079 220.068 115.444 219.704C115.809 219.341 116.014 218.848 116.015 218.334V145.717C116.014 145.203 115.809 144.71 115.444 144.346C115.079 143.983 114.584 143.778 114.068 143.778H96.0126Z" fill="#3F3D56"/>
<path d="M156.905 220.978H138.85C138.146 220.977 137.471 220.698 136.973 220.203C136.475 219.707 136.195 219.035 136.194 218.334V99.5374C136.195 98.8364 136.475 98.1644 136.973 97.6688C137.471 97.1731 138.146 96.8943 138.85 96.8936H156.905C157.609 96.8943 158.284 97.1731 158.781 97.6688C159.279 98.1644 159.559 98.8364 159.56 99.5374V218.334C159.559 219.035 159.279 219.707 158.781 220.203C158.284 220.698 157.609 220.977 156.905 220.978V220.978ZM138.85 97.5986C138.333 97.5992 137.838 97.8036 137.473 98.1671C137.108 98.5306 136.903 99.0234 136.902 99.5374V218.334C136.903 218.848 137.108 219.341 137.473 219.704C137.838 220.068 138.333 220.272 138.85 220.273H156.905C157.421 220.272 157.916 220.068 158.281 219.704C158.646 219.341 158.851 218.848 158.852 218.334V99.5374C158.851 99.0234 158.646 98.5306 158.281 98.1671C157.916 97.8036 157.421 97.5992 156.905 97.5986H138.85Z" fill="#3F3D56"/>
<path d="M200.141 220.802H182.086C181.476 220.801 180.891 220.56 180.46 220.13C180.029 219.7 179.786 219.118 179.785 218.511V51.0672C179.786 50.4597 180.029 49.8773 180.46 49.4478C180.891 49.0182 181.476 48.7766 182.086 48.7759H200.141C200.752 48.7766 201.336 49.0182 201.768 49.4478C202.199 49.8773 202.442 50.4597 202.443 51.0672V218.511C202.442 219.118 202.199 219.7 201.768 220.13C201.336 220.56 200.752 220.801 200.141 220.802Z" fill="#FD7C5F"/>
<path d="M87.8499 117.384C87.9154 116.87 87.8669 116.348 87.7078 115.854C87.5488 115.361 87.283 114.908 86.9292 114.528C86.5754 114.148 86.1422 113.85 85.6601 113.654C85.1781 113.459 84.6589 113.371 84.1391 113.397L77.8458 101.902L76.4297 106.838L80.7413 117.373C80.8432 118.239 81.2608 119.038 81.9149 119.619C82.5691 120.199 83.4143 120.521 84.2906 120.522C85.1668 120.524 86.0131 120.205 86.6691 119.626C87.3251 119.048 87.7453 118.25 87.8499 117.384V117.384Z" fill="#A0616A"/>
<path d="M39.3616 162.772L42.8668 165.32L54.4061 153.069L49.2324 149.308L39.3616 162.772Z" fill="#A0616A"/>
<path d="M47.251 173.476L36.2338 165.467L39.3414 161.228L46.1019 166.143C47.2308 166.963 47.9861 168.197 48.2016 169.572C48.4171 170.947 48.0752 172.351 47.251 173.476V173.476L47.251 173.476Z" fill="#2F2E41"/>
<path d="M57.907 176.26L62.2473 176.26L64.3119 159.59L57.9062 159.591L57.907 176.26Z" fill="#A0616A"/>
<path d="M70.6179 180.272L56.9772 180.273L56.9769 175.025L65.3474 175.025C66.7452 175.025 68.0857 175.578 69.0741 176.562C70.0625 177.546 70.6179 178.881 70.6179 180.272V180.272V180.272Z" fill="#2F2E41"/>
<path d="M70.942 111.244C70.942 111.244 73.0661 131.69 67.7558 145.79L63.8615 172.581H57.1351L57.8432 140.855L55.365 112.654C55.365 112.654 60.3213 99.9637 70.942 111.244Z" fill="#5B4A9A"/>
<path d="M47.9305 112.654L55.011 136.977L41.2041 158.833L48.1075 164.65L63.8616 140.15L59.2593 110.187L47.9305 112.654Z" fill="#5B4A9A"/>
<path d="M65.9872 58.1111C70.7894 58.1111 74.6823 54.2347 74.6823 49.453C74.6823 44.6713 70.7894 40.7949 65.9872 40.7949C61.185 40.7949 57.292 44.6713 57.292 49.453C57.292 54.2347 61.185 58.1111 65.9872 58.1111Z" fill="#A0616A"/>
<path d="M58.7282 61.3638C58.7282 61.3638 64.0385 57.8387 70.0569 65.5939L71.65 114.417C71.65 114.417 67.0477 108.072 57.4891 114.064C47.9305 120.057 45.8064 113.359 45.8064 113.359C45.8064 113.359 39.0799 62.9501 58.7282 61.3638Z" fill="#CCCCCC"/>
<path d="M69.6287 65.4709C71.156 65.5531 72.5988 66.1948 73.6796 67.2725C74.7603 68.3502 75.4027 69.7877 75.4831 71.3086L76.6064 92.5612L84.0409 112.654L79.7926 116.18L65.9857 92.2087L63.159 72.5057C63.0294 71.6026 63.1025 70.6822 63.3731 69.8106C63.6436 68.939 64.1049 68.1381 64.7236 67.4653C65.3423 66.7925 66.1031 66.2647 66.9513 65.9199C67.7995 65.575 68.7139 65.4217 69.6287 65.4709V65.4709Z" fill="#CCCCCC"/>
<path d="M59.5979 55.9475C61.0194 57.4553 63.6594 56.6459 63.8446 54.5861C63.8591 54.4262 63.8581 54.2652 63.8414 54.1055C63.7458 53.1931 63.2164 52.3648 63.3432 51.4014C63.3719 51.1617 63.4616 50.9332 63.6039 50.7376C64.7366 49.2272 67.3957 51.4132 68.4647 50.0459C69.1202 49.2075 68.3497 47.8874 68.8527 46.9504C69.5167 45.7136 71.4832 46.3237 72.7164 45.6464C74.0885 44.8928 74.0064 42.7966 73.1032 41.5216C72.0017 39.9667 70.0704 39.1369 68.1632 39.0174C66.256 38.8978 64.3619 39.4111 62.5813 40.1021C60.5582 40.8871 58.5521 41.9721 57.3071 43.7434C55.793 45.8975 55.6474 48.7935 56.4045 51.3123C56.8652 52.8445 58.4371 54.7163 59.5979 55.9475Z" fill="#2F2E41"/>
<path d="M244.577 220.829H15.4203C15.3087 220.828 15.2018 220.784 15.123 220.705C15.0442 220.627 15 220.52 15 220.409C15 220.298 15.0442 220.191 15.123 220.113C15.2018 220.034 15.3087 219.99 15.4203 219.989H244.577C244.689 219.99 244.796 220.034 244.875 220.113C244.953 220.191 244.998 220.298 244.998 220.409C244.998 220.52 244.953 220.627 244.875 220.705C244.796 220.784 244.689 220.828 244.577 220.829Z" fill="#3F3D56"/>
</svg>
