<svg width="1346" height="300" viewBox="0 0 1346 300" fill="none" xmlns="http://www.w3.org/2000/svg">
<path d="M125.558 75.6564C122.618 80.7197 128.153 89.2511 122.574 91.0227L123.034 90.5632C126.402 86.4218 119.363 77.6563 122.73 73.5149C123.254 72.9074 123.703 72.2399 124.069 71.5264" fill="#2F2E41"/>
<path d="M153.089 149.94C153.186 149.433 153.17 148.911 153.043 148.411C152.916 147.911 152.681 147.446 152.354 147.046C152.027 146.647 151.617 146.324 151.152 146.101C150.687 145.877 150.179 145.758 149.663 145.753L142.396 124.645L138.374 129.771L146.057 149.493C146.105 150.361 146.469 151.18 147.08 151.797C147.692 152.413 148.508 152.784 149.375 152.839C150.242 152.894 151.099 152.629 151.783 152.095C152.468 151.561 152.933 150.794 153.089 149.94L153.089 149.94Z" fill="#FFB8B8"/>
<path d="M121.147 98.9778C121.147 98.9778 120.921 91.3372 127.755 95.7142C134.589 100.091 149.469 141.093 149.469 141.093L142.064 145.099L125.254 107.577L121.147 98.9778Z" fill="#5B4A9A"/>
<path d="M141.309 229.934L137.897 231.392L130.648 218.926L135.685 216.774L141.309 229.934Z" fill="#FFB6B6"/>
<path d="M145.637 235.076L143.19 236.121L141.766 233.998L141.634 236.786L135.143 239.559C134.832 239.692 134.487 239.722 134.157 239.644C133.828 239.567 133.532 239.387 133.312 239.129C133.093 238.872 132.961 238.551 132.937 238.214C132.913 237.876 132.997 237.54 133.178 237.254L136.831 231.46L135.833 229.125L141.424 227.121L145.637 235.076Z" fill="#2F2E41"/>
<path d="M87.8132 234.162L84.1067 233.981L83.0413 219.601L88.5122 219.868L87.8132 234.162Z" fill="#FFB6B6"/>
<path d="M89.456 240.679L86.7978 240.549L86.4459 238.017L85.1081 240.467L78.0579 240.122C77.72 240.106 77.3962 239.982 77.1337 239.768C76.8713 239.555 76.684 239.263 76.5992 238.935C76.5144 238.608 76.5365 238.262 76.6624 237.948C76.7882 237.634 77.0111 237.368 77.2986 237.19L83.1187 233.578L83.2427 231.041L89.1472 231.684L89.456 240.679Z" fill="#2F2E41"/>
<path d="M197.027 231.871C197.273 231.88 197.515 231.813 197.722 231.68C197.928 231.546 198.088 231.353 198.181 231.125C198.273 230.898 198.294 230.647 198.239 230.408C198.185 230.168 198.058 229.951 197.876 229.786C197.845 229.666 197.822 229.58 197.791 229.461C198.02 228.862 198.423 228.345 198.947 227.977C199.472 227.609 200.095 227.405 200.736 227.393C201.377 227.381 202.008 227.56 202.546 227.909C203.084 228.257 203.506 228.758 203.758 229.348C205.21 232.657 207.08 236.08 206.201 239.749C212.117 226.899 209.912 211.006 200.886 200.151C198.406 198.816 196.384 196.422 195.837 193.625C197.062 194.027 198.574 193.02 197.644 191.743C197.242 191.256 196.836 190.772 196.433 190.285C201.023 185.304 206.621 193.01 201.581 199.721C203.27 201.798 204.738 204.046 205.96 206.428C205.659 203.889 205.965 201.315 206.853 198.918C207.754 196.683 209.467 194.791 210.972 192.852C212.802 190.49 216.625 191.535 216.902 194.509C215.198 195.087 215 197.558 216.958 197.877C216.499 203.418 212.93 208.54 207.971 211.015C209.86 216.159 210.63 221.646 210.232 227.111C211.05 220.721 217.888 219.107 222.653 216.525C222.956 216.326 223.31 216.221 223.672 216.22C224.034 216.219 224.389 216.324 224.692 216.522C224.996 216.719 225.236 217.001 225.382 217.332C225.528 217.663 225.575 218.03 225.516 218.387C224.858 218.662 224.228 219.002 223.637 219.401C223.36 219.591 223.148 219.862 223.032 220.177C222.915 220.492 222.898 220.836 222.984 221.16C223.07 221.485 223.254 221.775 223.512 221.991C223.769 222.207 224.087 222.338 224.422 222.366C222.065 228.363 215.861 232.434 209.45 232.472C208.86 235.154 207.992 237.768 206.861 240.271L197.347 240.362C197.311 240.256 197.28 240.147 197.248 240.042C198.129 240.089 199.013 240.028 199.879 239.86C197.523 237.124 195.708 235.734 197.027 231.871L197.027 231.871Z" fill="#FDAB96"/>
<path d="M97.1769 140.686C97.1769 140.686 89.6392 161.224 89.5174 163.522C89.3956 165.82 87.2459 194.883 85.443 196.572C83.6401 198.261 78.1282 224.441 82.417 226.489C86.7058 228.537 100.237 225.144 100.237 225.144L104.944 194.219L106.543 170.526C106.543 170.526 111.411 226.318 120.24 226.154C129.07 225.99 139.829 222.629 139.829 222.629L127.471 188.841C127.471 188.841 127.645 148.84 124.781 140.772C121.916 132.704 97.1769 140.686 97.1769 140.686Z" fill="#2F2E41"/>
<path d="M119.544 87.7744L109.449 88.6988L107.823 93.6898C107.823 93.6898 99.3751 98.3283 101.246 100.436C103.116 102.543 100.827 116.744 100.827 116.744L101.344 128.271C101.344 128.271 100.789 136.258 99.1271 138.098C97.4652 139.938 93.1172 144.45 96.1894 142.291C106.961 134.722 125.79 141.109 125.79 141.109L123.1 124.638C123.1 124.638 129.209 97.6709 126.798 95.3934C124.387 93.1159 122.113 92.8281 122.113 92.8281L119.544 87.7744Z" fill="#5B4A9A"/>
<path d="M66.5002 140.02C67.0074 139.926 67.4877 139.721 67.9073 139.421C68.3269 139.121 68.6755 138.733 68.9287 138.283C69.1819 137.834 69.3335 137.334 69.3728 136.82C69.4121 136.306 69.3381 135.789 69.156 135.307L86.1821 120.865L79.9436 118.982L64.3594 133.308C63.5688 133.668 62.9375 134.305 62.5852 135.098C62.2329 135.892 62.1841 136.788 62.448 137.615C62.7119 138.442 63.2701 139.144 64.017 139.587C64.7638 140.031 65.6474 140.185 66.5002 140.02Z" fill="#FFB8B8"/>
<path d="M109.74 102.245C109.74 102.245 113.094 95.3761 105.063 96.5494C97.0324 97.7228 66.5779 128.955 66.5779 128.955L71.6745 135.654L102.453 108.389L109.74 102.245Z" fill="#7CB966"/>
<path d="M96.6621 90.5942L64.8212 131.377C64.2704 132.085 64.0227 132.982 64.1324 133.872C64.2421 134.763 64.7003 135.573 65.4065 136.126C72.8008 154.076 94.9225 167.386 120.945 179.468C121.653 180.019 122.551 180.267 123.441 180.157C124.332 180.047 125.142 179.589 125.695 178.882L157.536 138.099C158.087 137.392 158.335 136.494 158.226 135.604C158.116 134.714 157.657 133.903 156.951 133.351C135.112 121.022 116.343 106.739 101.412 90.009C100.704 89.4583 99.8062 89.2107 98.9159 89.3204C98.0256 89.4301 97.2152 89.8881 96.6621 90.5942Z" fill="#E6E6E6"/>
<path d="M155.301 137.171L145.609 149.585C139.688 157.122 131.025 162.011 121.511 163.183C111.997 164.356 102.405 161.716 94.8318 155.841L67.6703 134.645C67.2679 134.331 67.0066 133.87 66.9437 133.363C66.8807 132.857 67.0213 132.346 67.3346 131.943L98.1025 92.5342C98.4175 92.1325 98.879 91.8721 99.3857 91.8102C99.8924 91.7482 100.403 91.8897 100.806 92.2037C114.545 109.942 132.937 123.745 154.968 134.471C155.37 134.786 155.63 135.246 155.693 135.752C155.755 136.258 155.614 136.768 155.301 137.171Z" fill="white"/>
<path d="M96.0265 112.857L89.7145 120.942C89.547 121.156 89.3013 121.295 89.0315 121.328C88.7616 121.361 88.4896 121.286 88.2752 121.118C88.0609 120.951 87.9218 120.706 87.8884 120.436C87.855 120.166 87.9301 119.894 88.0972 119.68L94.4092 111.595C94.4921 111.489 94.5951 111.4 94.7123 111.333C94.8295 111.267 94.9587 111.224 95.0925 111.207C95.2263 111.191 95.362 111.201 95.4919 111.237C95.6218 111.273 95.7434 111.334 95.8496 111.417C95.9559 111.5 96.0448 111.603 96.1112 111.72C96.1776 111.837 96.2202 111.967 96.2366 112.1C96.253 112.234 96.243 112.37 96.2069 112.5C96.1708 112.629 96.1096 112.751 96.0265 112.857H96.0265Z" fill="#CCCCCC"/>
<path d="M107.866 106.86L94.0044 124.615C93.9215 124.721 93.8185 124.81 93.7013 124.876C93.5841 124.942 93.4549 124.985 93.3212 125.002C93.1875 125.018 93.0519 125.008 92.9221 124.972C92.7922 124.936 92.6707 124.875 92.5646 124.792C92.4584 124.709 92.3695 124.606 92.3031 124.489C92.2368 124.372 92.1941 124.243 92.1776 124.109C92.1611 123.975 92.1712 123.84 92.2071 123.71C92.2431 123.58 92.3042 123.459 92.3871 123.353L106.249 105.598C106.332 105.492 106.435 105.403 106.552 105.336C106.669 105.269 106.798 105.227 106.932 105.21C107.066 105.193 107.202 105.203 107.332 105.239C107.462 105.275 107.583 105.336 107.69 105.419C107.796 105.502 107.885 105.605 107.951 105.723C108.018 105.84 108.06 105.969 108.077 106.103C108.093 106.237 108.083 106.373 108.047 106.503C108.011 106.633 107.949 106.754 107.866 106.86H107.866Z" fill="#CCCCCC"/>
<path d="M84.2242 136.475C87.9558 136.475 90.9808 133.45 90.9808 129.719C90.9808 125.989 87.9558 122.964 84.2242 122.964C80.4926 122.964 77.4675 125.989 77.4675 129.719C77.4675 133.45 80.4926 136.475 84.2242 136.475Z" fill="#FD7C5F"/>
<path d="M108.602 120.892L91.5773 142.699C91.3996 142.879 91.1616 142.989 90.9085 143.005C90.6555 143.022 90.4052 142.945 90.2053 142.789C90.0054 142.633 89.8699 142.409 89.8247 142.159C89.7794 141.91 89.8276 141.653 89.96 141.436L106.985 119.63C107.163 119.449 107.401 119.34 107.654 119.324C107.907 119.307 108.157 119.384 108.357 119.54C108.557 119.696 108.692 119.92 108.737 120.169C108.783 120.419 108.735 120.676 108.602 120.892Z" fill="#CCCCCC"/>
<path d="M119.646 115.914L95.8839 146.35C95.7062 146.531 95.4682 146.64 95.2152 146.657C94.9621 146.673 94.7118 146.596 94.5119 146.44C94.312 146.284 94.1766 146.06 94.1313 145.811C94.0861 145.561 94.1342 145.304 94.2666 145.088L118.029 114.652C118.207 114.471 118.445 114.362 118.698 114.345C118.951 114.328 119.201 114.405 119.401 114.561C119.601 114.717 119.737 114.941 119.782 115.191C119.827 115.44 119.779 115.698 119.646 115.914Z" fill="#CCCCCC"/>
<path d="M119.564 129.447L102.539 151.253C102.361 151.434 102.123 151.543 101.87 151.56C101.617 151.577 101.367 151.5 101.167 151.344C100.967 151.188 100.832 150.964 100.786 150.714C100.741 150.465 100.789 150.207 100.922 149.991L117.947 128.185C118.124 128.004 118.362 127.895 118.615 127.878C118.868 127.862 119.119 127.939 119.318 128.095C119.518 128.251 119.654 128.475 119.699 128.724C119.744 128.973 119.696 129.231 119.564 129.447Z" fill="#CCCCCC"/>
<path d="M142.091 132.136L125.066 153.942C124.888 154.123 124.65 154.232 124.397 154.249C124.144 154.266 123.894 154.189 123.694 154.033C123.494 153.877 123.358 153.653 123.313 153.403C123.268 153.154 123.316 152.896 123.448 152.68L140.473 130.874C140.651 130.693 140.889 130.584 141.142 130.567C141.395 130.55 141.645 130.627 141.845 130.783C142.045 130.939 142.181 131.164 142.226 131.413C142.271 131.662 142.223 131.92 142.091 132.136Z" fill="#FD7C5F"/>
<path d="M130.609 124.468L106.846 154.904C106.668 155.085 106.43 155.194 106.177 155.211C105.924 155.228 105.674 155.151 105.474 154.995C105.274 154.839 105.139 154.614 105.093 154.365C105.048 154.116 105.096 153.858 105.229 153.642L128.991 123.206C129.169 123.025 129.407 122.916 129.66 122.899C129.913 122.883 130.163 122.96 130.363 123.116C130.563 123.271 130.699 123.496 130.744 123.745C130.789 123.994 130.741 124.252 130.609 124.468Z" fill="#CCCCCC"/>
<path d="M102.619 74.8891C102.619 76.53 103.021 78.146 103.791 79.5952C104.561 81.0444 105.675 82.2825 107.035 83.2008C108.395 84.1191 109.96 84.6895 111.592 84.862C113.224 85.0345 114.874 84.8038 116.396 84.1901C117.918 83.5764 119.267 82.5985 120.323 81.3422C121.379 80.086 122.11 78.5898 122.452 76.9849C122.795 75.3801 122.738 73.7158 122.287 72.138C121.836 70.5603 121.005 69.1173 119.866 67.9358L119.818 67.8878C119.737 67.8035 119.657 67.7193 119.573 67.6391C119.572 67.6391 119.572 67.639 119.571 67.6388C119.571 67.6386 119.57 67.6383 119.57 67.6379C119.57 67.6376 119.569 67.6371 119.569 67.6366C119.569 67.6361 119.569 67.6356 119.569 67.6351C119.465 67.5389 119.36 67.4426 119.252 67.3504C117.803 66.0804 116.019 65.2548 114.113 64.9725C112.207 64.6901 110.26 64.963 108.505 65.7584C106.75 66.5539 105.261 67.8381 104.217 69.4575C103.173 71.0768 102.619 72.9626 102.619 74.8891V74.8891Z" fill="#2F2E41"/>
<path d="M115.117 85.6147C119.76 85.6147 123.525 81.8511 123.525 77.2085C123.525 72.5658 119.76 68.8022 115.117 68.8022C110.473 68.8022 106.708 72.5658 106.708 77.2085C106.708 81.8511 110.473 85.6147 115.117 85.6147Z" fill="#FFB8B8"/>
<path d="M106.153 79.4486C105.331 75.7458 106.519 71.5973 109.109 69.1253C110.412 67.9066 112.032 67.08 113.783 66.7406C115.535 66.4012 117.346 66.5627 119.01 67.2066C119.222 67.292 119.433 67.3854 119.641 67.4828L119.737 67.5283V67.5424C119.756 67.5554 119.775 67.569 119.793 67.5828C119.832 67.6195 119.88 67.6459 119.932 67.6594C120.662 67.6404 121.388 67.7757 122.062 68.0566C122.736 68.3376 123.343 68.7577 123.844 69.2896C125.147 70.7033 125.761 72.9879 125.572 75.7225L125.566 75.808L125.494 75.8535C124.507 76.4785 123.483 77.0429 122.428 77.5434C118.737 79.2786 115.367 79.6001 112.128 78.5251L112.069 78.5054L110.709 76.2277C110.43 77.7986 110.579 83.0093 108.978 83.2916L106.188 79.6057L106.153 79.4486Z" fill="#2F2E41"/>
<path d="M88.4531 86.768C91.3143 85.2915 87.6344 79.9327 88.3739 76.7996C89.1134 73.6664 94.4383 72.6587 94.7775 69.4574C95.1167 66.2561 95.9148 62.9544 98.0277 60.5252C99.3778 58.973 101.367 57.8271 103.416 58.0215C104.109 58.0873 104.779 58.3016 105.382 58.6499C105.985 58.9982 106.505 59.4723 106.908 60.0399C107.311 60.6075 107.587 61.2552 107.717 61.939C107.847 62.6227 107.828 63.3264 107.661 64.0022C108.245 63.1761 109.754 63.3551 110.127 64.2949C110.46 65.1303 109.726 66.1422 108.862 66.2161C107.733 67.6111 106.439 69.0916 104.669 69.373C104.387 69.4377 104.094 69.4376 103.812 69.3725C103.53 69.3074 103.266 69.1792 103.041 68.9974C102.625 68.5976 102.592 67.7982 103.086 67.4995C100.862 68.3829 99.5576 70.7875 99.2276 73.1576C98.8975 75.5278 99.3542 77.9259 99.6551 80.2999C99.956 82.674 100.086 85.1714 99.1546 87.3759C98.0545 89.9807 95.5219 91.8475 92.7579 92.4462C89.9939 93.0449 87.0504 92.4598 84.5486 91.1415C82.0467 89.8231 79.9604 87.8105 78.2561 85.5541C81.1919 87.6383 85.2535 88.4191 88.4531 86.768Z" fill="#2F2E41"/>
<path d="M111.1 76.6652C108.16 81.7285 113.696 90.2599 108.117 92.0315L108.577 91.572C111.944 87.4306 104.906 78.6651 108.273 74.5236C108.796 73.9162 109.246 73.2486 109.611 72.5352" fill="#2F2E41"/>
<path d="M106.546 79.3724C106.546 79.3724 109.037 70.0774 119.713 67.9321C119.725 67.9281 119.766 67.912 119.818 67.888C119.85 67.8679 119.89 67.8479 119.93 67.8278C119.81 67.7596 119.693 67.6995 119.573 67.6393C119.573 67.6393 119.572 67.6392 119.572 67.639C119.571 67.6388 119.571 67.6385 119.57 67.6382C119.57 67.6378 119.57 67.6373 119.569 67.6369C119.569 67.6364 119.569 67.6358 119.569 67.6353C119.465 67.5391 119.36 67.4428 119.252 67.3506L118.947 67.3627C118.947 67.3627 108.234 65.6665 106.546 79.3724Z" fill="#FD6584"/>
<path d="M29 240.652C28.9998 240.705 29.0101 240.757 29.0301 240.805C29.0502 240.854 29.0797 240.898 29.1168 240.935C29.154 240.972 29.1982 241.002 29.2468 241.022C29.2954 241.042 29.3475 241.052 29.4001 241.052H269.895C270.001 241.052 270.103 241.01 270.178 240.935C270.253 240.86 270.295 240.758 270.295 240.652C270.295 240.546 270.253 240.444 270.178 240.369C270.103 240.294 270.001 240.252 269.895 240.252H29.4001C29.3475 240.252 29.2954 240.262 29.2468 240.282C29.1982 240.302 29.154 240.332 29.1168 240.369C29.0797 240.406 29.0502 240.45 29.0301 240.499C29.0101 240.547 28.9998 240.599 29 240.652Z" fill="#CCCCCC"/>
<path d="M566.571 238.792C563.387 236.113 561.453 231.882 561.96 227.762C562.467 223.643 565.608 219.856 569.683 218.981C573.757 218.107 578.401 220.528 579.639 224.491C580.32 216.851 581.105 208.89 585.184 202.383C588.878 196.492 595.276 192.276 602.21 191.522C609.144 190.768 616.445 193.616 620.77 199.066C625.094 204.515 626.153 212.438 623.124 218.695C620.893 223.304 616.782 226.734 612.475 229.524C598.558 238.465 581.866 242.102 565.471 239.763" fill="#F2F2F2"/>
<path d="M613.912 193.774C608.191 198.414 602.942 203.604 598.242 209.269C590.886 218.103 584.934 228.008 580.592 238.638C580.274 239.413 581.539 239.751 581.853 238.984C588.957 221.708 600.297 206.48 614.837 194.695C615.49 194.166 614.56 193.249 613.912 193.774Z" fill="white"/>
<path d="M451.231 240.626H433.176C432.566 240.625 431.981 240.383 431.55 239.954C431.118 239.524 430.876 238.942 430.875 238.334V200.968C430.876 200.361 431.118 199.778 431.55 199.349C431.981 198.919 432.566 198.677 433.176 198.677H451.231C451.841 198.677 452.426 198.919 452.858 199.349C453.289 199.778 453.532 200.361 453.532 200.968V238.334C453.532 238.942 453.289 239.524 452.858 239.954C452.426 240.383 451.841 240.625 451.231 240.626Z" fill="#FD7C5F"/>
<path d="M494.068 240.978H476.013C475.309 240.977 474.634 240.698 474.136 240.203C473.638 239.707 473.358 239.035 473.357 238.334V165.717C473.358 165.016 473.638 164.344 474.136 163.848C474.634 163.352 475.309 163.074 476.013 163.073H494.068C494.772 163.074 495.447 163.352 495.944 163.848C496.442 164.344 496.722 165.016 496.723 165.717V238.334C496.722 239.035 496.442 239.707 495.944 240.203C495.447 240.698 494.772 240.977 494.068 240.978ZM476.013 163.778C475.496 163.778 475.001 163.983 474.636 164.346C474.271 164.71 474.066 165.203 474.065 165.717V238.334C474.066 238.848 474.271 239.341 474.636 239.704C475.001 240.068 475.496 240.272 476.013 240.273H494.068C494.584 240.272 495.079 240.068 495.444 239.704C495.809 239.341 496.014 238.848 496.015 238.334V165.717C496.014 165.203 495.809 164.71 495.444 164.346C495.079 163.983 494.584 163.778 494.068 163.778H476.013Z" fill="#3F3D56"/>
<path d="M536.905 240.978H518.85C518.146 240.977 517.471 240.698 516.973 240.203C516.475 239.707 516.195 239.035 516.194 238.334V119.537C516.195 118.836 516.475 118.164 516.973 117.669C517.471 117.173 518.146 116.894 518.85 116.894H536.905C537.609 116.894 538.284 117.173 538.781 117.669C539.279 118.164 539.559 118.836 539.56 119.537V238.334C539.559 239.035 539.279 239.707 538.781 240.203C538.284 240.698 537.609 240.977 536.905 240.978ZM518.85 117.599C518.333 117.599 517.838 117.804 517.473 118.167C517.108 118.531 516.903 119.023 516.902 119.537V238.334C516.903 238.848 517.108 239.341 517.473 239.704C517.838 240.068 518.333 240.272 518.85 240.273H536.905C537.421 240.272 537.916 240.068 538.281 239.704C538.646 239.341 538.851 238.848 538.852 238.334V119.537C538.851 119.023 538.646 118.531 538.281 118.167C537.916 117.804 537.421 117.599 536.905 117.599H518.85Z" fill="#3F3D56"/>
<path d="M580.141 240.802H562.086C561.476 240.801 560.891 240.56 560.46 240.13C560.029 239.7 559.786 239.118 559.785 238.511V71.0672C559.786 70.4597 560.029 69.8773 560.46 69.4478C560.891 69.0182 561.476 68.7766 562.086 68.7759H580.141C580.752 68.7766 581.336 69.0182 581.768 69.4478C582.199 69.8773 582.442 70.4597 582.443 71.0672V238.511C582.442 239.118 582.199 239.7 581.768 240.13C581.336 240.56 580.752 240.801 580.141 240.802Z" fill="#FD7C5F"/>
<path d="M467.85 137.384C467.915 136.87 467.867 136.348 467.708 135.854C467.549 135.361 467.283 134.908 466.929 134.528C466.575 134.148 466.142 133.85 465.66 133.654C465.178 133.459 464.659 133.371 464.139 133.397L457.846 121.902L456.43 126.838L460.741 137.373C460.843 138.239 461.261 139.038 461.915 139.619C462.569 140.199 463.414 140.521 464.291 140.522C465.167 140.524 466.013 140.205 466.669 139.626C467.325 139.048 467.745 138.25 467.85 137.384V137.384Z" fill="#A0616A"/>
<path d="M419.362 182.772L422.867 185.32L434.406 173.069L429.232 169.308L419.362 182.772Z" fill="#A0616A"/>
<path d="M427.251 193.476L416.234 185.467L419.341 181.228L426.102 186.143C427.231 186.963 427.986 188.197 428.202 189.572C428.417 190.947 428.075 192.351 427.251 193.476L427.251 193.476Z" fill="#2F2E41"/>
<path d="M437.907 196.26L442.247 196.26L444.312 179.59L437.906 179.591L437.907 196.26Z" fill="#A0616A"/>
<path d="M450.618 200.272L436.977 200.273L436.977 195.025L445.347 195.025C446.745 195.025 448.086 195.578 449.074 196.562C450.063 197.546 450.618 198.881 450.618 200.272Z" fill="#2F2E41"/>
<path d="M450.942 131.244C450.942 131.244 453.066 151.69 447.756 165.79L443.862 192.581H437.135L437.843 160.855L435.365 132.654C435.365 132.654 440.321 119.964 450.942 131.244Z" fill="#5B4A9A"/>
<path d="M427.931 132.654L435.011 156.977L421.204 178.833L428.108 184.65L443.862 160.15L439.259 130.187L427.931 132.654Z" fill="#5B4A9A"/>
<path d="M445.987 78.1111C450.789 78.1111 454.682 74.2347 454.682 69.453C454.682 64.6713 450.789 60.7949 445.987 60.7949C441.185 60.7949 437.292 64.6713 437.292 69.453C437.292 74.2347 441.185 78.1111 445.987 78.1111Z" fill="#A0616A"/>
<path d="M438.728 81.3638C438.728 81.3638 444.039 77.8387 450.057 85.5939L451.65 134.417C451.65 134.417 447.048 128.072 437.489 134.064C427.93 140.057 425.806 133.359 425.806 133.359C425.806 133.359 419.08 82.9501 438.728 81.3638Z" fill="#CCCCCC"/>
<path d="M449.629 85.4709C451.156 85.5531 452.599 86.1948 453.68 87.2725C454.76 88.3502 455.403 89.7877 455.483 91.3086L456.606 112.561L464.041 132.654L459.793 136.18L445.986 112.209L443.159 92.5057C443.029 91.6026 443.103 90.6822 443.373 89.8106C443.644 88.939 444.105 88.1381 444.724 87.4653C445.342 86.7925 446.103 86.2647 446.951 85.9199C447.799 85.575 448.714 85.4217 449.629 85.4709Z" fill="#CCCCCC"/>
<path d="M439.598 75.9475C441.019 77.4553 443.659 76.6459 443.845 74.5861C443.859 74.4262 443.858 74.2652 443.841 74.1055C443.746 73.1931 443.216 72.3648 443.343 71.4014C443.372 71.1617 443.462 70.9332 443.604 70.7376C444.737 69.2272 447.396 71.4132 448.465 70.0459C449.12 69.2075 448.35 67.8874 448.853 66.9504C449.517 65.7136 451.483 66.3237 452.716 65.6464C454.088 64.8928 454.006 62.7966 453.103 61.5216C452.002 59.9667 450.07 59.1369 448.163 59.0174C446.256 58.8978 444.362 59.4111 442.581 60.1021C440.558 60.8871 438.552 61.9721 437.307 63.7434C435.793 65.8975 435.647 68.7935 436.405 71.3123C436.865 72.8445 438.437 74.7163 439.598 75.9475Z" fill="#2F2E41"/>
<path d="M624.577 240.829H395.42C395.309 240.828 395.202 240.784 395.123 240.705C395.044 240.627 395 240.52 395 240.409C395 240.298 395.044 240.191 395.123 240.113C395.202 240.034 395.309 239.99 395.42 239.989H624.577C624.689 239.99 624.796 240.034 624.875 240.113C624.953 240.191 624.998 240.298 624.998 240.409C624.998 240.52 624.953 240.627 624.875 240.705C624.796 240.784 624.689 240.828 624.577 240.829Z" fill="#3F3D56"/>
<path d="M969.438 251.305C968.297 249.239 965.138 248.277 963.092 247.544C958.543 245.915 953.783 244.851 949.057 243.884C942.302 242.501 935.484 241.423 928.655 240.48C920.318 239.329 911.953 238.394 903.574 237.609C894.099 236.722 884.609 236.022 875.104 235.51C865.043 234.961 854.973 234.613 844.894 234.465C834.76 234.323 824.621 234.395 814.491 234.741C804.792 235.072 795.098 235.651 785.44 236.602C776.716 237.461 768.01 238.613 759.402 240.286C752.036 241.718 744.704 243.516 737.649 246.097C736.175 246.636 734.716 247.214 733.272 247.83L733.952 248.353C736.567 241.939 739.445 234.104 735.361 227.624C733.785 225.124 730.944 222.955 727.836 223.353C725.317 223.675 722.839 226.243 723.66 228.913C724.371 231.223 727.591 232.286 729.367 230.551C729.43 230.486 729.472 230.403 729.488 230.314C729.505 230.225 729.495 230.133 729.461 230.049C729.426 229.965 729.368 229.893 729.293 229.842C729.218 229.791 729.13 229.762 729.039 229.76C725.694 230.027 724.643 234.04 725.748 236.761C727.461 240.978 733.158 240.996 736.916 240.544C737.5 240.473 737.507 239.546 736.916 239.617C733.72 240.002 729.051 240.236 726.997 237.163C725.635 235.125 726.04 230.926 729.039 230.687L728.712 229.896C727.696 230.889 726.05 230.562 725.123 229.592C723.873 228.284 724.542 226.315 725.769 225.246C728.81 222.595 732.962 225.464 734.658 228.246C738.46 234.485 735.552 241.991 733.059 248.107C732.886 248.531 733.421 248.766 733.739 248.63C740.29 245.838 747.19 243.895 754.127 242.335C762.394 240.52 770.751 239.141 779.163 238.203C788.543 237.107 797.968 236.405 807.4 235.956C817.318 235.485 827.248 235.298 837.177 235.327C847.218 235.355 857.256 235.597 867.291 236.05C876.902 236.477 886.504 237.085 896.095 237.876C904.736 238.592 913.365 239.459 921.97 240.53C929.25 241.436 936.518 242.483 943.736 243.798C949.055 244.768 954.377 245.85 959.567 247.379C962.322 248.19 965.697 249.049 967.929 250.959C968.215 251.182 968.456 251.459 968.638 251.773C968.926 252.295 969.727 251.828 969.438 251.305L969.438 251.305Z" fill="#F2F2F2"/>
<path d="M862.734 93.6075L881.835 104.541C882.646 105.002 883.605 105.125 884.506 104.885C885.407 104.645 886.177 104.06 886.65 103.257C886.895 102.841 887.053 102.38 887.114 101.901C887.175 101.423 887.138 100.937 887.005 100.473C886.872 100.009 886.646 99.5774 886.341 99.2039C886.035 98.8303 885.657 98.5229 885.229 98.3003L865.04 87.5514L853.048 80.5027C853.131 79.8716 853.019 79.23 852.725 78.6653C852.431 78.1005 851.971 77.6398 851.406 77.3459C850.841 77.0519 850.2 76.9389 849.569 77.0223C848.938 77.1056 848.348 77.3813 847.879 77.8117C847.41 78.2422 847.085 78.8066 846.948 79.4283C846.811 80.05 846.868 80.6988 847.113 81.2866C847.357 81.8744 847.777 82.3727 848.314 82.7138C848.851 83.0549 849.481 83.2223 850.117 83.1931L862.734 93.6075Z" fill="#FFB6B6"/>
<path d="M876.938 104.069C876.994 104.291 877.121 104.49 877.3 104.633C877.479 104.776 877.7 104.857 877.93 104.862C878.212 104.874 878.484 104.974 878.708 105.148C878.75 105.183 878.791 105.22 878.829 105.259C879.051 105.502 879.33 105.688 879.64 105.801C879.95 105.914 880.282 105.95 880.609 105.907C881.684 105.749 882.937 106.121 883.973 106.585C885.108 107.091 886.232 107.667 887.455 107.888C889.219 108.206 891.297 107.66 891.79 105.485C891.986 104.556 891.855 103.588 891.421 102.745C890.536 100.969 888.807 99.8996 887.144 98.8925L887.997 98.9695C886.161 97.9013 884.56 96.4732 883.289 94.7709C883.122 95.2207 882.408 95.1752 882.099 94.8079C881.79 94.4406 881.754 93.9255 881.672 93.4525C881.568 92.8564 881.286 92.1811 880.543 92.2273C880.366 92.2434 880.194 92.2959 880.038 92.3817C879.882 92.4675 879.745 92.5846 879.636 92.7257C877.527 95.3482 875.982 98.3788 875.099 101.627C874.903 102.349 874.75 103.157 875.108 103.813C875.466 104.469 876.557 104.712 876.938 104.069Z" fill="#2F2E41"/>
<path d="M831.566 146.62C830.484 146.563 829.439 146.205 828.548 145.588C827.657 144.971 826.955 144.119 826.52 143.126C825.525 140.906 825.881 138.278 827.105 136.228C828.381 134.089 830.378 132.824 832.536 131.704C834.513 130.679 836.643 129.477 837.544 127.315C837.948 126.376 838.001 125.322 837.694 124.347C837.548 123.888 837.316 123.461 837.011 123.089C836.654 122.711 836.22 122.414 835.738 122.219C835.268 121.975 835.048 121.518 834.814 121.064C834.555 120.561 834.272 120.075 833.988 119.585C833.313 118.422 832.665 117.243 832.043 116.05C829.55 111.292 827.53 106.3 826.013 101.147C823.179 91.4283 822.294 80.9767 824.667 71.0634C825.802 66.3252 827.654 61.6834 830.384 57.6319C832.9 53.8979 836.351 50.598 840.673 49.106C844.826 47.6719 849.904 47.8115 853.461 50.6494C856.383 52.9804 858.1 57.0564 857.308 60.7674C857.116 61.6673 856.773 62.5283 856.294 63.3138L857.141 63.6708C859.206 58.1133 866.134 56.0253 871.473 57.5454C878.001 59.4035 881.464 66.415 881.764 72.7744C882.131 80.5771 878.023 87.7701 873.189 93.5862C868.212 99.5316 862.391 104.716 855.912 108.975C849.467 113.243 842.448 116.571 835.064 118.858C834.15 119.14 833.232 119.405 832.308 119.654C832.194 119.69 832.097 119.769 832.04 119.875C831.982 119.98 831.968 120.104 832 120.22C832.032 120.336 832.108 120.435 832.211 120.496C832.314 120.557 832.438 120.576 832.555 120.548C840.324 118.44 847.741 115.202 854.569 110.938C861.412 106.682 867.586 101.434 872.888 95.3655C878.042 89.439 882.623 82.1424 882.713 74.0373C882.787 67.3705 879.66 59.8999 873.181 57.1685C867.802 54.9012 860.524 56.3597 857.233 61.4315C856.832 62.0576 856.502 62.726 856.248 63.4244C856.06 63.9289 856.83 64.2169 857.094 63.7815C859.191 60.3317 858.629 55.8715 856.46 52.5942C853.993 48.8657 849.633 47.1152 845.25 47.2964C835.075 47.7173 828.552 56.9097 825.338 65.6394C821.71 75.4917 821.654 86.3718 823.882 96.5466C825.087 101.947 826.857 107.206 829.16 112.237C830.32 114.796 831.601 117.296 833.005 119.735C833.301 120.251 833.618 120.757 833.89 121.286C834.1 121.779 834.386 122.235 834.737 122.639C835.118 123.019 835.662 123.105 836.068 123.438C836.482 123.818 836.766 124.318 836.878 124.868C837.476 127.322 835.186 129.183 833.306 130.244C832.136 130.904 830.9 131.45 829.777 132.192C828.793 132.833 827.914 133.623 827.17 134.532C825.661 136.401 824.802 138.772 825.068 141.19C825.174 142.314 825.543 143.399 826.147 144.354C826.75 145.309 827.57 146.108 828.541 146.687C829.462 147.221 830.502 147.516 831.566 147.547C832.163 147.564 832.162 146.637 831.566 146.62V146.62Z" fill="#FD7C5F"/>
<path d="M790.072 140.188L794.396 117.022L807.984 115.786L816.904 140.995L790.072 140.188Z" fill="#A0616A"/>
<path d="M886.118 118.875L875 143.276L900.787 145.974L907.736 116.404L886.118 118.875Z" fill="#FFB6B6"/>
<path d="M925.538 215.005L923.267 217.539L912.194 209.793L915.545 206.052L925.538 215.005Z" fill="#FFB6B6"/>
<path d="M922.395 226.761C922.695 227.029 923.09 227.168 923.493 227.146C923.896 227.124 924.273 226.943 924.543 226.643L929.056 221.603L928.037 219.128L930.135 220.396L931.84 218.495L924.956 213.291L924.325 213.918L921.744 216.472L920.913 217.297L922.726 218.922L921.901 225.437C921.87 225.681 921.899 225.929 921.985 226.16C922.071 226.39 922.211 226.596 922.395 226.761Z" fill="#2F2E41"/>
<path d="M881.447 238.104L878.047 238.23L875.933 224.881L880.95 224.695L881.447 238.104Z" fill="#FFB6B6"/>
<path d="M870.806 244.004C870.821 244.407 870.996 244.788 871.291 245.062C871.587 245.337 871.979 245.483 872.382 245.469L879.142 245.218L880.216 242.766L880.76 245.157L883.311 245.064L882.276 236.496L881.386 236.477L877.757 236.392L876.586 236.367L876.676 238.8L871.415 242.729C871.218 242.877 871.06 243.07 870.953 243.292C870.847 243.514 870.797 243.758 870.806 244.004Z" fill="#2F2E41"/>
<path d="M901.567 141.252H876.002L867.897 159.029C867.897 159.029 861.66 189.168 865.118 196.712C868.515 204.126 875 230.38 875 230.38L881.795 228.836L883.339 224.203C883.339 224.203 880.731 219.869 881.486 218.334C882.24 216.8 879.633 216.79 879.633 216.79C879.633 216.79 879.674 215.772 879.942 212.774C880.21 209.776 877.471 191.153 877.471 191.153L886.736 162.118L901.567 141.252Z" fill="#5B4A9A"/>
<path d="M881.432 147.157L886.736 162.118L883.664 187.257C883.564 188.072 883.671 188.9 883.975 189.664C884.279 190.428 884.77 191.103 885.402 191.627L913.913 215.245L920.398 207.832L918.307 206.052C918.307 206.052 914.909 204.945 915.801 203.918C916.692 202.89 913.593 202.038 913.593 202.038C913.593 202.038 913.087 204.187 911.184 199.986C909.28 195.786 897.827 188.613 897.827 188.613C897.827 188.613 913.604 155.322 901.567 141.252L881.432 147.157Z" fill="#5B4A9A"/>
<path d="M766.712 210.99L768.982 213.524L780.055 205.777L776.704 202.037L766.712 210.99Z" fill="#A0616A"/>
<path d="M770.349 221.422L769.523 214.907L771.337 213.282L770.506 212.457L767.924 209.903L767.293 209.276L760.41 214.48L762.114 216.381L764.212 215.112L763.193 217.588L767.706 222.628C767.923 222.869 768.211 223.035 768.528 223.102C768.846 223.168 769.176 223.131 769.471 222.997C769.766 222.862 770.01 222.637 770.168 222.353C770.326 222.07 770.389 221.744 770.349 221.422Z" fill="#2F2E41"/>
<path d="M796.324 225.189L799.416 226.609L806.486 215.09L801.922 212.995L796.324 225.189Z" fill="#A0616A"/>
<path d="M803.816 233.307L800.463 227.661L801.479 225.448L800.388 225.022L797.003 223.709L796.174 223.385L791.935 230.902L794.255 231.966L795.674 229.966L795.726 232.643L801.873 235.467C802.168 235.602 802.498 235.639 802.816 235.574C803.133 235.508 803.421 235.343 803.638 235.102C803.855 234.861 803.99 234.556 804.022 234.234C804.053 233.911 803.982 233.586 803.816 233.307Z" fill="#2F2E41"/>
<path d="M790.683 137.237H816.247L824.352 155.014C824.352 155.014 832.999 186.829 827.132 192.697C821.264 198.566 805.205 218.643 805.205 218.643L799.646 216.481L814.778 187.137L805.514 158.103L790.683 137.237Z" fill="#5B4A9A"/>
<path d="M810.817 143.142L805.514 158.103L808.586 183.241C808.686 184.057 808.579 184.885 808.275 185.649C807.971 186.412 807.48 187.087 806.847 187.612L779.572 206.597L775.558 201.964L794.423 184.598C794.423 184.598 778.646 151.307 790.683 137.237L810.817 143.142Z" fill="#5B4A9A"/>
<path d="M903.412 134.937L880.868 129.068C880.868 129.068 881.703 121.662 880.359 121.967C879.015 122.272 880.204 119.801 880.204 119.801C880.204 119.801 881.177 118.875 880.041 117.529C876.156 112.924 879.287 107.008 879.287 107.008C879.384 104.096 880.498 101.31 882.437 99.1354C884.375 96.9606 887.014 95.5343 889.895 95.1045L898.268 93.8555C900.009 93.8555 901.73 94.2329 903.311 94.9618C904.892 95.6906 906.297 96.7536 907.428 98.0776C908.559 99.4015 909.39 100.955 909.863 102.631C910.336 104.307 910.441 106.065 910.169 107.785L903.412 134.937Z" fill="#2F2E41"/>
<path d="M899.706 96.6355L887.044 96.9444L888.28 91.0757H897.545L899.706 96.6355Z" fill="#2F2E41"/>
<path d="M918.451 124.555L903.988 107.964C903.377 107.26 903.068 106.343 903.127 105.412C903.186 104.482 903.608 103.612 904.303 102.99C904.663 102.668 905.084 102.423 905.541 102.269C905.998 102.116 906.482 102.057 906.963 102.096C907.444 102.136 907.911 102.273 908.337 102.499C908.763 102.725 909.139 103.036 909.441 103.412L923.937 121.106L933.198 131.486C933.8 131.281 934.451 131.266 935.063 131.443C935.674 131.62 936.216 131.982 936.615 132.478C937.014 132.974 937.25 133.581 937.292 134.216C937.334 134.851 937.179 135.484 936.849 136.029C936.519 136.573 936.03 137.002 935.447 137.259C934.864 137.515 934.217 137.586 933.593 137.461C932.968 137.337 932.398 137.023 931.958 136.563C931.518 136.102 931.231 135.518 931.135 134.888L918.451 124.555Z" fill="#FFB6B6"/>
<path d="M905.41 112.674C905.181 112.663 904.962 112.577 904.786 112.43C904.611 112.282 904.488 112.081 904.438 111.857C904.371 111.582 904.219 111.335 904.005 111.15C903.963 111.115 903.919 111.082 903.873 111.053C903.59 110.882 903.354 110.646 903.182 110.364C903.011 110.082 902.91 109.763 902.888 109.433C902.833 108.349 902.222 107.193 901.565 106.267C900.846 105.254 900.061 104.264 899.605 103.108C898.947 101.44 899.075 99.2951 901.111 98.3848C901.983 98.011 902.958 97.9494 903.87 98.2102C905.785 98.7301 907.172 100.216 908.485 101.65L908.242 100.828C909.649 102.419 911.363 103.71 913.281 104.622C912.873 104.875 913.058 105.566 913.478 105.797C913.899 106.028 914.411 105.963 914.891 105.95C915.496 105.935 916.213 106.079 916.313 106.817C916.332 106.994 916.315 107.173 916.261 107.343C916.208 107.513 916.12 107.67 916.003 107.804C913.845 110.387 911.176 112.497 908.165 113.999C907.495 114.332 906.733 114.641 906.02 114.419C905.306 114.196 904.854 113.173 905.41 112.674Z" fill="#2F2E41"/>
<path d="M883.577 79.5925C886.396 84.4493 881.088 92.6329 886.438 94.3322L885.997 93.8914C882.768 89.9189 889.517 81.5108 886.288 77.5383C885.786 76.9555 885.356 76.3152 885.005 75.6309L883.577 79.5925Z" fill="#2F2E41"/>
<path d="M905.572 78.8563C905.572 80.4303 905.186 81.9804 904.448 83.3705C903.71 84.7606 902.642 85.9482 901.338 86.8291C900.033 87.7099 898.533 88.2571 896.968 88.4226C895.403 88.588 893.821 88.3667 892.361 87.778C890.902 87.1893 889.609 86.2513 888.597 85.0463C887.584 83.8412 886.883 82.406 886.554 80.8667C886.226 79.3273 886.28 77.7308 886.713 76.2174C887.145 74.704 887.943 73.3199 889.035 72.1866L889.081 72.1404C889.158 72.0596 889.235 71.9789 889.316 71.9019C889.316 71.9019 889.317 71.9018 889.317 71.9017C889.317 71.9015 889.318 71.9012 889.318 71.9008C889.319 71.9005 889.319 71.9 889.319 71.8996C889.319 71.8991 889.319 71.8986 889.319 71.8981C889.419 71.8058 889.519 71.7135 889.623 71.625C891.012 70.4068 892.723 69.6149 894.551 69.344C896.379 69.0732 898.246 69.335 899.928 70.098C901.611 70.861 903.038 72.0928 904.039 73.6462C905.04 75.1995 905.572 77.0083 905.572 78.8563Z" fill="#2F2E41"/>
<path d="M893.588 89.1445C898.041 89.1445 901.65 85.5343 901.65 81.081C901.65 76.6277 898.041 73.0176 893.588 73.0176C889.136 73.0176 885.526 76.6277 885.526 81.081C885.526 85.5343 889.136 89.1445 893.588 89.1445Z" fill="#FFB8B8"/>
<path d="M899.348 73.328C898.1 72.1589 896.547 71.3658 894.868 71.0398C893.188 70.7137 891.451 70.8679 889.856 71.4848C889.815 71.503 889.77 71.5211 889.729 71.5394C889.569 71.6031 889.41 71.6759 889.251 71.7533L889.16 71.7942V71.8079L889.105 71.8489C889.068 71.8832 889.022 71.9081 888.973 71.9217C888.273 71.903 887.576 72.0324 886.929 72.3014C886.283 72.5704 885.7 72.973 885.219 73.4828C883.972 74.8391 883.381 77.0328 883.563 79.6544L883.567 79.7363L883.64 79.7818C883.663 79.7955 883.681 79.8092 883.704 79.8228C884.341 80.2188 884.946 80.5692 885.533 80.8787C885.888 81.0699 886.234 81.2428 886.58 81.4021L886.702 81.4567C886.834 81.5205 886.971 81.5796 887.103 81.6388C890.434 83.0952 893.506 83.3228 896.454 82.3443L896.509 82.326L897.501 80.6648L897.815 80.1414C897.883 80.5146 897.924 81.1017 897.97 81.7753C898.021 82.8269 898.138 83.8743 898.32 84.9112V84.9203C898.502 85.8397 898.784 86.5816 899.248 86.8273C899.318 86.8713 899.395 86.9007 899.476 86.9138L900.213 85.9398L902.152 83.382L902.183 83.2318C902.971 79.6772 901.833 75.6993 899.348 73.328Z" fill="#2F2E41"/>
<path d="M922.251 58.0249C920.617 55.8585 919.119 49.7415 916.721 48.4763C916.48 48.3488 916.239 48.2305 915.993 48.1213C916.233 48.6946 916.28 49.3306 916.125 49.9327C915.911 50.67 915.365 51.2572 914.833 51.8124C913.354 53.3644 911.873 54.9149 910.391 56.4639C911.387 55.1444 912.095 53.6307 912.47 52.0204C912.845 50.4101 912.878 48.7392 912.566 47.1154C911.33 46.9309 910.072 46.9679 908.849 47.2247C906.2 47.7981 903.77 49.5913 902.719 52.0901C901.822 54.2019 901.95 56.6004 902.237 58.8761C902.523 61.1518 902.965 63.4548 902.646 65.7259C902.332 68.0015 901.081 70.3091 898.947 71.1556C899.42 70.8689 899.388 70.0997 898.992 69.7174C898.669 69.4404 898.252 69.3 897.827 69.326C897.694 69.3249 897.562 69.3356 897.431 69.3579C895.734 69.6264 894.492 71.0464 893.408 72.3845C893.135 72.4229 892.877 72.5358 892.662 72.7107C892.448 72.8856 892.286 73.116 892.194 73.3767C892.091 73.6511 892.091 73.9533 892.194 74.2278C892.553 75.129 894 75.3019 894.56 74.51C894.4 75.1582 894.382 75.8332 894.507 76.4889C894.632 77.1447 894.897 77.7659 895.283 78.3101C895.67 78.8544 896.169 79.3089 896.747 79.6427C897.325 79.9765 897.968 80.1819 898.633 80.2447C900.594 80.4313 903.711 80.7271 905.008 79.2388C907.033 76.9085 910.141 74.5737 910.469 71.5015C910.792 68.4339 912.489 69.0438 913.199 66.0399C913.909 63.0315 916.826 61.9938 919.57 60.5783C922.637 58.9944 919.434 56.0223 922.251 58.0249Z" fill="#2F2E41"/>
<path d="M897.439 80.5597C900.258 85.4166 894.95 93.6001 900.3 95.2995L899.859 94.8587C896.63 90.8862 903.379 82.4781 900.15 78.5055C899.649 77.9228 899.218 77.2825 898.867 76.5981L897.439 80.5597Z" fill="#2F2E41"/>
<path d="M901.806 83.1563C901.806 83.1563 899.418 74.2403 889.181 72.1825C889.169 72.1787 889.131 72.1633 889.081 72.1402C889.05 72.121 889.012 72.1017 888.973 72.0825C889.089 72.0171 889.2 71.9594 889.315 71.9017C889.316 71.9017 889.316 71.9016 889.317 71.9014C889.317 71.9012 889.318 71.9009 889.318 71.9006C889.319 71.9002 889.319 71.8998 889.319 71.8993C889.319 71.8988 889.319 71.8983 889.319 71.8978C889.419 71.8055 889.519 71.7132 889.623 71.6248L889.915 71.6363C889.915 71.6363 900.187 70.0093 901.806 83.1563Z" fill="#FD6584"/>
<path d="M812.34 123.476L803.205 101.215C802.821 100.271 802.823 99.2136 803.211 98.271C803.6 97.3285 804.343 96.5765 805.281 96.1773C805.766 95.9708 806.289 95.8653 806.816 95.8672C807.343 95.8691 807.865 95.9784 808.348 96.1885C808.832 96.3985 809.268 96.7048 809.629 97.0889C809.991 97.4729 810.27 97.9265 810.451 98.422L819.231 121.836L825.166 135.839C825.862 135.838 826.542 136.051 827.112 136.45C827.682 136.849 828.116 137.413 828.354 138.067C828.593 138.721 828.624 139.432 828.444 140.105C828.264 140.777 827.882 141.378 827.348 141.825C826.815 142.272 826.157 142.544 825.464 142.605C824.771 142.665 824.076 142.51 823.474 142.162C822.871 141.813 822.391 141.288 822.098 140.657C821.804 140.026 821.712 139.319 821.834 138.634L812.34 123.476Z" fill="#A0616A"/>
<path d="M803.021 106.591C802.788 106.499 802.591 106.333 802.461 106.118C802.332 105.904 802.276 105.653 802.302 105.403C802.33 105.095 802.26 104.786 802.103 104.519C802.072 104.468 802.037 104.419 802 104.372C801.768 104.096 801.606 103.768 801.528 103.416C801.45 103.064 801.457 102.698 801.551 102.35C801.875 101.207 801.649 99.7961 801.295 98.6064C800.906 97.3045 800.442 96.0041 800.377 94.6471C800.283 92.6896 801.169 90.5141 803.597 90.2883C804.631 90.2083 805.661 90.4873 806.514 91.0782C808.313 92.29 809.226 94.3157 810.081 96.2621L810.119 95.3261C811.016 97.4682 812.336 99.407 814 101.026C813.489 101.144 813.437 101.925 813.791 102.312C814.145 102.699 814.698 102.811 815.199 102.967C815.831 103.164 816.522 103.566 816.367 104.365C816.324 104.555 816.243 104.734 816.128 104.891C816.012 105.048 815.866 105.179 815.698 105.277C812.556 107.192 809.052 108.436 805.406 108.931C804.597 109.041 803.699 109.092 803.039 108.611C802.378 108.13 802.27 106.912 803.021 106.591Z" fill="#E6E6E6"/>
<path d="M812.617 128.759L792.175 129.015C792.175 129.015 789.883 128.915 789.883 127.529C789.883 126.144 791.164 125.854 789.485 124.787C787.806 123.72 787.113 124.413 787.459 122.681C787.806 120.95 788.152 120.377 788.152 119.971C788.152 119.565 787.806 117.833 787.806 116.102C787.806 115.262 790.502 113.738 789.831 108.819C789.014 102.826 789.301 93.6539 795.077 91.8611L799.231 84.5889H807.151L809.618 91.861L812.543 95.6943C812.543 95.6943 818.312 102.991 816.581 106.8C814.849 110.609 812.617 128.759 812.617 128.759Z" fill="#E6E6E6"/>
<path d="M830.948 94.2592L807.833 100.934C806.853 101.214 805.802 101.098 804.907 100.609C804.013 100.121 803.346 99.3007 803.05 98.3249C802.898 97.8201 802.849 97.2895 802.908 96.7655C802.967 96.2414 803.132 95.7348 803.393 95.2766C803.654 94.8184 804.006 94.4181 804.427 94.1003C804.848 93.7824 805.329 93.5536 805.841 93.4278L830.064 87.2302L844.624 82.8437C844.698 82.1518 844.984 81.4995 845.442 80.9755C845.9 80.4515 846.508 80.0813 847.183 79.915C847.859 79.7488 848.57 79.7946 849.218 80.0463C849.867 80.298 850.423 80.7433 850.81 81.3218C851.196 81.9002 851.396 82.5838 851.381 83.2796C851.366 83.9754 851.137 84.6497 850.725 85.2109C850.314 85.7721 849.739 86.1929 849.08 86.4163C848.421 86.6396 847.71 86.6546 847.042 86.4593L830.948 94.2592Z" fill="#A0616A"/>
<path d="M813.156 101.699C813.04 101.921 812.854 102.098 812.626 102.204C812.399 102.31 812.143 102.339 811.898 102.285C811.595 102.225 811.28 102.261 810.998 102.388C810.944 102.413 810.891 102.442 810.841 102.474C810.541 102.675 810.197 102.801 809.839 102.84C809.481 102.88 809.118 102.833 808.782 102.702C807.681 102.256 806.254 102.328 805.033 102.552C803.697 102.797 802.355 103.118 800.999 103.036C799.043 102.918 796.976 101.801 797.015 99.3625C797.047 98.3256 797.436 97.3315 798.115 96.5477C799.514 94.8902 801.627 94.2014 803.654 93.5618L802.728 93.4229C804.954 92.7629 807.024 91.66 808.813 90.1804C808.875 90.7015 809.645 90.8377 810.068 90.5275C810.491 90.2172 810.663 89.6793 810.872 89.1982C811.136 88.5918 811.61 87.9475 812.387 88.1886C812.572 88.2515 812.741 88.3518 812.885 88.4832C813.028 88.6147 813.143 88.7744 813.222 88.9524C814.785 92.2835 815.643 95.902 815.741 99.5806C815.762 100.398 815.716 101.295 815.166 101.9C814.617 102.505 813.395 102.481 813.156 101.699Z" fill="#E6E6E6"/>
<path d="M801.81 85.8934C806.91 85.8934 811.044 81.7589 811.044 76.6586C811.044 71.5584 806.91 67.4238 801.81 67.4238C796.711 67.4238 792.577 71.5584 792.577 76.6586C792.577 81.7589 796.711 85.8934 801.81 85.8934Z" fill="#A0616A"/>
<path d="M794.676 69.8314C794.771 69.0003 795.34 67.9731 795.737 67.2364C796.133 66.4996 796.898 65.898 797.733 65.9493C798.074 65.9889 798.4 66.1103 798.684 66.3034C798.968 66.4964 799.201 66.7553 799.364 67.058C799.682 67.6673 799.856 68.342 799.871 69.0295C799.958 70.5634 799.702 72.0974 799.121 73.5198C798.541 74.9421 797.65 76.2169 796.514 77.2513C795.867 77.8317 795.088 78.3483 794.219 78.368C793.824 78.3586 793.436 78.2703 793.076 78.1083C792.716 77.9463 792.392 77.714 792.123 77.4249C790.716 76.0159 790.503 73.6995 791.254 71.8556C792.006 70.0117 792.341 69.2942 794.058 68.287" fill="#2F2E41"/>
<path d="M807.647 83.1131C807.492 83.9347 808.913 87.8421 808.459 88.5463C808.459 88.5463 803.758 90.1793 801.961 90.2967C799.765 90.4388 797.999 89.5378 795.945 88.1818C795.908 87.4462 795.695 86.7302 795.324 86.0938C795.356 86.5868 795.255 87.0792 795.034 87.5208C792.026 85.1239 790.897 78.5327 793.871 75.4717L796.959 68.3674C796.033 68.6763 798.83 63.9038 801.779 67.3602C805.469 63.6011 812.619 69.0127 813.515 73.8467C812.653 72.7556 812.204 72.8842 811.983 73.6367C811.729 73.0038 811.326 72.4413 810.809 71.9965C811.066 72.5046 811.198 73.0671 811.192 73.6366C805.371 73.998 806.454 77.926 811.226 83.8102C809.461 82.7116 810.652 87.4457 809.71 88.5772C809.663 87.7864 807.813 83.8822 807.647 83.1131Z" fill="#2F2E41"/>
<path d="M799.246 75.5479C799.172 75.5478 799.1 75.5208 799.043 75.4718C798.987 75.4229 798.951 75.3553 798.94 75.2815C798.93 75.2077 798.947 75.1327 798.988 75.0703C799.028 75.0079 799.09 74.9623 799.162 74.9419C799.243 74.8082 799.21 74.2458 799.183 73.7914C799.082 72.0852 798.914 69.2296 801.686 67.3019C801.719 67.2786 801.757 67.2621 801.797 67.2533C801.836 67.2446 801.877 67.2438 801.917 67.2509C801.957 67.258 801.996 67.273 802.03 67.2949C802.064 67.3168 802.094 67.3452 802.117 67.3786C802.14 67.4119 802.156 67.4496 802.165 67.4893C802.174 67.529 802.174 67.57 802.167 67.61C802.16 67.6499 802.145 67.6881 802.123 67.7222C802.101 67.7564 802.072 67.7859 802.039 67.809C799.551 69.539 799.701 72.0763 799.799 73.7551C799.856 74.7149 799.897 75.4082 799.315 75.5402C799.292 75.5453 799.269 75.5479 799.246 75.5479Z" fill="#7CB966"/>
<path d="M799.39 72.8904C797.505 73.6728 795.497 74.1178 793.458 74.2052C791.841 74.2737 789.912 73.913 789.254 72.4336C788.855 71.5361 789.068 70.4841 789.433 69.5723C789.798 68.6604 790.31 67.7989 790.521 66.8397C790.976 64.7734 789.902 62.5836 788.253 61.2577C786.605 59.9317 784.477 59.3466 782.378 59.0806C783.955 58.4955 785.556 57.9048 787.232 57.7645C788.908 57.6241 790.698 57.9885 791.949 59.1124C793.303 60.3286 793.824 62.2176 794.054 64.0232C794.284 65.8289 794.296 67.6885 794.908 69.4028C795.52 71.1171 796.926 72.7136 798.739 72.8656" fill="#2F2E41"/>
<path d="M942.441 208.997C942.509 208.415 942.462 207.825 942.303 207.261C942.143 206.697 941.874 206.17 941.511 205.711C941.148 205.251 940.698 204.867 940.186 204.581C939.675 204.295 939.112 204.113 938.53 204.045C938.519 204.043 938.508 204.043 938.497 204.042L938.497 204.041L938.497 204.041L938.5 204.009L938.467 204.005C938.534 203.401 938.478 202.79 938.3 202.208C938.123 201.627 937.829 201.088 937.436 200.625C937.043 200.161 936.56 199.783 936.015 199.513C935.471 199.243 934.877 199.087 934.271 199.055C933.664 199.022 933.057 199.114 932.487 199.325C931.917 199.535 931.396 199.86 930.956 200.279C930.516 200.698 930.167 201.203 929.929 201.762C929.691 202.321 929.569 202.923 929.572 203.531L928.598 211.832L928.63 211.836L928.631 211.836L936.964 212.814C937.577 212.963 938.215 212.98 938.836 212.864C939.456 212.747 940.045 212.501 940.563 212.14C941.08 211.779 941.516 211.312 941.839 210.77C942.163 210.228 942.368 209.624 942.441 208.997Z" fill="#F2F2F2"/>
<path d="M757.879 193.506C757.294 193.494 756.711 193.597 756.165 193.809C755.619 194.022 755.12 194.34 754.697 194.745C754.274 195.15 753.934 195.635 753.699 196.171C753.463 196.708 753.335 197.285 753.322 197.871C753.322 197.882 753.322 197.893 753.322 197.904L753.321 197.904L753.322 197.905L753.289 197.904L753.289 197.938C752.681 197.928 752.078 198.043 751.516 198.274C750.955 198.506 750.446 198.85 750.022 199.285C749.598 199.721 749.268 200.238 749.051 200.805C748.834 201.373 748.735 201.979 748.76 202.586C748.786 203.193 748.935 203.789 749.199 204.336C749.462 204.884 749.835 205.371 750.294 205.77C750.753 206.168 751.289 206.468 751.868 206.652C752.447 206.836 753.057 206.899 753.662 206.839L762.017 207.02L762.018 206.987L762.017 206.986L762.199 198.597C762.289 197.972 762.245 197.335 762.071 196.728C761.896 196.122 761.594 195.559 761.186 195.078C760.778 194.597 760.272 194.208 759.702 193.937C759.131 193.666 758.51 193.519 757.879 193.506Z" fill="#F2F2F2"/>
<path d="M1203.11 192.77C1199.77 193.279 1197.33 195.405 1197.66 197.519C1197.98 199.632 1200.95 200.933 1204.29 200.423C1205.63 200.238 1206.9 199.736 1208.01 198.961L1222.13 196.627L1221.18 191.075L1207.1 193.058C1205.81 192.647 1204.44 192.548 1203.11 192.77H1203.11Z" fill="#FFB6B6"/>
<path d="M1263.96 175.464L1258.49 187.021L1230.96 196.237L1208.12 197.449L1207.55 191.993L1232.3 186.844L1257.7 174.905L1263.96 175.464Z" fill="#E6E6E6"/>
<path d="M1201.51 151.287L1200.76 151.304L1202.2 216.162L1202.95 216.146L1201.51 151.287Z" fill="#3F3D56"/>
<path d="M1201.53 180.005C1201.46 179.775 1199.91 174.305 1203.27 168.928L1203.91 169.323C1200.73 174.407 1202.23 179.742 1202.25 179.795L1201.53 180.005Z" fill="#3F3D56"/>
<path d="M1203.54 169.343C1203.54 169.343 1202.51 162.379 1211.95 160.468C1213.92 160.069 1215.76 159.797 1217.46 159.616C1219.46 159.402 1220.24 162.125 1218.43 163.004C1215.82 164.278 1213.35 165.883 1212.07 167.784C1208.53 173.025 1203.54 169.343 1203.54 169.343Z" fill="#FD7C5F"/>
<path d="M1202.5 200.145L1201.78 199.935C1201.79 199.881 1203.3 194.547 1200.12 189.463L1200.75 189.068C1204.12 194.445 1202.57 199.915 1202.5 200.145Z" fill="#3F3D56"/>
<path d="M1200.49 189.483C1200.49 189.483 1201.52 182.519 1192.08 180.607C1190.11 180.209 1188.26 179.937 1186.57 179.756C1184.57 179.542 1183.79 182.265 1185.6 183.144C1188.21 184.418 1190.67 186.023 1191.96 187.923C1195.5 193.165 1200.49 189.483 1200.49 189.483H1200.49Z" fill="#FD7C5F"/>
<path d="M1213.63 142.282C1215.52 141.784 1217.3 140.916 1217.24 140.057C1217.17 139.037 1214.53 138.353 1212.26 138.249C1213.98 136.914 1215.55 135.068 1215.07 134.233C1214.63 133.466 1212.56 133.763 1210.66 134.439C1211.79 132.838 1212.58 131.034 1211.98 130.416C1211.23 129.647 1208.56 130.975 1206.74 132.442C1207.1 130.156 1206.92 127.27 1205.89 127.009C1205.02 126.791 1203.8 128.469 1202.96 130.298C1202.59 128.379 1201.84 126.557 1200.98 126.557C1199.75 126.557 1198.75 130.254 1198.75 132.662C1198.75 132.799 1198.75 132.927 1198.76 133.049C1198.63 132.906 1198.49 132.757 1198.33 132.601C1196.59 130.923 1193.23 129.061 1192.37 129.94C1191.77 130.558 1192.56 132.362 1193.69 133.963C1191.78 133.287 1189.72 132.99 1189.28 133.757C1188.68 134.789 1191.23 137.363 1193.3 138.612C1193.17 138.597 1193.04 138.584 1192.9 138.575C1190.49 138.411 1186.71 139.151 1186.63 140.374C1186.57 141.233 1188.35 142.101 1190.24 142.599C1188.35 143.306 1186.59 144.405 1186.75 145.276C1186.94 146.332 1189.91 146.702 1192.24 146.486C1190.5 148.15 1188.61 151.131 1189.4 152.005C1189.98 152.645 1191.84 151.983 1193.52 150.974C1192.72 152.816 1192.28 154.842 1193.02 155.335C1193.99 155.985 1196.68 153.721 1198.09 151.773C1197.94 154.156 1198.52 157.43 1199.66 157.559C1200.51 157.657 1201.47 155.932 1202.05 154.067C1202.68 155.978 1203.7 157.784 1204.58 157.664C1205.73 157.509 1206.23 154.153 1206.02 151.768C1207.47 153.636 1209.93 155.633 1210.85 155.017C1211.59 154.525 1211.15 152.499 1210.35 150.657C1212.03 151.665 1213.89 152.328 1214.47 151.688C1215.26 150.814 1213.37 147.833 1211.63 146.169C1213.96 146.385 1216.93 146.015 1217.12 144.958C1217.28 144.088 1215.52 142.989 1213.63 142.282ZM1203.4 149.022C1202.91 149.089 1202.46 149.183 1202.12 149.425C1201.76 149.069 1201.24 148.96 1200.65 148.894C1199.99 148.819 1199.4 148.812 1198.94 149.189C1198.78 148.729 1198.37 148.402 1197.89 148.085C1197.48 147.813 1197.09 147.589 1196.67 147.546C1196.64 147.041 1196.32 146.613 1195.92 146.176C1195.67 145.898 1195.42 145.649 1195.14 145.483C1195.54 144.996 1195.5 144.38 1195.37 143.704C1195.28 143.222 1195.17 142.782 1194.91 142.456C1195.25 142.081 1195.34 141.553 1195.38 140.968C1195.42 140.329 1195.4 139.75 1195.03 139.319C1195.99 139.44 1196.45 138.846 1196.88 138.102C1197.13 137.677 1197.32 137.268 1197.34 136.853C1197.84 136.786 1198.25 136.437 1198.66 136.017C1199.01 135.657 1199.31 135.302 1199.42 134.892C1199.82 135.228 1200.37 135.279 1200.98 135.279C1201.57 135.279 1202.1 135.231 1202.5 134.917C1202.81 135.196 1203.25 135.34 1203.72 135.461C1204.18 135.577 1204.61 135.654 1205 135.576C1205.14 135.901 1205.4 136.195 1205.69 136.493C1206.1 136.913 1206.51 137.262 1207.01 137.328C1207.02 137.743 1207.22 138.153 1207.47 138.578C1207.76 139.078 1208.06 139.511 1208.52 139.704C1208.47 139.994 1208.47 140.314 1208.49 140.651C1208.53 141.236 1208.62 141.764 1208.96 142.139C1208.7 142.465 1208.59 142.905 1208.5 143.387C1208.37 144.063 1208.33 144.679 1208.73 145.166C1208.45 145.332 1208.2 145.581 1207.95 145.859C1207.55 146.295 1207.23 146.724 1207.2 147.229C1206.78 147.272 1206.39 147.496 1205.98 147.768C1205.42 148.14 1204.95 148.526 1204.86 149.125C1204.44 148.923 1203.94 148.949 1203.4 149.022Z" fill="#FD7C5F"/>
<path d="M1202.09 150.186C1206.5 150.186 1210.07 146.636 1210.07 142.257C1210.07 137.878 1206.5 134.328 1202.09 134.328C1197.69 134.328 1194.12 137.878 1194.12 142.257C1194.12 146.636 1197.69 150.186 1202.09 150.186Z" fill="#3F3D56"/>
<path d="M1105.96 238.403C1105.96 238.65 1106.16 238.847 1106.41 238.847H1302.43C1302.67 238.847 1302.87 238.65 1302.87 238.403C1302.87 238.157 1302.67 237.959 1302.43 237.959H1106.41C1106.16 237.959 1105.96 238.157 1105.96 238.403Z" fill="#3F3D56"/>
<path d="M1213.19 219.345L1208.28 231.712L1201.92 227.398L1205.68 214.455L1213.19 219.345Z" fill="#FFB6B6"/>
<path d="M1192.67 214.743L1179.65 227.11L1184.86 232.575L1198.16 222.221L1192.67 214.743Z" fill="#FFB6B6"/>
<path d="M1266.4 174.476L1266.25 173.469L1262.93 166.998L1251.94 169.874L1253.96 178.79L1266.4 174.476Z" fill="#FFB6B6"/>
<path d="M1261.77 217.618L1262.11 221.938C1262.11 221.938 1263.51 240.052 1252.23 241.491C1240.95 242.929 1236.04 244.367 1229.39 233.15L1218.98 214.742L1212.9 221.938L1204.81 215.605C1204.81 215.605 1210.59 193.171 1215.22 192.308C1215.8 192.2 1216.38 192.146 1216.94 192.134C1220.77 192.055 1224.39 193.918 1226.68 196.972L1239.8 214.454L1244.57 212.297L1261.77 217.618H1261.77Z" fill="#5B4A9A"/>
<path d="M1199.32 231.137L1201.92 226.248L1209.44 231.425C1209.44 231.425 1211.17 237.752 1208.57 238.615C1205.97 239.478 1198.74 238.328 1198.74 238.328C1198.74 238.328 1185.44 241.204 1185.15 238.615C1184.86 236.027 1191.22 235.451 1191.22 235.451L1199.32 231.137Z" fill="#2F2E41"/>
<path d="M1227.65 227.685L1207.56 215.09L1197.29 224.234L1190.35 216.181C1190.35 216.181 1203.08 197.486 1206.83 196.623C1210.59 195.76 1216.66 195.185 1216.66 195.185L1235.17 212.154L1227.65 227.685Z" fill="#5B4A9A"/>
<path d="M1179.36 225.959L1186.01 233.15L1185.14 233.896C1185.14 233.896 1183.41 241.371 1179.36 238.842C1175.32 236.314 1175.03 235.738 1175.03 235.738C1175.03 235.738 1163.46 238.327 1162.3 233.725C1161.15 229.123 1164.33 229.986 1164.33 229.986L1167.22 231.712L1179.36 225.959L1179.36 225.959Z" fill="#2F2E41"/>
<path d="M1255.41 173.038C1260.52 173.038 1264.66 168.917 1264.66 163.834C1264.66 158.751 1260.52 154.63 1255.41 154.63C1250.3 154.63 1246.16 158.751 1246.16 163.834C1246.16 168.917 1250.3 173.038 1255.41 173.038Z" fill="#FFB6B6"/>
<path d="M1253.24 176.921L1266.54 172.894C1266.54 172.894 1271.75 184.974 1270.88 190.439C1270.01 195.903 1262.11 221.939 1262.11 221.939L1244.57 212.298C1244.57 212.298 1244.28 206.545 1243.41 203.957C1242.54 201.368 1239.8 193.459 1245.87 186.844C1251.94 180.228 1253.24 176.921 1253.24 176.921V176.921Z" fill="#E6E6E6"/>
<path d="M1123.35 86.2302L1122.6 86.2466L1125.98 238.935L1126.73 238.919L1123.35 86.2302Z" fill="#3F3D56"/>
<path d="M1124.38 171.885C1124.34 171.755 1120.62 158.685 1128.44 146.219L1129.07 146.614C1121.44 158.8 1125.07 171.548 1125.1 171.675L1124.38 171.885Z" fill="#3F3D56"/>
<path d="M1128.62 146.928C1128.62 146.928 1126.21 130.533 1148.43 126.033C1153.06 125.096 1157.41 124.455 1161.4 124.028C1166.1 123.524 1167.94 129.935 1163.69 132.005C1157.53 135.004 1151.73 138.782 1148.71 143.256C1140.38 155.596 1128.62 146.928 1128.62 146.928Z" fill="#FD7C5F"/>
<path d="M1125.69 217.885L1124.97 217.675C1125.01 217.548 1128.63 204.788 1121 192.613L1121.64 192.218C1129.45 204.685 1125.73 217.754 1125.69 217.885Z" fill="#3F3D56"/>
<path d="M1121.45 192.928C1121.45 192.928 1123.86 176.533 1101.65 172.033C1097.02 171.096 1092.67 170.455 1088.68 170.028C1083.97 169.524 1082.14 175.935 1086.39 178.005C1092.55 181.004 1098.34 184.782 1101.36 189.256C1109.69 201.596 1121.45 192.928 1121.45 192.928Z" fill="#FD7C5F"/>
<path d="M1152.37 92.0189C1156.84 90.8462 1161.02 88.8026 1160.89 86.7811C1160.72 84.3796 1154.51 82.7705 1149.16 82.5256C1153.2 79.3819 1156.91 75.0362 1155.77 73.0708C1154.73 71.2639 1149.87 71.9639 1145.4 73.5553C1148.05 69.7858 1149.91 65.5384 1148.49 64.0848C1146.72 62.2741 1140.45 65.3993 1136.17 68.8539C1137 63.472 1136.58 56.6787 1134.15 56.0641C1132.12 55.5499 1129.24 59.5016 1127.27 63.8064C1126.4 59.2889 1124.64 55 1122.6 55C1119.7 55 1117.34 63.7029 1117.34 69.3729C1117.34 69.6934 1117.35 69.9951 1117.37 70.2833C1117.08 69.9474 1116.74 69.5965 1116.36 69.2288C1112.27 65.2786 1104.36 60.8941 1102.34 62.9648C1100.92 64.4184 1102.78 68.6659 1105.43 72.4353C1100.95 70.8439 1096.1 70.144 1095.05 71.9509C1093.65 74.3787 1099.64 80.4395 1104.52 83.3786C1104.22 83.3435 1103.92 83.314 1103.59 83.2917C1097.9 82.9058 1089.01 84.6479 1088.81 87.5277C1088.68 89.5493 1092.86 91.5928 1097.33 92.7656C1092.88 94.4302 1088.72 97.0167 1089.1 99.0664C1089.55 101.554 1096.54 102.425 1102.04 101.915C1097.93 105.833 1093.48 112.852 1095.34 114.909C1096.7 116.416 1101.09 114.856 1105.05 112.482C1103.15 116.818 1102.11 121.588 1103.86 122.747C1106.16 124.278 1112.47 118.949 1115.8 114.364C1115.46 119.973 1116.81 127.68 1119.48 127.984C1121.51 128.214 1123.75 124.152 1125.13 119.762C1126.6 124.262 1129.01 128.513 1131.08 128.231C1133.78 127.865 1134.96 119.965 1134.46 114.351C1137.89 118.748 1143.67 123.45 1145.84 122C1147.59 120.842 1146.55 116.072 1144.65 111.735C1148.61 114.109 1153 115.669 1154.36 114.162C1156.22 112.105 1151.77 105.086 1147.66 101.169C1153.16 101.678 1160.15 100.807 1160.6 98.3197C1160.98 96.27 1156.82 93.6836 1152.37 92.0189L1152.37 92.0189ZM1128.29 107.887C1127.14 108.043 1126.09 108.266 1125.29 108.835C1124.44 107.996 1123.2 107.741 1121.83 107.584C1120.28 107.409 1118.88 107.392 1117.81 108.278C1117.42 107.196 1116.45 106.427 1115.33 105.681C1114.37 105.039 1113.43 104.512 1112.46 104.411C1112.38 103.223 1111.62 102.214 1110.69 101.187C1110.1 100.532 1109.51 99.9465 1108.85 99.5549C1109.8 98.4077 1109.69 96.9576 1109.4 95.3663C1109.19 94.2312 1108.92 93.197 1108.31 92.4287C1109.11 91.5468 1109.31 90.3028 1109.41 88.9255C1109.51 87.4216 1109.47 86.058 1108.6 85.0427C1110.85 85.328 1111.94 83.9305 1112.95 82.1789C1113.53 81.1783 1113.99 80.2144 1114.03 79.2374C1115.22 79.0808 1116.18 78.26 1117.14 77.2696C1117.97 76.4236 1118.67 75.5859 1118.94 74.6218C1119.88 75.4129 1121.17 75.5327 1122.6 75.5327C1123.99 75.5327 1125.25 75.4189 1126.19 74.6817C1126.92 75.3372 1127.93 75.6771 1129.06 75.9619C1130.13 76.2337 1131.15 76.4155 1132.07 76.2325C1132.4 76.9965 1133 77.6903 1133.68 78.3896C1134.65 79.38 1135.61 80.2007 1136.8 80.3574C1136.83 81.3344 1137.3 82.2983 1137.87 83.2988C1138.55 84.4766 1139.27 85.495 1140.35 85.9494C1140.22 86.6335 1140.24 87.3866 1140.29 88.1788C1140.39 89.5561 1140.59 90.8002 1141.39 91.6821C1140.78 92.4504 1140.51 93.4846 1140.3 94.6197C1140.01 96.211 1139.9 97.661 1140.85 98.8083C1140.19 99.1999 1139.6 99.7854 1139.01 100.44C1138.08 101.467 1137.32 102.477 1137.24 103.664C1136.27 103.766 1135.33 104.292 1134.37 104.934C1133.05 105.81 1131.95 106.719 1131.74 108.129C1130.75 107.652 1129.57 107.714 1128.29 107.887V107.887Z" fill="#FD7C5F"/>
<path d="M1125.23 110.625C1135.59 110.625 1143.99 102.268 1143.99 91.959C1143.99 81.65 1135.59 73.293 1125.23 73.293C1114.86 73.293 1106.46 81.65 1106.46 91.959C1106.46 102.268 1114.86 110.625 1125.23 110.625Z" fill="#3F3D56"/>
<path d="M1298.61 202.063L1297.85 202.079L1298.66 238.562L1299.41 238.546L1298.61 202.063Z" fill="#3F3D56"/>
<path d="M1298.29 218.266C1298.25 218.133 1297.36 214.988 1299.29 211.902L1299.93 212.298C1298.18 215.091 1299 218.027 1299.01 218.056L1298.29 218.266Z" fill="#3F3D56"/>
<path d="M1299.58 212.222C1299.58 212.222 1299 208.305 1304.31 207.23C1305.42 207.006 1306.46 206.853 1307.41 206.751C1308.54 206.63 1308.97 208.162 1307.96 208.657C1306.49 209.373 1305.1 210.276 1304.38 211.345C1302.39 214.294 1299.58 212.222 1299.58 212.222Z" fill="#FD7C5F"/>
<path d="M1299.15 229.594L1298.43 229.384C1298.44 229.355 1299.27 226.419 1297.52 223.626L1298.15 223.231C1300.09 226.317 1299.19 229.461 1299.15 229.594Z" fill="#3F3D56"/>
<path d="M1297.87 223.551C1297.87 223.551 1298.44 219.634 1293.13 218.559C1292.03 218.335 1290.99 218.181 1290.04 218.079C1288.91 217.959 1288.47 219.491 1289.49 219.986C1290.96 220.702 1292.34 221.605 1293.07 222.674C1295.06 225.622 1297.87 223.551 1297.87 223.551V223.551Z" fill="#FD7C5F"/>
<path d="M1305.25 197.001C1306.32 196.72 1307.32 196.232 1307.29 195.749C1307.25 195.175 1305.77 194.791 1304.49 194.732C1305.45 193.981 1306.34 192.943 1306.07 192.473C1305.82 192.041 1304.66 192.209 1303.59 192.589C1304.22 191.688 1304.67 190.673 1304.33 190.326C1303.9 189.893 1302.41 190.64 1301.38 191.466C1301.58 190.18 1301.48 188.556 1300.9 188.41C1300.42 188.287 1299.73 189.231 1299.26 190.259C1299.05 189.18 1298.63 188.155 1298.14 188.155C1297.45 188.155 1296.89 190.235 1296.89 191.59C1296.89 191.666 1296.89 191.738 1296.89 191.807C1296.82 191.727 1296.74 191.643 1296.65 191.555C1295.67 190.611 1293.78 189.564 1293.3 190.058C1292.96 190.406 1293.41 191.421 1294.04 192.321C1292.97 191.941 1291.81 191.774 1291.56 192.205C1291.22 192.786 1292.66 194.234 1293.82 194.936C1293.75 194.928 1293.68 194.921 1293.6 194.915C1292.24 194.823 1290.12 195.239 1290.07 195.927C1290.04 196.41 1291.03 196.899 1292.1 197.179C1291.04 197.577 1290.05 198.195 1290.14 198.684C1290.24 199.279 1291.91 199.487 1293.23 199.365C1292.25 200.301 1291.18 201.978 1291.63 202.47C1291.95 202.83 1293 202.457 1293.95 201.89C1293.49 202.926 1293.25 204.066 1293.66 204.343C1294.21 204.708 1295.72 203.435 1296.52 202.339C1296.43 203.68 1296.76 205.521 1297.4 205.594C1297.88 205.649 1298.42 204.678 1298.75 203.629C1299.1 204.705 1299.67 205.72 1300.17 205.653C1300.81 205.565 1301.09 203.678 1300.97 202.337C1301.79 203.387 1303.17 204.511 1303.69 204.164C1304.11 203.887 1303.86 202.748 1303.41 201.711C1304.36 202.279 1305.4 202.651 1305.73 202.291C1306.17 201.8 1305.11 200.123 1304.13 199.187C1305.44 199.308 1307.11 199.1 1307.22 198.506C1307.31 198.016 1306.32 197.398 1305.25 197.001ZM1299.5 200.792C1299.23 200.829 1298.98 200.883 1298.78 201.018C1298.58 200.818 1298.29 200.757 1297.96 200.72C1297.59 200.678 1297.25 200.674 1297 200.885C1296.9 200.627 1296.67 200.443 1296.4 200.265C1296.17 200.112 1295.95 199.986 1295.72 199.961C1295.7 199.678 1295.52 199.436 1295.3 199.191C1295.15 199.035 1295.01 198.895 1294.86 198.801C1295.08 198.527 1295.06 198.181 1294.99 197.8C1294.94 197.529 1294.87 197.282 1294.73 197.098C1294.92 196.888 1294.97 196.59 1294.99 196.261C1295.01 195.902 1295 195.576 1294.79 195.334C1295.33 195.402 1295.59 195.068 1295.84 194.649C1295.97 194.41 1296.08 194.18 1296.09 193.947C1296.38 193.909 1296.61 193.713 1296.84 193.476C1297.03 193.274 1297.2 193.074 1297.27 192.844C1297.49 193.033 1297.8 193.061 1298.14 193.061C1298.47 193.061 1298.77 193.034 1299 192.858C1299.17 193.015 1299.42 193.096 1299.68 193.164C1299.94 193.229 1300.18 193.272 1300.4 193.229C1300.48 193.411 1300.63 193.577 1300.79 193.744C1301.02 193.981 1301.25 194.177 1301.53 194.214C1301.54 194.448 1301.65 194.678 1301.79 194.917C1301.95 195.198 1302.12 195.442 1302.38 195.55C1302.35 195.714 1302.36 195.894 1302.37 196.083C1302.39 196.412 1302.44 196.709 1302.63 196.92C1302.49 197.104 1302.42 197.351 1302.37 197.622C1302.3 198.002 1302.27 198.349 1302.5 198.623C1302.34 198.716 1302.2 198.856 1302.06 199.013C1301.84 199.258 1301.66 199.499 1301.64 199.783C1301.41 199.807 1301.18 199.933 1300.95 200.086C1300.64 200.296 1300.38 200.513 1300.33 200.85C1300.09 200.736 1299.81 200.751 1299.5 200.792Z" fill="#FD7C5F"/>
<path d="M1298.77 201.446C1301.24 201.446 1303.25 199.449 1303.25 196.986C1303.25 194.523 1301.24 192.526 1298.77 192.526C1296.29 192.526 1294.28 194.523 1294.28 196.986C1294.28 199.449 1296.29 201.446 1298.77 201.446Z" fill="#3F3D56"/>
<path d="M1223.97 237.315C1221.8 239.895 1221.39 243.096 1223.04 244.467C1224.69 245.837 1227.78 244.856 1229.95 242.275C1230.82 241.256 1231.45 240.042 1231.76 238.735L1240.79 227.69L1236.39 224.148L1227.15 234.909C1225.91 235.447 1224.82 236.272 1223.97 237.315Z" fill="#FFB6B6"/>
<path d="M1263.44 182.723L1266.59 195.11L1251.2 219.61L1235.49 235.314L1230.4 231.112L1246.24 211.505L1258.25 186.243L1263.44 182.723Z" fill="#E6E6E6"/>
<path d="M1246.88 162.252C1249.25 162.247 1249.39 162.263 1249.77 162.252C1252.72 162.175 1253.49 161.023 1254.98 161.102C1257.64 161.242 1254.13 174.521 1252.66 180.66C1251.23 186.681 1256.07 192.076 1256.42 192.452C1261.34 197.772 1269.98 198.744 1271.46 196.479C1272.66 194.646 1268.41 191.858 1269.43 187.85C1270.44 183.933 1275.08 184.35 1276.37 180.66C1277.73 176.795 1273.17 174.846 1270.3 165.416C1268.66 160.001 1268.95 158.992 1267.41 155.637C1263.3 146.671 1243.18 150.489 1245.44 158.801C1245.87 160.409 1244.71 162.258 1246.88 162.252Z" fill="#2F2E41"/>
<rect x="0.5" y="0.5" width="1345" height="299" rx="4.5" stroke="#9747FF" stroke-dasharray="10 5"/>
</svg>
