<svg width="205" height="46" viewBox="0 0 205 46" fill="none" xmlns="http://www.w3.org/2000/svg">
<g clip-path="url(#clip0_608_2201)">
<path d="M199.728 0.257046L188.598 24.255L184.391 15.1489H179.844L186.75 30.0398H190.426L204.24 0.257046H199.728Z" fill="#D72624"/>
<path d="M81.4372 4.60226H90.4857V12.6568H81.4372V4.60226ZM10.259 44.815H19.7106L29.9701 15.1489H20.9216L15.1581 34.2116H15.0428L9.27931 15.1489H0.00012207L10.259 44.815ZM43.4561 20.7687C46.6257 20.7687 48.8158 23.145 49.1617 26.6212H37.1164C37.8082 23.0864 39.7096 20.7687 43.4561 20.7687ZM43.9173 39.1373C39.9405 39.1373 37.5201 36.5293 37.0586 32.5322H58.3258C58.3833 26.1574 56.7116 21.0586 53.196 17.8718C50.7181 15.5542 47.4325 14.2793 43.2829 14.2793C34.4079 14.2793 28.2407 21.0586 28.2407 29.9239C28.2407 38.847 34.1195 45.6842 43.8598 45.6842C47.5485 45.6842 50.4875 44.6992 52.9082 43.0184C55.502 41.2232 57.3459 38.6151 57.8643 36.0081H49.2195C48.3552 37.978 46.5682 39.1373 43.9173 39.1373ZM60.4581 44.815H69.4491V31.1993C69.4491 24.9989 73.1377 22.2754 78.7859 23.0291H78.9587V15.2069C78.4975 15.033 77.9791 14.975 77.1148 14.975C73.599 14.975 71.2361 16.5971 69.2185 20.0736H69.0453V15.1489H60.4581V44.815ZM81.4372 44.815H90.4857V15.1489H81.4372V44.815ZM92.9654 44.815H118.209V37.6888H103.916V37.5141L117.575 22.1015V15.1489H92.9654V22.2754H106.798V22.4493L92.9654 37.978V44.815ZM134.174 39.0788C129.909 39.0788 127.661 35.487 127.661 30.0398C127.661 24.5351 129.909 21.0006 134.174 21.0006C138.439 21.0006 140.802 24.5351 140.802 30.0398C140.802 35.487 138.439 39.0788 134.174 39.0788ZM134.232 14.3375C124.837 14.3375 118.555 21.1165 118.555 30.0398C118.555 38.9055 124.837 45.7427 134.232 45.7427C143.626 45.7427 149.908 38.9055 149.908 30.0398C149.908 21.1165 143.626 14.3375 134.232 14.3375ZM151.868 44.815H160.859V28.3018C160.859 24.5351 163.049 21.8696 166.276 21.8696C169.388 21.8696 171.002 24.072 171.002 27.2009V44.815H179.993V25.4629C179.993 18.9148 176.075 14.2793 169.734 14.2793C165.7 14.2793 162.876 16.018 160.744 19.2047H160.57V15.1489H151.868V44.815Z" fill="#100F0D"/>
</g>
<defs>
<clipPath id="clip0_608_2201">
<rect width="204.241" height="45.4859" fill="white" transform="translate(0 0.256836)"/>
</clipPath>
</defs>
</svg>
