<svg width="47" height="47" viewBox="0 0 47 47" fill="none" xmlns="http://www.w3.org/2000/svg">
<path d="M46.6435 23.6783C46.6435 10.7981 36.202 0.356583 23.3218 0.356583C10.4415 0.356583 0 10.7981 0 23.6783C0 35.3189 8.52843 44.9672 19.6777 46.7168V30.4198H13.7562V23.6783H19.6777V18.5403C19.6777 12.6953 23.1595 9.46665 28.4867 9.46665C31.0383 9.46665 33.7072 9.92215 33.7072 9.92215V15.6615H30.7664C27.8693 15.6615 26.9658 17.4592 26.9658 19.3036V23.6783H33.4339L32.3999 30.4198H26.9658V46.7168C38.1151 44.9672 46.6435 35.3189 46.6435 23.6783Z" fill="#1877F2"/>
<path d="M32.4 30.4197L33.434 23.6782H26.9658V19.3034C26.9658 17.4591 27.8693 15.6614 30.7665 15.6614H33.7073V9.92204C33.7073 9.92204 31.0383 9.46653 28.4867 9.46653C23.1595 9.46653 19.6778 12.6951 19.6778 18.5402V23.6782H13.7562V30.4197H19.6778V46.7167C20.8651 46.903 22.0821 47 23.3218 47C24.5615 47 25.7785 46.903 26.9658 46.7167V30.4197H32.4Z" fill="white"/>
</svg>
