<svg width="129" height="144" viewBox="0 0 129 144" fill="none" xmlns="http://www.w3.org/2000/svg">
<path d="M6.86711 142.128C1.65788 139.117 0.0447104 132.301 3.43911 127.327C11.9218 114.899 22.2125 103.782 33.9686 94.378C36.3614 92.4624 38.8148 90.6139 41.3354 88.8461C48.7157 83.6369 56.6002 79.073 64.8946 75.2349C75.5954 79.9266 86.7801 83.4151 98.2135 85.6399C73.021 91.5818 50.7591 104.796 33.6661 122.871C28.9341 127.872 24.5987 133.242 20.7069 138.935C17.6217 143.446 11.6058 144.864 6.87384 142.121L6.86711 142.128Z" fill="white"/>
<path d="M128.299 71.1751C128.299 77.1909 123.204 82.0103 117.202 81.5599C102.186 80.4374 87.4052 77.0833 73.3907 71.6187C70.5206 70.5096 67.6908 69.3065 64.8946 68.0092C56.6943 64.2249 48.8031 59.7013 41.3422 54.445C40.0852 42.8973 37.5512 31.5311 33.814 20.575C51.5254 39.2744 74.0628 51.8908 98.2404 57.6243C104.928 59.2106 111.737 60.2726 118.614 60.7969C124.065 61.207 128.306 65.7037 128.306 71.1751H128.299Z" fill="white"/>
<path d="M9.40789 108.85C16.842 84.1545 16.5664 58.3503 9.52214 34.5491C7.53927 27.841 5.0187 21.2874 1.98054 14.9691C-0.385459 10.0422 1.39576 4.12722 6.13448 1.39826C11.3437 -1.60629 18.0586 0.39674 20.6665 5.82106C27.2335 19.439 31.7236 33.9845 33.9887 48.9333C34.4458 51.9648 34.8155 55.0029 35.0776 58.068C35.8977 67.048 35.9044 76.1356 35.0709 85.2232C25.654 92.1397 17.0369 100.071 9.40116 108.85H9.40789Z" fill="white"/>
</svg>
