<svg width="128" height="144" viewBox="0 0 128 144" fill="none" xmlns="http://www.w3.org/2000/svg">
<path d="M5.92839 142.128C0.719155 139.117 -0.89401 132.301 2.50039 127.327C10.983 114.899 21.2738 103.782 33.0298 94.378C35.4227 92.4624 37.8761 90.6139 40.3967 88.8461C47.777 83.6369 55.6614 79.073 63.9559 75.2349C74.6566 79.9266 85.8414 83.4151 97.2748 85.6399C72.0823 91.5818 49.8204 104.796 32.7274 122.871C27.9954 127.872 23.66 133.242 19.7682 138.935C16.6829 143.446 10.6671 144.864 5.93511 142.121L5.92839 142.128Z" fill="#F4A69A"/>
<path d="M127.361 71.1751C127.361 77.1909 122.266 82.0103 116.263 81.5599C101.247 80.4374 86.4665 77.0833 72.452 71.6187C69.5819 70.5096 66.7521 69.3065 63.9559 68.0092C55.7556 64.2249 47.8644 59.7013 40.4035 54.445C39.1465 42.8973 36.6125 31.5311 32.8753 20.575C50.5867 39.2744 73.1241 51.8908 97.3017 57.6243C103.99 59.2106 110.799 60.2726 117.675 60.7969C123.126 61.207 127.367 65.7037 127.367 71.1751H127.361Z" fill="#EF7765"/>
<path d="M8.46917 108.85C15.9032 84.1545 15.6276 58.3503 8.58342 34.5491C6.60055 27.841 4.07998 21.2874 1.04182 14.9691C-1.32418 10.0422 0.457036 4.12722 5.19576 1.39826C10.405 -1.60629 17.1199 0.39674 19.7278 5.82106C26.2948 19.439 30.7848 33.9845 33.05 48.9333C33.5071 51.9648 33.8768 55.0029 34.1389 58.068C34.959 67.048 34.9657 76.1356 34.1322 85.2232C24.7152 92.1397 16.0982 100.071 8.46244 108.85H8.46917Z" fill="#614A99"/>
</svg>
