<svg width="35" height="35" viewBox="0 0 35 35" fill="none" xmlns="http://www.w3.org/2000/svg">
<path d="M17.0622 3.06743C21.6178 3.06743 22.1573 3.08446 23.957 3.16633C25.039 3.17954 26.1108 3.37778 27.1257 3.75242C27.8617 4.03561 28.5301 4.46942 29.0878 5.02592C29.6456 5.58243 30.0804 6.2493 30.3643 6.9836C30.7398 7.99617 30.9384 9.06549 30.9517 10.1451C31.0329 11.9406 31.0508 12.4789 31.0508 17.0241C31.0508 21.5693 31.0337 22.1076 30.9517 23.9031C30.9384 24.9827 30.7398 26.052 30.3643 27.0646C30.0804 27.7989 29.6456 28.4658 29.0878 29.0223C28.5301 29.5788 27.8617 30.0126 27.1257 30.2958C26.1108 30.6704 25.039 30.8687 23.957 30.8819C22.1581 30.9629 21.6186 30.9808 17.0622 30.9808C12.5058 30.9808 11.9663 30.9637 10.1675 30.8819C9.08541 30.8687 8.01365 30.6704 6.99876 30.2958C6.26278 30.0126 5.59438 29.5788 5.03661 29.0223C4.47883 28.4658 4.04402 27.7989 3.76019 27.0646C3.38469 26.052 3.186 24.9827 3.17276 23.9031C3.09151 22.1076 3.07364 21.5693 3.07364 17.0241C3.07364 12.4789 3.0907 11.9406 3.17276 10.1451C3.186 9.06549 3.38469 7.99617 3.76019 6.9836C4.04402 6.2493 4.47883 5.58243 5.03661 5.02592C5.59438 4.46942 6.26278 4.03561 6.99876 3.75242C8.01365 3.37778 9.08541 3.17954 10.1675 3.16633C11.9671 3.08527 12.5066 3.06743 17.0622 3.06743ZM17.0622 0C12.431 0 11.8477 0.0194551 10.0277 0.10214C8.61159 0.130243 7.21049 0.397762 5.88403 0.893318C4.74614 1.32106 3.7155 1.99137 2.86402 2.85748C1.99514 3.70733 1.32272 4.7362 0.893735 5.87222C0.397046 7.19566 0.128916 8.59356 0.100748 10.0065C0.0194997 11.8206 0 12.4027 0 17.0233C0 21.6439 0.0194996 22.2259 0.102373 24.0417C0.130541 25.4546 0.398672 26.8525 0.895361 28.176C1.32387 29.3118 1.99573 30.3407 2.86402 31.1907C3.71597 32.057 4.74718 32.7273 5.88565 33.1549C7.21212 33.6504 8.61321 33.918 10.0293 33.9461C11.8493 34.0271 12.4302 34.0482 17.0638 34.0482C21.6975 34.0482 22.2784 34.0287 24.0984 33.9461C25.5145 33.918 26.9156 33.6504 28.242 33.1549C29.3751 32.7167 30.4041 32.0474 31.2631 31.1898C32.1221 30.3322 32.7922 29.3051 33.2307 28.1744C33.7274 26.8509 33.9955 25.453 34.0237 24.0401C34.1049 22.2259 34.1244 21.6439 34.1244 17.0233C34.1244 12.4027 34.1049 11.8206 34.0221 10.0048C33.9939 8.59194 33.7258 7.19404 33.2291 5.8706C32.8006 4.73473 32.1287 3.70587 31.2604 2.85586C30.4085 1.98955 29.3773 1.31923 28.2388 0.891696C26.9123 0.39614 25.5112 0.128621 24.0951 0.100519C22.2768 0.0194552 21.6934 0 17.0622 0Z" fill="#FD7C5F"/>
<path d="M17.0592 8.28223C15.3263 8.28223 13.6323 8.79493 12.1914 9.7555C10.7505 10.7161 9.62749 12.0814 8.96432 13.6787C8.30116 15.2761 8.12765 17.0338 8.46572 18.7295C8.8038 20.4253 9.63829 21.983 10.8637 23.2055C12.089 24.4281 13.6502 25.2607 15.3499 25.598C17.0495 25.9353 18.8112 25.7622 20.4122 25.1005C22.0133 24.4389 23.3817 23.3184 24.3444 21.8808C25.3072 20.4432 25.8211 18.7531 25.8211 17.0241C25.8211 14.7056 24.898 12.4821 23.2548 10.8427C21.6116 9.20324 19.383 8.28223 17.0592 8.28223ZM17.0592 22.6985C15.9344 22.6985 14.8348 22.3657 13.8995 21.7422C12.9642 21.1187 12.2352 20.2325 11.8047 19.1956C11.3743 18.1587 11.2616 17.0178 11.4811 15.9171C11.7005 14.8163 12.2422 13.8052 13.0376 13.0117C13.833 12.2181 14.8464 11.6776 15.9497 11.4587C17.0529 11.2397 18.1965 11.3521 19.2357 11.7816C20.2749 12.2111 21.1632 12.9384 21.7881 13.8715C22.4131 14.8047 22.7466 15.9018 22.7466 17.0241C22.7466 18.529 22.1474 19.9724 21.0808 21.0365C20.0142 22.1007 18.5676 22.6985 17.0592 22.6985Z" fill="#FD7C5F"/>
<path d="M26.1686 9.97963C27.2993 9.97963 28.216 9.06504 28.216 7.93684C28.216 6.80863 27.2993 5.89404 26.1686 5.89404C25.0378 5.89404 24.1211 6.80863 24.1211 7.93684C24.1211 9.06504 25.0378 9.97963 26.1686 9.97963Z" fill="#FD7C5F"/>
</svg>
