<svg width="22" height="21" viewBox="0 0 22 21" fill="none" xmlns="http://www.w3.org/2000/svg">
<path d="M9.43653 1.60269C9.85078 0.327749 11.6545 0.32775 12.0687 1.60269L13.5488 6.15799C13.7341 6.72816 14.2654 7.11419 14.8649 7.11419H19.6547C20.9952 7.11419 21.5526 8.82961 20.4681 9.61757L16.5931 12.4329C16.1081 12.7853 15.9051 13.4099 16.0904 13.9801L17.5705 18.5354C17.9847 19.8103 16.5255 20.8705 15.441 20.0825L11.566 17.2672C11.081 16.9148 10.4242 16.9148 9.93923 17.2672L6.06427 20.0825C4.97974 20.8705 3.52051 19.8103 3.93477 18.5354L5.41487 13.9801C5.60013 13.4099 5.39718 12.7853 4.91217 12.4329L1.0372 9.61757C-0.0473286 8.82961 0.510046 7.11419 1.8506 7.11419H6.64032C7.23983 7.11419 7.77116 6.72816 7.95642 6.15799L9.43653 1.60269Z" fill="#FD7C5F"/>
</svg>
