<svg width="80" height="73" viewBox="0 0 80 73" fill="none" xmlns="http://www.w3.org/2000/svg">
<path d="M79.7862 34.8609C79.2937 35.869 78.6241 36.6539 77.394 36.7125C75.8892 36.7869 74.7135 35.7021 74.6931 34.2068C74.6749 32.9483 74.6885 31.6898 74.6885 30.2599C74.3367 30.5847 74.0962 30.7944 73.8692 31.02C65.0198 39.8114 63.3819 42.1078 54.5324 50.9015C52.7689 52.654 51.5614 52.6472 49.7798 50.8745C47.9572 49.0634 46.1369 47.2523 44.3144 45.4435C44.1192 45.2496 43.9104 45.0669 43.6721 44.8481C43.4179 45.0872 43.1909 45.2901 42.9753 45.5044C37.1695 51.2714 31.3546 57.0339 25.567 62.8189C24.7544 63.6309 23.8806 64.0075 22.7117 64.0007C16.0026 63.9624 9.29118 63.9872 2.58205 63.9782C1.26337 63.9759 0.196629 63.0648 0.0264037 61.8424C-0.15517 60.5433 0.614247 59.3457 1.88753 59.0028C2.20755 58.9171 2.55935 58.9216 2.89526 58.9216C9.03925 58.9171 15.1832 58.9104 21.3272 58.9307C21.9355 58.9329 22.369 58.7773 22.8093 58.3375C29.0191 52.1352 35.2494 45.9532 41.4773 39.7667C43.0093 38.2444 44.3439 38.2399 45.8691 39.7532C47.9504 41.8169 50.0271 43.8851 52.0381 45.8833C60.7105 37.2633 62.1327 35.1834 70.7824 26.5859C69.6476 26.5859 68.4447 26.5904 67.2418 26.5859C65.6031 26.5791 64.4909 25.5394 64.5 24.0283C64.5091 22.5601 65.6189 21.5271 67.2077 21.5249C70.3217 21.5203 73.438 21.579 76.5497 21.5C78.093 21.4617 79.1666 21.9714 79.7885 23.3788C79.7862 27.2084 79.7862 31.0357 79.7862 34.8609Z" fill="#FD7C5F"/>
<path d="M0.0663035 54.9683C0.0663035 50.0338 -0.112249 45.1983 0.116665 40.3831C0.341 35.703 2.63472 31.9548 6.50794 29.1971C6.72312 29.044 7.20842 29.0418 7.45107 29.1769C12.7893 32.1461 18.123 32.1664 23.4453 29.1724C23.9008 28.9157 24.1824 28.9518 24.5647 29.2399C28.5661 32.2542 30.7316 36.2072 30.885 41.1845C30.9216 42.3326 31.1803 43.6068 30.7751 44.5995C30.3814 45.5608 29.2689 46.2384 28.4631 47.033C25.9221 49.5363 23.3858 52.0418 20.8219 54.5226C20.5701 54.7657 20.1535 54.9796 19.8124 54.9796C13.4189 55.0066 7.02529 54.9998 0.631721 54.9976C0.466903 54.9953 0.304374 54.9796 0.0663035 54.9683Z" fill="#FD7C5F"/>
<path d="M49.521 8.35985e-07C55.3263 0.00222776 60 4.46053 60 9.99666C60 15.5662 55.3123 20.0067 49.4369 20C43.6597 19.9933 38.9977 15.5083 39 9.9588C39.007 4.44494 43.7017 -0.00222609 49.521 8.35985e-07Z" fill="#FD7C5F"/>
<path d="M5 16.9944C5 11.4605 9.90168 7 15.9816 7C22.1228 6.99777 27.0049 11.4516 27 17.0457C26.9951 22.5573 22.0714 27.0044 15.9718 27C9.89923 26.9978 5 22.5306 5 16.9944Z" fill="#FD7C5F"/>
<path d="M63 27.4888C58.9836 31.6372 54.9849 35.7673 50.8869 40C50.0466 39.0979 49.1687 38.1251 48.2578 37.1866C45.0222 33.856 40.567 33.8492 37.3336 37.1592C36.6145 37.8951 35.9021 38.64 35.0243 39.5467C35.0243 37.747 34.9581 36.1455 35.0442 34.5531C35.1147 33.2318 35.2338 31.8832 35.5581 30.6097C36.4315 27.1744 38.3305 24.4156 41.0853 22.2811C41.4757 21.9781 41.758 21.9143 42.2366 22.1968C47.3359 25.2061 52.4573 25.1947 57.5588 22.1922C57.9316 21.9712 58.1764 21.9029 58.5712 22.1922C60.3379 23.4953 62.1001 25.5706 63 27.4888Z" fill="#FD7C5F"/>
</svg>
