<svg width="47" height="46" viewBox="0 0 47 46" fill="none" xmlns="http://www.w3.org/2000/svg">
<circle cx="23.239" cy="23" r="23" fill="#1D9BF0"/>
<path d="M36.1921 17.5397C36.2106 17.8074 36.2106 18.0751 36.2106 18.3452C36.2106 26.5762 29.9566 36.069 18.5211 36.069V36.0641C15.143 36.069 11.835 35.0995 8.99121 33.2715C9.48241 33.3307 9.97608 33.3603 10.471 33.3615C13.2705 33.364 15.9899 32.4229 18.1924 30.6898C15.532 30.6392 13.1991 28.9013 12.3841 26.364C13.316 26.5441 14.2763 26.5071 15.191 26.2567C12.2905 25.6696 10.2038 23.1163 10.2038 20.151C10.2038 20.1239 10.2038 20.098 10.2038 20.0721C11.0681 20.5544 12.0357 20.822 13.0255 20.8516C10.2937 19.0224 9.45164 15.3812 11.1013 12.5343C14.2578 16.4259 18.915 18.7917 23.9145 19.0421C23.4134 16.8786 24.0979 14.6115 25.7131 13.0906C28.2171 10.7322 32.1554 10.8531 34.5092 13.3607C35.9016 13.0857 37.2361 12.5738 38.4573 11.8485C37.9932 13.2904 37.0218 14.5153 35.7243 15.2936C36.9566 15.148 38.1606 14.8175 39.2944 14.313C38.4598 15.5662 37.4084 16.6578 36.1921 17.5397Z" fill="white"/>
</svg>
