<svg width="74" height="73" viewBox="0 0 74 73" fill="none" xmlns="http://www.w3.org/2000/svg">
<path d="M66.3777 72.9999C63.5372 71.7696 60.7006 70.5337 57.8564 69.3073C56.0288 68.5201 54.1993 67.7386 52.3622 66.978C52.0937 66.8658 51.7682 66.8145 51.4788 66.8373C45.7713 67.2784 40.3684 66.2764 35.4072 63.352C30.1795 60.2697 26.4481 55.9458 25.0736 49.943C23.503 43.0769 25.4506 37.0911 30.2461 32.0409C34.1717 27.9091 39.0777 25.5627 44.6976 24.7432C52.0404 23.6727 58.8178 25.1349 64.8052 29.609C69.2352 32.9175 72.1442 37.268 72.997 42.7917C73.8861 48.553 72.306 53.6926 68.5746 58.1306C67.8226 59.0262 67.6646 59.7487 67.973 60.8325C68.7269 63.4927 69.3513 66.1889 70.0253 68.8718C70.5164 70.8322 69.812 72.1785 67.9178 72.9143C67.8759 72.9314 67.8417 72.9695 67.8055 72.9999C67.3276 72.9999 66.8536 72.9999 66.3777 72.9999ZM39.7897 42.6719C38.1125 42.6643 36.738 44.0105 36.7342 45.6666C36.7304 47.3209 38.1011 48.6747 39.7821 48.6747C41.4403 48.6747 42.7596 47.3684 42.7748 45.7123C42.79 44.0105 41.4821 42.6795 39.7897 42.6719ZM48.9449 42.6719C47.2601 42.6548 45.8875 43.9725 45.8589 45.6343C45.8303 47.281 47.203 48.6633 48.8764 48.6728C50.546 48.6823 51.8672 47.4008 51.8995 45.7427C51.93 44.0447 50.6278 42.689 48.9449 42.6719ZM58.0734 42.6719C56.3867 42.6529 55.0141 43.9629 54.9798 45.6286C54.9456 47.2734 56.3201 48.6614 57.9897 48.6747C59.6612 48.6861 60.9824 47.4122 61.0186 45.7522C61.0566 44.0523 59.7545 42.6909 58.0734 42.6719Z" fill="#FD7C5F"/>
<path d="M0.239014 19.6247C0.509348 18.383 0.686398 17.1129 1.06334 15.9036C2.85669 10.1669 6.58426 5.95142 11.871 3.28749C21.4393 -1.53266 30.882 -1.09343 39.8411 4.8771C44.5681 8.02779 47.5647 12.5019 48.6194 18.1549C48.7793 19.0124 48.7983 19.8947 48.8764 20.7675C48.8935 20.95 48.8783 21.1363 48.8783 21.3531C47.6675 21.4406 46.5081 21.4881 45.3563 21.6136C35.1674 22.7145 25.6752 29.3106 22.5835 39.1107C22.2922 40.031 22.1323 40.9931 21.8791 41.9267C21.8201 42.1416 21.6811 42.4287 21.5021 42.5066C17.0473 44.429 12.583 46.3324 8.11488 48.2262C7.64085 48.4277 7.13635 48.6198 6.63185 48.6749C4.54152 48.9088 2.87763 47.0758 3.35928 45.0299C4.11127 41.8316 4.93941 38.6505 5.70472 35.4561C5.76373 35.2127 5.67997 34.8381 5.51625 34.6537C2.68154 31.4726 0.850122 27.8351 0.362758 23.5683C0.353239 23.4846 0.2828 23.4067 0.239014 23.3268C0.239014 22.0909 0.239014 20.8568 0.239014 19.6247ZM15.492 24.3802C17.1235 24.365 18.4885 22.9978 18.4809 21.3854C18.4733 19.7464 17.0683 18.345 15.4368 18.3507C13.7805 18.3564 12.4231 19.7388 12.4402 21.4063C12.4574 23.1024 13.7843 24.3954 15.492 24.3802ZM24.5958 24.3802C26.2254 24.3764 27.5961 23.0207 27.6037 21.4044C27.6113 19.7692 26.2159 18.3602 24.5786 18.3507C22.9262 18.3412 21.5574 19.7198 21.5631 21.3873C21.5688 23.0834 22.8881 24.3859 24.5958 24.3802ZM33.6786 24.3726C35.3615 24.3707 36.7304 23.0188 36.7227 21.3664C36.7132 19.7312 35.3063 18.3393 33.6653 18.3431C32.0471 18.3469 30.6897 19.716 30.6859 21.3436C30.6802 23.0568 31.9824 24.3745 33.6786 24.3726Z" fill="#FD7C5F"/>
</svg>
