<svg width="959" height="214" viewBox="0 0 959 214" fill="none" xmlns="http://www.w3.org/2000/svg">
<g clip-path="url(#clip0_608_1705)">
<path d="M235.79 84.23C230.81 81.26 224.92 79.78 218.13 79.78C213.06 79.78 208.46 80.64 204.35 82.36C200.33 83.99 196.84 86.38 193.87 89.54C190.9 92.7 188.65 96.53 187.12 101.03C185.59 105.43 184.82 110.41 184.82 115.96C184.82 123.33 186.16 129.75 188.84 135.2C191.62 140.56 195.49 144.73 200.47 147.69C205.45 150.66 211.34 152.14 218.13 152.14C223.2 152.14 227.75 151.33 231.77 149.7C235.89 147.98 239.43 145.54 242.4 142.38C245.37 139.12 247.62 135.3 249.15 130.89C250.68 126.49 251.45 121.51 251.45 115.96C251.45 108.59 250.06 102.22 247.29 96.86C244.61 91.4 240.78 87.19 235.8 84.22L235.79 84.23ZM236.94 130.47C235.22 134.49 232.73 137.55 229.47 139.66C226.22 141.77 222.43 142.82 218.13 142.82C211.62 142.82 206.4 140.52 202.48 135.93C198.55 131.24 196.59 124.59 196.59 115.97C196.59 110.13 197.45 105.25 199.17 101.32C200.99 97.3 203.48 94.28 206.64 92.27C209.9 90.16 213.72 89.11 218.13 89.11C224.74 89.11 229.95 91.41 233.78 96C237.71 100.6 239.67 107.25 239.67 115.96C239.67 121.61 238.76 126.44 236.94 130.46V130.47Z" fill="#3E3B57"/>
<path d="M84.41 82.79C80.77 80.78 76.18 79.77 70.63 79.77C64.69 79.77 59.43 81.21 54.83 84.08C51.36 86.22 48.64 89.2 46.65 93V85.95C46.65 84.04 46.12 82.6 45.07 81.64C44.11 80.59 42.72 80.06 40.91 80.06C39.1 80.06 37.7 80.59 36.75 81.64C35.79 82.6 35.31 84.03 35.31 85.95V145.83C35.31 147.74 35.79 149.23 36.75 150.28C37.71 151.33 39.14 151.86 41.06 151.86C44.98 151.86 46.95 149.85 46.95 145.83V111.08C46.95 104.47 48.82 99.21 52.55 95.28C56.38 91.26 61.5 89.25 67.91 89.25C73.46 89.25 77.48 90.78 79.97 93.85C82.55 96.82 83.85 101.56 83.85 108.07V145.83C83.85 147.74 84.33 149.23 85.29 150.28C86.34 151.33 87.83 151.86 89.74 151.86C91.65 151.86 92.95 151.33 93.9 150.28C94.95 149.23 95.48 147.74 95.48 145.83V107.35C95.48 101.13 94.57 96.01 92.75 91.99C90.93 87.87 88.16 84.81 84.42 82.8L84.41 82.79Z" fill="#3E3B57"/>
<path d="M173.93 81.21C173.16 80.44 172.02 80.06 170.48 80.06C168.85 80.06 167.61 80.39 166.75 81.06C165.89 81.73 165.12 82.93 164.45 84.65L142.43 137.53L120.8 84.65C120.13 82.93 119.36 81.73 118.5 81.06C117.64 80.39 116.44 80.06 114.91 80.06C113.19 80.06 111.85 80.44 110.89 81.21C109.93 81.98 109.36 82.98 109.17 84.23C108.98 85.47 109.22 86.81 109.89 88.25L134.73 146.26C135.59 148.17 136.64 149.61 137.89 150.57C139.13 151.43 140.57 151.86 142.2 151.86C143.92 151.86 145.41 151.43 146.65 150.57C147.99 149.61 148.99 148.18 149.67 146.26L174.8 88.11C175.37 86.67 175.57 85.38 175.37 84.23C175.27 82.99 174.8 81.98 173.93 81.21Z" fill="#3E3B57"/>
<path d="M297.06 141.95C296.39 141.95 295.72 142 295.05 142.09C294.38 142.19 293.61 142.23 292.75 142.23C288.73 142.23 285.67 140.99 283.56 138.5C281.55 135.92 280.54 132.04 280.54 126.87V54.5C280.54 52.59 280.01 51.15 278.96 50.19C277.91 49.14 276.47 48.61 274.65 48.61C272.74 48.61 271.3 49.14 270.34 50.19C269.38 51.15 268.9 52.58 268.9 54.5V127.73C268.9 135.58 270.72 141.61 274.36 145.82C278 150.03 283.26 152.14 290.15 152.14C290.92 152.14 291.73 152.09 292.59 152C293.45 151.9 294.27 151.81 295.03 151.71C296.75 151.42 298 150.85 298.76 149.99C299.53 149.13 299.91 147.84 299.91 146.11C299.91 144.38 299.67 143.24 299.19 142.66C298.81 142.09 298.09 141.85 297.04 141.94L297.06 141.95Z" fill="#3E3B57"/>
<path d="M5.89 48.61C3.98 48.61 2.49 49.14 1.44 50.19C0.48 51.24 0 52.77 0 54.78V145.67C0 147.58 0.48 149.12 1.44 150.27C2.49 151.32 3.98 151.85 5.89 151.85C7.9 151.85 9.38 151.32 10.34 150.27C11.3 149.12 11.78 147.59 11.78 145.67V54.79C11.78 52.78 11.25 51.25 10.2 50.2C9.24 49.15 7.81 48.62 5.89 48.62V48.61Z" fill="#3E3B57"/>
<path d="M367.58 81.21C366.81 80.44 365.67 80.06 364.13 80.06C362.5 80.06 361.26 80.39 360.4 81.06C359.54 81.73 358.77 82.93 358.1 84.65L336.08 137.53L314.45 84.65C313.78 82.93 313.01 81.73 312.15 81.06C311.29 80.39 310.09 80.06 308.56 80.06C306.84 80.06 305.5 80.44 304.54 81.21C303.58 81.98 303.01 82.98 302.82 84.23C302.63 85.47 302.87 86.81 303.54 88.25L328.38 146.26C329.24 148.17 330.29 149.61 331.54 150.57C332.78 151.43 334.22 151.86 335.85 151.86C337.57 151.86 339.06 151.43 340.3 150.57C341.64 149.61 342.64 148.18 343.31 146.26L368.44 88.11C369.01 86.67 369.21 85.38 369.01 84.23C368.91 82.99 368.44 81.98 367.57 81.21H367.58Z" fill="#3E3B57"/>
<path d="M441.08 117.39C441.94 116.62 442.37 115.48 442.37 113.94C442.37 108.67 441.65 103.94 440.22 99.72C438.88 95.51 436.87 91.92 434.19 88.95C431.61 85.98 428.45 83.73 424.71 82.2C420.98 80.57 416.77 79.76 412.07 79.76C405.47 79.76 399.63 81.29 394.55 84.36C389.57 87.42 385.65 91.68 382.78 97.14C379.91 102.5 378.47 108.82 378.47 116.09C378.47 123.36 379.91 129.97 382.78 135.33C385.75 140.69 389.86 144.85 395.13 147.82C400.49 150.69 406.86 152.13 414.23 152.13C418.44 152.13 422.7 151.51 427.01 150.26C431.32 149.02 435.05 147.24 438.21 144.95C439.45 144.18 440.27 143.27 440.65 142.22C441.13 141.17 441.22 140.21 440.94 139.35C440.75 138.39 440.32 137.63 439.65 137.05C438.98 136.38 438.07 136.04 436.92 136.04C435.87 135.94 434.67 136.33 433.33 137.19C430.27 139.2 427.11 140.64 423.85 141.5C420.69 142.36 417.48 142.79 414.23 142.79C406.38 142.79 400.3 140.49 395.99 135.9C392.2 131.77 390.13 125.92 389.75 118.38H437.34C438.97 118.38 440.21 118.04 441.07 117.37L441.08 117.39ZM399.87 91.83C403.32 89.53 407.48 88.38 412.36 88.38C416.76 88.38 420.4 89.34 423.27 91.25C426.24 93.16 428.49 95.94 430.02 99.58C431.36 102.69 432.12 106.42 432.28 110.78H389.87C390.21 107.22 391 104.01 392.26 101.16C393.98 97.14 396.52 94.03 399.87 91.83Z" fill="#3E3B57"/>
<path d="M631.77 77.14C631.77 77.14 631.73 77.11 631.71 77.09C631.7 77.08 631.69 77.07 631.68 77.06C630.11 75.55 628.02 74.96 625.8 74.96C623.47 74.96 621.3 75.55 619.63 77.06L619.54 77.14C617.91 78.77 617.36 81.04 617.36 83.4V118.15C617.36 124.14 615.66 128.74 612.44 132.21C609.23 135.66 605.1 137.42 599.81 137.42C594.82 137.42 591.64 136.08 589.7 133.88C587.75 131.46 586.56 127.56 586.56 121.74V83.4C586.56 81.02 585.94 78.76 584.23 77.15C584.23 77.15 584.19 77.12 584.18 77.1C584.17 77.09 584.16 77.08 584.15 77.06C582.55 75.52 580.39 74.96 578.13 74.96C575.87 74.96 573.75 75.57 572.11 77.06L572.02 77.14C570.4 78.77 569.84 81.04 569.84 83.4V121.88C569.84 128.24 570.78 133.74 572.79 138.28L572.81 138.32C574.93 142.87 578.05 146.4 582.17 148.79L582.24 148.83C586.45 151.1 591.59 152.15 597.52 152.15C603.45 152.15 609.25 150.54 614.02 147.26C614.02 147.26 614.03 147.26 614.04 147.25C615.36 146.36 616.57 145.35 617.69 144.24C617.84 146.2 618.45 148.01 619.75 149.45L619.83 149.54C621.46 151.17 623.61 151.87 625.94 151.87C628.27 151.87 630.44 151.24 632.01 149.55C633.55 147.89 634.09 145.65 634.09 143.29V83.41C634.09 81.03 633.46 78.77 631.76 77.16L631.77 77.14Z" fill="#3E3B57"/>
<path d="M722.06 113.41C722.06 105.68 720.72 98.88 717.95 93.11C717.95 93.11 717.95 93.1 717.95 93.09C717.95 93.08 717.95 93.07 717.94 93.06C715.27 87.24 711.43 82.69 706.4 79.53C706.4 79.53 706.4 79.53 706.39 79.53C706.39 79.53 706.38 79.53 706.37 79.52C701.31 76.26 695.37 74.68 688.65 74.68C681.93 74.68 675.95 76.38 670.96 79.88C669.71 80.76 668.56 81.71 667.51 82.74V57.06C667.51 54.73 666.86 52.54 665.18 50.95C665.18 50.95 665.14 50.91 665.12 50.89C665.11 50.88 665.1 50.87 665.09 50.86C663.47 49.29 661.36 48.62 659.07 48.62C656.78 48.62 654.55 49.27 652.96 50.95C652.96 50.95 652.94 50.98 652.92 50.99C652.91 51.01 652.89 51.02 652.87 51.03C651.33 52.63 650.77 54.79 650.77 57.06V143.28C650.77 145.61 651.36 147.78 652.87 149.45C654.46 151.2 656.69 151.87 659.07 151.87C661.45 151.87 663.48 151.2 665.04 149.54C665.04 149.54 665.07 149.51 665.08 149.5C665.09 149.48 665.11 149.47 665.12 149.46C666.59 147.94 667.25 145.98 667.35 143.85C668.39 144.91 669.54 145.89 670.79 146.79L670.81 146.81C675.89 150.41 681.88 152.16 688.65 152.16C695.42 152.16 701.18 150.57 706.24 147.31C706.24 147.31 706.24 147.31 706.25 147.31C711.37 144.07 715.26 139.52 717.94 133.76C720.72 127.9 722.06 121.09 722.06 113.43V113.41ZM702.68 126.86L702.66 126.91C701.11 130.53 698.93 133.17 696.15 134.96L696.12 134.98C693.44 136.76 690.17 137.71 686.19 137.71C680.37 137.71 675.89 135.7 672.49 131.72C669.08 127.65 667.2 121.66 667.2 113.41C667.2 107.81 668.03 103.31 669.56 99.81C671.2 96.18 673.43 93.6 676.18 91.89H676.2L676.22 91.86C679.02 90.05 682.3 89.11 686.18 89.11C692.12 89.11 696.58 91.14 699.87 95.08L699.89 95.1C703.28 99.07 705.16 105.03 705.16 113.4C705.16 118.78 704.29 123.24 702.66 126.85L702.68 126.86Z" fill="#3E3B57"/>
<path d="M549.67 50.94C548.08 49.26 545.89 48.61 543.56 48.61C541.23 48.61 538.96 49.28 537.3 50.94L537.26 50.98L537.22 51.02C535.69 52.71 535.12 54.95 535.12 57.33V91.86H479.49V57.34C479.49 54.94 478.86 52.7 477.24 51.03C477.24 51.03 477.21 51 477.2 50.98C477.19 50.97 477.17 50.95 477.16 50.93C475.57 49.25 473.38 48.6 471.05 48.6C468.72 48.6 466.45 49.27 464.79 50.93L464.75 50.97L464.71 51.01C463.18 52.7 462.61 54.94 462.61 57.32V143.11C462.61 145.45 463.2 147.62 464.64 149.34L464.8 149.51C466.46 151.17 468.67 151.84 471.06 151.84C473.45 151.84 475.79 151.2 477.4 149.42L477.47 149.34C478.91 147.62 479.5 145.45 479.5 143.11V107.15H535.13V143.11C535.13 145.45 535.72 147.62 537.16 149.34L537.32 149.51C538.98 151.17 541.19 151.84 543.58 151.84C545.97 151.84 548.18 151.18 549.77 149.43C551.34 147.71 552.01 145.51 552.01 143.12V57.34C552.01 54.94 551.38 52.7 549.76 51.03C549.76 51.03 549.7 50.96 549.68 50.94H549.67Z" fill="#3E3B57"/>
<path d="M777.48 211.45C769.73 206.97 767.33 196.83 772.38 189.43C785 170.94 800.31 154.4 817.8 140.41C821.36 137.56 825.01 134.81 828.76 132.18C839.74 124.43 851.47 117.64 863.81 111.93C879.73 118.91 896.37 124.1 913.38 127.41C875.9 136.25 842.78 155.91 817.35 182.8C810.31 190.24 803.86 198.23 798.07 206.7C793.48 213.41 784.53 215.52 777.49 211.44L777.48 211.45Z" fill="#F4A69A"/>
<path d="M958.14 105.89C958.14 114.84 950.56 122.01 941.63 121.34C919.29 119.67 897.3 114.68 876.45 106.55C872.18 104.9 867.97 103.11 863.81 101.18C851.61 95.55 839.87 88.82 828.77 81C826.9 63.82 823.13 46.91 817.57 30.61C843.92 58.43 877.45 77.2 913.42 85.73C923.37 88.09 933.5 89.67 943.73 90.45C951.84 91.06 958.15 97.75 958.15 105.89H958.14Z" fill="#EF7765"/>
<path d="M781.26 161.94C792.32 125.2 791.91 86.81 781.43 51.4C778.48 41.42 774.73 31.67 770.21 22.27C766.69 14.94 769.34 6.14 776.39 2.08C784.14 -2.39 794.13 0.59 798.01 8.66C807.78 28.92 814.46 50.56 817.83 72.8C818.51 77.31 819.06 81.83 819.45 86.39C820.67 99.75 820.68 113.27 819.44 126.79C805.43 137.08 792.61 148.88 781.25 161.94H781.26Z" fill="#614A99"/>
</g>
<defs>
<clipPath id="clip0_608_1705">
<rect width="958.14" height="213.52" fill="white"/>
</clipPath>
</defs>
</svg>
