<svg width="750" height="532" viewBox="0 0 750 532" fill="none" xmlns="http://www.w3.org/2000/svg">
<path d="M174.589 233.195C136.567 195.773 120.508 156.732 129.369 123.266C140.742 80.3183 191.263 50.6239 267.98 41.7964L268.263 44.2599C192.615 52.964 142.864 81.9919 131.767 123.9C123.142 156.469 138.968 194.657 176.329 231.429L174.589 233.195Z" fill="#F0F0F0"/>
<path d="M541.443 366.032C493.989 366.032 442.421 358.982 391.199 345.425C327.857 328.659 269.779 303.354 223.244 272.243L224.622 270.183C270.933 301.143 328.754 326.332 391.834 343.028C448.838 358.116 506.27 365.107 557.9 363.262L557.989 365.739C552.537 365.935 547.021 366.033 541.443 366.032Z" fill="#F0F0F0"/>
<path d="M650.31 350.441L649.515 348.092C691.957 333.746 718.502 310.635 726.282 281.257C736.171 243.91 714.687 200.571 665.787 159.223C616.637 117.666 545.762 83.1837 466.215 62.1298L466.85 59.7329C546.744 80.8794 617.964 115.54 667.388 157.331C717.06 199.331 738.828 243.567 728.68 281.891C720.677 312.112 693.577 335.816 650.31 350.441Z" fill="#F0F0F0"/>
<path d="M260.597 367.068C167.351 325.722 95.4988 272.081 58.276 216.024L60.3417 214.652C97.3072 270.321 168.783 323.645 261.602 364.802L260.597 367.068Z" fill="#F0F0F0"/>
<path d="M588.44 438.697C578.822 438.697 569.04 438.482 559.094 438.053L559.2 435.576C633.427 438.789 698.918 429.908 748.606 409.889L749.534 412.189C706.189 429.65 650.943 438.697 588.44 438.697Z" fill="#F0F0F0"/>
<path d="M534.338 44.0196C518.926 39.0029 503.074 34.3319 487.221 30.136C395.996 5.99095 306.321 -2.5818 227.887 5.34937L227.637 2.8822C306.364 -5.07496 396.346 3.51832 487.855 27.7391C503.753 31.9471 519.65 36.6314 535.105 41.6626L534.338 44.0196Z" fill="#F0F0F0"/>
<path d="M116.313 236.914C78.2907 199.491 62.2317 160.451 71.0934 126.984C82.4657 84.0371 132.987 54.3427 209.704 45.5151L209.987 47.9787C134.339 56.6827 84.5878 85.7107 73.4909 127.619C64.8666 160.188 80.6925 198.376 118.053 235.147L116.313 236.914Z" fill="#F0F0F0"/>
<path d="M483.167 369.751C435.713 369.751 384.145 362.701 332.923 349.143C269.581 332.378 211.503 307.073 164.968 275.962L166.346 273.901C212.657 304.861 270.478 330.051 333.558 346.746C390.562 361.835 447.994 368.826 499.624 366.981L499.713 369.458C494.261 369.654 488.746 369.752 483.167 369.751Z" fill="#F0F0F0"/>
<path d="M592.034 354.16L591.239 351.812C633.681 337.465 660.226 314.354 668.006 284.976C677.895 247.629 656.411 204.29 607.511 162.943C558.361 121.385 487.486 86.9029 407.939 65.8491L408.574 63.4521C488.468 84.5986 559.688 119.259 609.112 161.05C658.784 203.05 680.552 247.286 670.404 285.61C662.401 315.831 635.301 339.535 592.034 354.16Z" fill="#F0F0F0"/>
<path d="M202.321 370.787C109.075 329.441 37.2228 275.799 0 219.743L2.06574 218.371C39.0313 274.04 110.507 327.363 203.326 368.521L202.321 370.787Z" fill="#F0F0F0"/>
<path d="M530.164 442.416C520.546 442.416 510.764 442.201 500.818 441.772L500.924 439.295C575.151 442.508 640.642 433.627 690.331 413.608L691.258 415.908C647.914 433.369 592.667 442.416 530.164 442.416Z" fill="#F0F0F0"/>
<path d="M476.062 47.7383C460.65 42.7217 444.798 38.0507 428.945 33.8548C337.72 9.70974 248.045 1.13699 169.611 9.0681L169.361 6.60095C248.088 -1.35621 338.07 7.23706 429.58 31.4578C445.477 35.6658 461.374 40.3502 476.829 45.3814L476.062 47.7383Z" fill="#F0F0F0"/>
<path d="M49.1294 203.577C56.7825 204.085 64.3461 201.69 70.3119 196.871C70.9026 196.393 71.6134 197.335 71.0234 197.812C64.8059 202.816 56.9298 205.291 48.967 204.745C48.208 204.692 48.3746 203.524 49.1294 203.577Z" fill="white"/>
<path d="M91.1156 154.345C91.8557 155.63 92.9035 156.711 94.1647 157.491C95.4259 158.27 96.8612 158.725 98.3415 158.813C99.1007 158.856 98.9333 160.024 98.1791 159.982C96.544 159.877 94.9596 159.373 93.5642 158.514C92.1688 157.656 91.005 156.469 90.1743 155.057C90.0849 154.93 90.047 154.774 90.0683 154.621C90.0896 154.467 90.1686 154.328 90.2892 154.23C90.4143 154.137 90.5713 154.096 90.726 154.118C90.8808 154.139 91.0207 154.221 91.1156 154.345Z" fill="white"/>
<path d="M92.7545 220.82C92.4474 217.081 93.4796 213.355 95.6667 210.307C97.8538 207.259 101.053 205.087 104.694 204.18C105.431 203.999 105.747 205.136 105.009 205.317C101.617 206.156 98.6371 208.179 96.6063 211.021C94.5755 213.864 93.6279 217.339 93.9345 220.818C94.0002 221.574 92.8199 221.572 92.7545 220.82Z" fill="white"/>
<path d="M127.114 221.579C126.932 223.051 127.117 224.544 127.655 225.926C128.192 227.308 129.064 228.535 130.193 229.496C130.774 229.988 129.936 230.82 129.36 230.331C128.118 229.263 127.156 227.907 126.559 226.382C125.962 224.857 125.747 223.208 125.934 221.581C125.939 221.426 126.003 221.279 126.112 221.169C126.222 221.059 126.369 220.995 126.524 220.99C126.68 220.991 126.83 221.053 126.94 221.163C127.051 221.274 127.113 221.423 127.114 221.579Z" fill="white"/>
<path d="M719.48 330.903C722.773 329.104 725.319 326.194 726.664 322.692C728.009 319.19 728.065 315.324 726.822 311.785C726.568 311.069 725.444 311.43 725.698 312.147C726.862 315.44 726.81 319.042 725.551 322.3C724.292 325.559 721.909 328.26 718.833 329.916C718.165 330.277 718.816 331.261 719.48 330.903Z" fill="white"/>
<path d="M699.96 302.622C698.831 303.584 697.481 304.25 696.031 304.56C694.581 304.871 693.076 304.817 691.652 304.402C690.923 304.188 690.688 305.344 691.412 305.557C692.988 306.008 694.649 306.066 696.252 305.726C697.855 305.386 699.35 304.659 700.607 303.609C700.734 303.52 700.822 303.386 700.854 303.234C700.885 303.082 700.858 302.924 700.777 302.792C700.69 302.662 700.556 302.571 700.403 302.539C700.25 302.507 700.091 302.537 699.96 302.622Z" fill="white"/>
<path d="M676.069 364.679C677.615 361.261 677.896 357.405 676.861 353.799C675.825 350.194 673.542 347.073 670.418 344.995C669.784 344.577 669.105 345.542 669.739 345.961C672.652 347.89 674.778 350.797 675.735 354.157C676.693 357.516 676.417 361.107 674.958 364.281C674.642 364.971 675.755 365.365 676.069 364.679Z" fill="white"/>
<path d="M698.23 388.295C691.078 391.065 683.144 391.039 676.011 388.221C675.304 387.941 674.907 389.052 675.613 389.331C683.042 392.25 691.298 392.261 698.734 389.361C699.443 389.085 698.935 388.019 698.23 388.295Z" fill="white"/>
<path d="M643.453 353.849C643.13 355.296 642.453 356.641 641.482 357.761C640.512 358.882 639.278 359.745 637.891 360.271C637.179 360.539 637.688 361.603 638.395 361.337C639.924 360.749 641.286 359.795 642.361 358.559C643.436 357.323 644.192 355.842 644.563 354.247C644.611 354.099 644.601 353.939 644.534 353.799C644.468 353.659 644.351 353.55 644.207 353.493C644.06 353.441 643.898 353.449 643.756 353.516C643.615 353.583 643.506 353.702 643.453 353.849Z" fill="white"/>
<path d="M210.443 143.632C215.921 143.632 220.362 139.192 220.362 133.714C220.362 128.237 215.921 123.797 210.443 123.797C204.965 123.797 200.524 128.237 200.524 133.714C200.524 139.192 204.965 143.632 210.443 143.632Z" fill="#FD7C5F"/>
<path d="M590.127 241.474C591.004 236.067 587.332 230.973 581.924 230.096C576.517 229.219 571.422 232.89 570.544 238.296C569.667 243.703 573.339 248.797 578.747 249.674C584.154 250.551 589.249 246.88 590.127 241.474Z" fill="#FD7C5F"/>
<path d="M210.04 32.03C215.518 32.03 219.959 27.59 219.959 22.1129C219.959 16.6358 215.518 12.1958 210.04 12.1958C204.561 12.1958 200.12 16.6358 200.12 22.1129C200.12 27.59 204.561 32.03 210.04 32.03Z" fill="#FD7C5F"/>
<path d="M506.012 138.811H503.181V61.2666C503.181 49.3635 498.451 37.9479 490.033 29.5311C481.614 21.1143 470.196 16.3858 458.29 16.3857H293.964C288.069 16.3857 282.232 17.5466 276.785 19.802C271.339 22.0575 266.39 25.3634 262.222 29.5309C258.053 33.6985 254.746 38.6461 252.49 44.0913C250.234 49.5365 249.073 55.3726 249.073 61.2664V486.683C249.073 498.587 253.803 510.002 262.221 518.419C270.64 526.836 282.058 531.564 293.964 531.564H458.29C470.196 531.564 481.614 526.836 490.033 518.419C498.451 510.002 503.181 498.587 503.181 486.684V194.009H506.012V138.811Z" fill="#3F3D56"/>
<path d="M493.623 61.5775V486.371C493.624 490.772 492.757 495.129 491.073 499.195C489.389 503.261 486.921 506.955 483.809 510.068C480.697 513.18 477.003 515.648 472.936 517.333C468.87 519.017 464.512 519.885 460.11 519.885H294.982C286.092 519.886 277.566 516.356 271.279 510.071C264.993 503.787 261.461 495.263 261.46 486.375V61.5776C261.46 57.1767 262.327 52.8188 264.011 48.7529C265.695 44.6869 268.164 40.9924 271.277 37.8803C274.389 34.7682 278.084 32.2995 282.151 30.6152C286.217 28.9308 290.576 28.0637 294.978 28.0635H315.021C314.034 30.4811 313.657 33.1043 313.923 35.7019C314.189 38.2995 315.091 40.7918 316.547 42.9591C318.004 45.1265 319.971 46.9025 322.276 48.1305C324.581 49.3585 327.153 50.001 329.764 50.0012H423.909C426.52 49.9993 429.09 49.3558 431.394 48.1273C433.698 46.8988 435.665 45.1229 437.121 42.9561C438.578 40.7892 439.479 38.2977 439.746 35.7008C440.013 33.1039 439.637 30.4812 438.652 28.0635H460.102C464.504 28.0633 468.862 28.9299 472.929 30.6138C476.996 32.2978 480.691 34.7661 483.804 37.8778C486.917 40.9896 489.386 44.6838 491.071 48.7496C492.755 52.8154 493.623 57.1732 493.623 61.5741L493.623 61.5775Z" fill="#F2F2F2"/>
<path d="M325.197 68.6133H273.973V70.9056H325.197V68.6133Z" fill="white"/>
<path d="M403.154 68.6133H351.93V70.9056H403.154V68.6133Z" fill="white"/>
<path d="M457.846 343.092H290.867C290.305 343.092 289.748 342.981 289.228 342.765C288.708 342.55 288.236 342.235 287.838 341.837C287.44 341.439 287.125 340.967 286.909 340.447C286.694 339.928 286.583 339.371 286.583 338.808C286.583 338.246 286.694 337.689 286.909 337.169C287.125 336.649 287.44 336.177 287.838 335.779C288.236 335.382 288.708 335.066 289.228 334.851C289.748 334.636 290.305 334.525 290.867 334.525H457.846C458.409 334.525 458.966 334.636 459.486 334.851C460.005 335.066 460.478 335.382 460.876 335.779C461.273 336.177 461.589 336.649 461.804 337.169C462.02 337.689 462.13 338.246 462.13 338.808C462.13 339.371 462.02 339.928 461.804 340.447C461.589 340.967 461.273 341.439 460.876 341.837C460.478 342.235 460.005 342.55 459.486 342.765C458.966 342.981 458.409 343.092 457.846 343.092Z" fill="#CCCCCC"/>
<path d="M457.846 372.892H290.867C289.731 372.892 288.642 372.441 287.838 371.638C287.035 370.835 286.583 369.745 286.583 368.609C286.583 367.473 287.035 366.384 287.838 365.58C288.642 364.777 289.731 364.326 290.867 364.326H457.846C458.982 364.326 460.072 364.777 460.876 365.58C461.679 366.384 462.13 367.473 462.13 368.609C462.13 369.745 461.679 370.835 460.876 371.638C460.072 372.441 458.982 372.892 457.846 372.892Z" fill="#CCCCCC"/>
<path d="M457.846 402.693H290.867C289.731 402.693 288.642 402.241 287.838 401.438C287.035 400.635 286.583 399.545 286.583 398.409C286.583 397.273 287.035 396.184 287.838 395.38C288.642 394.577 289.731 394.126 290.867 394.126H457.846C458.982 394.126 460.072 394.577 460.876 395.38C461.679 396.184 462.13 397.273 462.13 398.409C462.13 399.545 461.679 400.635 460.876 401.438C460.072 402.241 458.982 402.693 457.846 402.693Z" fill="#CCCCCC"/>
<path d="M481.111 68.6133H429.886V70.9056H481.111V68.6133Z" fill="white"/>
<path d="M325.197 480.089H273.973V482.381H325.197V480.089Z" fill="white"/>
<path d="M403.154 480.089H351.93V482.381H403.154V480.089Z" fill="white"/>
<path d="M481.111 480.089H429.886V482.381H481.111V480.089Z" fill="white"/>
<path d="M253.48 98.1431H244.309V147.428H253.48V98.1431Z" fill="#3F3D56"/>
<path d="M253.48 153.159H244.309V181.813H253.48V153.159Z" fill="#3F3D56"/>
<path d="M253.48 187.544H244.309V216.199H253.48V187.544Z" fill="#3F3D56"/>
<path d="M332.584 39.6884C335.117 39.6884 337.17 37.6358 337.17 35.1037C337.17 32.5717 335.117 30.519 332.584 30.519C330.051 30.519 327.998 32.5717 327.998 35.1037C327.998 37.6358 330.051 39.6884 332.584 39.6884Z" fill="white"/>
<path d="M386.378 293.96C384.015 293.952 381.662 293.648 379.375 293.054L378.924 292.929L378.506 292.72C363.388 285.141 350.634 275.129 340.597 262.964C332.289 252.835 325.812 241.334 321.457 228.979C316.248 214.187 313.743 198.579 314.059 182.9C314.066 182.57 314.071 182.316 314.071 182.141C314.071 174.52 318.302 167.832 324.85 165.104C329.861 163.016 375.362 144.329 378.65 142.978C384.841 139.876 391.446 142.465 392.503 142.918C394.874 143.887 436.937 161.09 446.026 165.418C455.394 169.879 457.894 177.892 457.894 181.924C457.894 200.176 454.732 217.234 448.497 232.624C443.462 245.082 436.326 256.582 427.398 266.625C410.175 286.006 392.946 292.877 392.78 292.938C390.721 293.646 388.555 293.992 386.378 293.96ZM382.326 283.925C383.82 284.26 387.259 284.762 389.5 283.944C392.347 282.906 406.767 275.429 420.242 260.266C438.86 239.317 448.306 212.981 448.32 181.991C448.287 181.363 447.841 176.885 441.91 174.062C432.997 169.817 389.276 151.941 388.836 151.761L388.715 151.71C387.799 151.326 384.883 150.517 382.873 151.571L382.47 151.758C381.983 151.958 333.683 171.795 328.532 173.941C324.929 175.442 323.645 179.161 323.645 182.141C323.645 182.359 323.639 182.676 323.631 183.085C323.219 204.29 328.127 256.467 382.326 283.925Z" fill="#3F3D56"/>
<path d="M380.652 147.33C380.652 147.33 331.913 167.346 326.691 169.522C321.469 171.698 318.858 176.919 318.858 182.141C318.858 187.363 314.941 255.498 380.652 288.441C380.652 288.441 386.615 290.091 391.14 288.441C395.665 286.791 453.107 258.942 453.107 181.923C453.107 181.923 453.107 174.091 443.968 169.74C434.83 165.388 390.647 147.33 390.647 147.33C390.647 147.33 385.221 144.937 380.652 147.33Z" fill="#5B4A9A"/>
<path d="M376.812 244L358 219.816L368.94 211.309L377.847 222.759L407.938 191L418 200.532L376.812 244Z" fill="white"/>
<path d="M477.41 267.373L533.584 269.665L540.463 231.841L492.312 216.942L477.41 267.373Z" fill="#FFB8B8"/>
<path d="M498.641 185.451L499.185 167.582L471.959 160.758L422.943 146.461C422.294 144.493 421.063 142.769 419.413 141.516C417.763 140.263 415.771 139.541 413.701 139.444C411.631 139.348 409.581 139.882 407.821 140.976C406.061 142.069 404.675 143.672 403.846 145.57C403.017 147.469 402.784 149.574 403.178 151.608C403.572 153.642 404.574 155.508 406.052 156.96C407.53 158.412 409.414 159.382 411.454 159.74C413.495 160.098 415.597 159.829 417.481 158.967L465.134 178.551L498.641 185.451Z" fill="#FFB8B8"/>
<path d="M481.098 185.326L496.413 163.486L496.795 163.537C497.036 163.569 521.054 166.781 536.799 171.469C538.569 171.938 540.215 172.787 541.623 173.957C543.03 175.127 544.166 176.59 544.95 178.244C546.075 180.556 546.501 183.145 546.175 185.695C545.849 188.245 544.785 190.644 543.114 192.598C541.413 194.71 539.14 196.288 536.567 197.143C533.993 197.998 531.228 198.093 528.601 197.419L481.098 185.326Z" fill="#5B4A9A"/>
<path d="M490.799 516.426L475.22 516.425L467.809 456.349L490.801 456.35L490.799 516.426Z" fill="#FFB8B8"/>
<path d="M612.102 509.683L596.698 512.011L580.386 453.717L600.58 450.281L612.102 509.683Z" fill="#FFB8B8"/>
<path d="M535.877 258.204L481.995 249.034L480.079 252.983C469.766 274.261 463.677 297.334 462.149 320.928C460.848 340.846 460.082 361.882 460.057 383.934C460.018 418.101 461.762 449.804 464.519 478.651L494.091 478.466C493.237 447.838 494.4 417.188 497.573 386.713C499.836 364.982 502.983 344.683 506.622 325.952C513.373 353.449 522.901 380.19 535.059 405.762C545.393 427.612 566.65 452.868 576.984 474.718C587.574 473.447 598.163 472.177 608.752 470.906C600.407 448.842 585.52 416.622 577.174 394.558C565.242 363.01 559.853 341.619 547.92 310.071C548.601 304.141 548.734 298.16 548.318 292.206C547.762 282.28 545.697 270.37 539.661 262.429L535.877 258.204Z" fill="#2F2E41"/>
<path d="M544.201 241.759C546.892 246.787 540.502 257.205 535.877 258.203L482.594 240.983L509.423 163.257L522.921 165.71L544.51 169.346L552.167 176.305C554.096 178.059 555.473 180.336 556.132 182.858C556.791 185.38 556.704 188.039 555.88 190.512L544.201 241.759Z" fill="#5B4A9A"/>
<path d="M507.521 211.72L492.447 202.103L472.643 221.988L435.259 256.76C433.237 256.309 431.125 256.483 429.204 257.259C427.282 258.035 425.642 259.375 424.499 261.103C423.356 262.831 422.765 264.865 422.804 266.936C422.842 269.008 423.509 271.018 424.715 272.703C425.922 274.387 427.611 275.665 429.56 276.368C431.51 277.072 433.626 277.167 435.63 276.641C437.635 276.116 439.432 274.994 440.785 273.425C442.138 271.856 442.983 269.913 443.207 267.854L484.434 236.961L507.521 211.72Z" fill="#FFB8B8"/>
<path d="M498.43 226.722L487.51 202.386L487.749 202.084C487.899 201.894 502.958 182.913 515.049 171.793C516.358 170.513 517.93 169.534 519.656 168.925C521.382 168.315 523.221 168.089 525.043 168.263C527.605 168.481 530.047 169.442 532.07 171.027C534.094 172.613 535.61 174.755 536.434 177.189C537.378 179.731 537.57 182.491 536.986 185.138C536.403 187.786 535.069 190.21 533.145 192.12L498.43 226.722Z" fill="#5B4A9A"/>
<path d="M532.395 158.063C545.483 158.063 556.093 147.456 556.093 134.371C556.093 121.286 545.483 110.678 532.395 110.678C519.308 110.678 508.698 121.286 508.698 134.371C508.698 147.456 519.308 158.063 532.395 158.063Z" fill="#FFB8B8"/>
<path d="M551.534 168.702L551.443 168.679L517.006 160.068C515.812 159.769 514.705 159.195 513.774 158.392C512.843 157.589 512.112 156.579 511.642 155.442C511.171 154.306 510.974 153.075 511.065 151.849C511.156 150.623 511.534 149.435 512.167 148.38L513.304 146.488C514.415 144.64 515.046 142.544 515.138 140.39C515.23 138.236 514.782 136.094 513.833 134.158C512.202 130.996 509.396 128.6 506.017 127.483L505.903 127.429L505.18 126.979C504.469 126.643 503.836 126.163 503.322 125.569C502.807 124.974 502.423 124.279 502.193 123.528C501.954 122.749 501.881 121.929 501.979 121.12C502.078 120.312 502.344 119.533 502.763 118.834C505.803 113.75 510.352 109.74 515.779 107.362C522.634 104.411 530.356 104.179 537.376 106.713C537.844 106.283 538.411 105.977 539.026 105.82C539.642 105.664 540.286 105.663 540.903 105.817C558.737 110.135 560.205 122.103 556.682 141.315L560.852 158.131C561.147 159.318 561.179 160.556 560.948 161.757C560.716 162.958 560.225 164.094 559.51 165.087C558.794 166.079 557.871 166.904 556.805 167.504C555.738 168.104 554.554 168.464 553.334 168.56L551.534 168.702Z" fill="#2F2E41"/>
<path d="M494.595 532H485.704L484.117 523.608L480.052 532H456.47C455.34 532 454.239 531.639 453.329 530.969C452.418 530.3 451.746 529.356 451.409 528.278C451.073 527.199 451.09 526.04 451.459 524.972C451.828 523.904 452.528 522.981 453.458 522.339L472.29 509.336V500.852L492.098 502.034L494.595 532Z" fill="#2F2E41"/>
<path d="M614.582 532H605.69L604.103 523.608L600.039 532H576.457C575.326 532 574.226 531.639 573.315 530.969C572.405 530.3 571.732 529.356 571.396 528.278C571.059 527.199 571.077 526.04 571.445 524.972C571.814 523.904 572.514 522.981 573.445 522.339L592.276 509.336V500.852L612.084 502.034L614.582 532Z" fill="#2F2E41"/>
</svg>
