<svg width="260" height="260" viewBox="0 0 260 260" fill="none" xmlns="http://www.w3.org/2000/svg">
<path d="M137.113 172.77C133.774 173.279 131.332 175.405 131.658 177.519C131.984 179.632 134.954 180.933 138.295 180.423C139.632 180.238 140.905 179.736 142.007 178.961L156.127 176.627L155.185 171.075L141.096 173.058C139.811 172.647 138.445 172.548 137.113 172.77H137.113Z" fill="#FFB6B6"/>
<path d="M197.96 155.464L192.485 167.021L164.961 176.237L142.122 177.449L141.55 171.993L166.302 166.844L191.702 154.905L197.96 155.464Z" fill="#E6E6E6"/>
<path d="M135.513 131.287L134.762 131.304L136.197 196.162L136.948 196.146L135.513 131.287Z" fill="#3F3D56"/>
<path d="M135.529 160.005C135.461 159.775 133.905 154.305 137.275 148.928L137.912 149.323C134.725 154.407 136.234 159.742 136.249 159.795L135.529 160.005V160.005Z" fill="#3F3D56"/>
<path d="M137.538 149.343C137.538 149.343 136.514 142.379 145.95 140.468C147.916 140.069 149.764 139.797 151.459 139.616C153.458 139.402 154.238 142.125 152.432 143.004C149.816 144.278 147.354 145.883 146.072 147.784C142.534 153.025 137.538 149.343 137.538 149.343V149.343Z" fill="#FD7C5F"/>
<path d="M136.5 180.145L135.779 179.935C135.795 179.881 137.303 174.547 134.117 169.463L134.754 169.068C138.124 174.445 136.568 179.915 136.5 180.145V180.145Z" fill="#3F3D56"/>
<path d="M134.491 169.483C134.491 169.483 135.515 162.519 126.079 160.607C124.113 160.209 122.265 159.937 120.57 159.756C118.571 159.542 117.79 162.265 119.597 163.144C122.213 164.418 124.675 166.023 125.957 167.923C129.495 173.165 134.491 169.483 134.491 169.483H134.491Z" fill="#FD7C5F"/>
<path d="M147.625 122.282C149.524 121.784 151.301 120.916 151.242 120.057C151.172 119.037 148.535 118.353 146.26 118.249C147.976 116.914 149.552 115.068 149.07 114.233C148.627 113.466 146.565 113.763 144.662 114.439C145.788 112.838 146.58 111.034 145.977 110.416C145.226 109.647 142.561 110.975 140.742 112.442C141.096 110.156 140.917 107.27 139.886 107.009C139.024 106.791 137.802 108.469 136.964 110.298C136.593 108.379 135.844 106.557 134.978 106.557C133.746 106.557 132.746 110.254 132.746 112.662C132.746 112.799 132.75 112.927 132.756 113.049C132.633 112.906 132.491 112.757 132.329 112.601C130.592 110.923 127.23 109.061 126.371 109.94C125.768 110.558 126.56 112.362 127.686 113.963C125.783 113.287 123.721 112.99 123.278 113.757C122.682 114.789 125.228 117.363 127.298 118.612C127.173 118.597 127.042 118.584 126.903 118.575C124.488 118.411 120.712 119.151 120.628 120.374C120.569 121.233 122.345 122.101 124.245 122.599C122.354 123.306 120.587 124.405 120.747 125.276C120.942 126.332 123.91 126.702 126.245 126.486C124.501 128.15 122.61 131.131 123.399 132.005C123.977 132.645 125.841 131.983 127.523 130.974C126.716 132.816 126.277 134.842 127.017 135.335C127.994 135.985 130.675 133.721 132.089 131.773C131.945 134.156 132.518 137.43 133.655 137.559C134.515 137.657 135.468 135.932 136.054 134.067C136.678 135.978 137.701 137.784 138.583 137.664C139.729 137.509 140.229 134.153 140.015 131.768C141.473 133.636 143.927 135.633 144.853 135.017C145.592 134.525 145.154 132.499 144.346 130.657C146.029 131.665 147.892 132.328 148.471 131.688C149.26 130.814 147.369 127.833 145.625 126.169C147.959 126.385 150.928 126.015 151.123 124.958C151.283 124.088 149.516 122.989 147.625 122.282V122.282ZM137.397 129.022C136.909 129.089 136.463 129.183 136.123 129.425C135.763 129.069 135.236 128.96 134.65 128.894C133.994 128.819 133.398 128.812 132.944 129.189C132.777 128.729 132.368 128.402 131.892 128.085C131.483 127.813 131.085 127.589 130.67 127.546C130.638 127.041 130.316 126.613 129.922 126.176C129.671 125.898 129.419 125.649 129.14 125.483C129.543 124.996 129.496 124.38 129.372 123.704C129.283 123.222 129.168 122.782 128.909 122.456C129.251 122.081 129.336 121.553 129.376 120.968C129.42 120.329 129.401 119.75 129.031 119.319C129.989 119.44 130.451 118.846 130.881 118.102C131.126 117.677 131.324 117.268 131.339 116.853C131.842 116.786 132.25 116.437 132.661 116.017C133.012 115.657 133.31 115.302 133.423 114.892C133.825 115.228 134.373 115.279 134.978 115.279C135.568 115.279 136.104 115.231 136.503 114.917C136.812 115.196 137.245 115.34 137.723 115.461C138.179 115.577 138.609 115.654 139 115.576C139.143 115.901 139.397 116.195 139.687 116.493C140.098 116.913 140.506 117.262 141.009 117.328C141.024 117.743 141.222 118.153 141.467 118.578C141.756 119.078 142.06 119.511 142.519 119.704C142.465 119.994 142.471 120.314 142.494 120.651C142.534 121.236 142.619 121.764 142.96 122.139C142.702 122.465 142.587 122.905 142.498 123.387C142.373 124.063 142.327 124.679 142.729 125.166C142.45 125.332 142.199 125.581 141.948 125.859C141.554 126.295 141.232 126.724 141.2 127.229C140.784 127.272 140.387 127.496 139.978 127.768C139.418 128.14 138.952 128.526 138.863 129.125C138.443 128.923 137.94 128.949 137.397 129.022V129.022Z" fill="#FD7C5F"/>
<path d="M136.094 130.186C140.496 130.186 144.065 126.636 144.065 122.257C144.065 117.878 140.496 114.328 136.094 114.328C131.692 114.328 128.123 117.878 128.123 122.257C128.123 126.636 131.692 130.186 136.094 130.186Z" fill="#3F3D56"/>
<path d="M39.9595 218.403C39.9595 218.65 40.1584 218.847 40.4061 218.847H236.425C236.673 218.847 236.872 218.65 236.872 218.403C236.872 218.157 236.673 217.959 236.425 217.959H40.4061C40.1584 217.959 39.9595 218.157 39.9595 218.403V218.403Z" fill="#3F3D56"/>
<path d="M147.195 199.345L142.279 211.712L135.918 207.398L139.677 194.455L147.195 199.345Z" fill="#FFB6B6"/>
<path d="M126.666 194.743L113.655 207.11L118.859 212.575L132.16 202.221L126.666 194.743Z" fill="#FFB6B6"/>
<path d="M200.398 154.476L200.254 153.469L196.929 146.998L185.941 149.874L187.965 158.79L200.398 154.476Z" fill="#FFB6B6"/>
<path d="M195.772 197.618L196.11 201.938C196.11 201.938 197.507 220.052 186.23 221.491C174.953 222.929 170.038 224.367 163.387 213.15L152.978 194.742L146.898 201.938L138.81 195.605C138.81 195.605 144.593 173.171 149.219 172.308C149.797 172.2 150.375 172.146 150.945 172.134C154.775 172.055 158.385 173.918 160.677 176.972L173.796 194.454L178.567 192.297L195.772 197.618H195.772Z" fill="#5B4A9A"/>
<path d="M133.316 211.137L135.919 206.248L143.437 211.425C143.437 211.425 145.172 217.752 142.569 218.615C139.967 219.478 132.738 218.328 132.738 218.328C132.738 218.328 119.437 221.204 119.148 218.615C118.859 216.027 125.22 215.451 125.22 215.451L133.316 211.137V211.137Z" fill="#2F2E41"/>
<path d="M161.653 207.685L141.557 195.09L131.292 204.234L124.353 196.181C124.353 196.181 137.075 177.486 140.834 176.623C144.593 175.76 150.665 175.185 150.665 175.185L169.17 192.154L161.653 207.685V207.685Z" fill="#5B4A9A"/>
<path d="M113.364 205.959L120.015 213.15L119.138 213.896C119.138 213.896 117.412 221.371 113.364 218.842C109.316 216.314 109.027 215.738 109.027 215.738C109.027 215.738 97.4611 218.327 96.3045 213.725C95.1479 209.123 98.3285 209.986 98.3285 209.986L101.217 211.712L113.364 205.959L113.364 205.959Z" fill="#2F2E41"/>
<path d="M189.41 153.038C194.521 153.038 198.663 148.917 198.663 143.834C198.663 138.751 194.521 134.63 189.41 134.63C184.3 134.63 180.158 138.751 180.158 143.834C180.158 148.917 184.3 153.038 189.41 153.038Z" fill="#FFB6B6"/>
<path d="M187.242 156.921L200.543 152.894C200.543 152.894 205.747 164.974 204.88 170.439C204.012 175.903 196.109 201.939 196.109 201.939L178.567 192.298C178.567 192.298 178.278 186.545 177.411 183.957C176.543 181.368 173.796 173.459 179.868 166.844C185.941 160.228 187.242 156.921 187.242 156.921V156.921Z" fill="#E6E6E6"/>
<path d="M57.3486 66.2302L56.5984 66.2466L59.9761 218.935L60.7264 218.919L57.3486 66.2302Z" fill="#3F3D56"/>
<path d="M58.3824 151.885C58.3439 151.755 54.6227 138.685 62.4354 126.219L63.0724 126.614C55.4356 138.8 59.065 151.548 59.1026 151.675L58.3824 151.885V151.885Z" fill="#3F3D56"/>
<path d="M62.6243 126.928C62.6243 126.928 60.2128 110.533 82.4281 106.033C87.0563 105.096 91.4073 104.455 95.3957 104.028C100.104 103.524 101.94 109.935 97.687 112.005C91.5277 115.004 85.7338 118.782 82.7138 123.256C74.3849 135.596 62.6243 126.928 62.6243 126.928V126.928Z" fill="#FD7C5F"/>
<path d="M59.6927 197.885L58.9725 197.675C59.0099 197.548 62.6323 184.788 55.0027 172.613L55.6397 172.218C63.4524 184.685 59.7312 197.754 59.6927 197.885Z" fill="#3F3D56"/>
<path d="M55.451 172.928C55.451 172.928 57.8625 156.533 35.6472 152.033C31.0191 151.096 26.6681 150.455 22.6796 150.028C17.9717 149.524 16.1353 155.935 20.3883 158.005C26.5476 161.004 32.3416 164.782 35.3615 169.256C43.6904 181.596 55.451 172.928 55.451 172.928V172.928Z" fill="#FD7C5F"/>
<path d="M86.3707 72.0189C90.8423 70.8462 95.0239 68.8026 94.8852 66.7811C94.7204 64.3796 88.5123 62.7705 83.1566 62.5256C87.1962 59.3819 90.908 55.0362 89.7729 53.0708C88.7293 51.2639 83.8748 51.9639 79.3959 53.5553C82.0465 49.7858 83.9099 45.5384 82.4908 44.0848C80.7229 42.2741 74.4487 45.3993 70.1668 48.8539C71.0003 43.472 70.5789 36.6787 68.1522 36.0641C66.1221 35.5499 63.2448 39.5016 61.2721 43.8064C60.4002 39.2889 58.6352 35 56.5982 35C53.6963 35 51.3439 43.7029 51.3439 49.3729C51.3439 49.6934 51.3524 49.9951 51.3671 50.2833C51.0759 49.9474 50.7421 49.5965 50.3614 49.2288C46.2723 45.2786 38.3569 40.8941 36.3352 42.9648C34.916 44.4184 36.7795 48.6659 39.4301 52.4353C34.9512 50.8439 30.0966 50.144 29.0531 51.9509C27.6509 54.3787 33.6445 60.4395 38.5164 63.3786C38.2235 63.3435 37.9158 63.314 37.5883 63.2917C31.9015 62.9058 23.0124 64.6479 22.8149 67.5277C22.6762 69.5493 26.8577 71.5928 31.3294 72.7656C26.8774 74.4302 22.7181 77.0167 23.0956 79.0664C23.5538 81.5541 30.5425 82.4249 36.0375 81.9152C31.9323 85.8331 27.481 92.8516 29.3387 94.9085C30.7 96.4159 35.087 94.8557 39.0481 92.4819C37.147 96.8184 36.1146 101.588 37.8558 102.747C40.157 104.278 46.468 98.9491 49.7955 94.3636C49.4564 99.9734 50.8059 107.68 53.4834 107.984C55.5073 108.214 57.7501 104.152 59.1316 99.7624C60.6006 104.262 63.0085 108.513 65.0842 108.231C67.7833 107.865 68.96 99.9651 68.4565 94.3512C71.8888 98.748 77.6651 103.45 79.8442 102C81.5855 100.842 80.553 96.0718 78.652 91.7352C82.6131 94.109 87.0001 95.6692 88.3614 94.1619C90.2191 92.1049 85.7677 85.0864 81.6625 81.1686C87.1576 81.6783 94.1463 80.8074 94.6045 78.3197C94.982 76.27 90.8226 73.6836 86.3707 72.0189L86.3707 72.0189ZM62.2933 87.8871C61.1439 88.0431 60.0929 88.2659 59.2936 88.8348C58.4445 87.9963 57.2043 87.741 55.8254 87.5844C54.2814 87.409 52.8784 87.392 51.8084 88.2783C51.4169 87.1959 50.4542 86.4269 49.3328 85.6807C48.3686 85.0391 47.4335 84.5125 46.4559 84.4109C46.3795 83.2232 45.6217 82.2138 44.6942 81.1868C44.1028 80.532 43.5111 79.9465 42.8546 79.5549C43.8019 78.4077 43.6926 76.9576 43.3995 75.3663C43.1905 74.2312 42.9188 73.197 42.3111 72.4287C43.1144 71.5468 43.3144 70.3028 43.4089 68.9255C43.512 67.4216 43.4692 66.058 42.5965 65.0427C44.8517 65.328 45.9401 63.9305 46.9517 62.1789C47.5295 61.1783 47.9941 60.2144 48.0295 59.2374C49.2155 59.0808 50.1763 58.26 51.1432 57.2696C51.9692 56.4236 52.6718 55.5859 52.9357 54.6218C53.8821 55.4129 55.1735 55.5327 56.5982 55.5327C57.9861 55.5327 59.2474 55.4189 60.1866 54.6817C60.9159 55.3372 61.9347 55.6771 63.0589 55.9619C64.132 56.2337 65.1451 56.4155 66.0661 56.2325C66.4023 56.9965 67 57.6903 67.6828 58.3896C68.6497 59.38 69.6105 60.2007 70.7965 60.3574C70.8318 61.3344 71.2964 62.2983 71.8743 63.2988C72.5545 64.4766 73.2689 65.495 74.3495 65.9494C74.2234 66.6335 74.2368 67.3866 74.2912 68.1788C74.3857 69.5561 74.5856 70.8002 75.389 71.6821C74.7812 72.4504 74.5096 73.4846 74.3005 74.6197C74.0074 76.211 73.8982 77.661 74.8455 78.8083C74.1889 79.1999 73.5972 79.7854 73.0058 80.4402C72.0783 81.4672 71.3205 82.4766 71.2441 83.6643C70.2666 83.7658 69.3315 84.2925 68.3672 84.9341C67.0503 85.8104 65.9533 86.7187 65.7426 88.1289C64.7543 87.652 63.5713 87.7136 62.2933 87.8871V87.8871Z" fill="#FD7C5F"/>
<path d="M59.2253 90.6251C69.5891 90.6251 77.9906 82.268 77.9906 71.959C77.9906 61.65 69.5891 53.293 59.2253 53.293C48.8615 53.293 40.46 61.65 40.46 71.959C40.46 82.268 48.8615 90.6251 59.2253 90.6251Z" fill="#3F3D56"/>
<path d="M232.605 182.063L231.855 182.079L232.662 218.562L233.413 218.546L232.605 182.063Z" fill="#3F3D56"/>
<path d="M232.293 198.266C232.254 198.133 231.359 194.988 233.293 191.902L233.93 192.298C232.179 195.091 233.005 198.027 233.013 198.056L232.293 198.266V198.266Z" fill="#3F3D56"/>
<path d="M233.58 192.222C233.58 192.222 233.004 188.305 238.312 187.23C239.418 187.006 240.458 186.853 241.411 186.751C242.536 186.63 242.974 188.162 241.958 188.657C240.486 189.373 239.102 190.276 238.38 191.345C236.39 194.294 233.58 192.222 233.58 192.222V192.222Z" fill="#FD7C5F"/>
<path d="M233.154 209.594L232.434 209.384C232.442 209.355 233.268 206.419 231.517 203.626L232.154 203.231C234.088 206.317 233.193 209.461 233.154 209.594V209.594Z" fill="#3F3D56"/>
<path d="M231.866 203.551C231.866 203.551 232.443 199.634 227.135 198.559C226.029 198.335 224.989 198.181 224.036 198.079C222.911 197.959 222.472 199.491 223.489 199.986C224.96 200.702 226.345 201.605 227.066 202.674C229.056 205.622 231.866 203.551 231.866 203.551V203.551Z" fill="#FD7C5F"/>
<path d="M239.254 177.001C240.323 176.72 241.322 176.232 241.289 175.749C241.249 175.175 239.766 174.791 238.486 174.732C239.452 173.981 240.338 172.943 240.067 172.473C239.818 172.041 238.658 172.209 237.588 172.589C238.221 171.688 238.666 170.673 238.327 170.326C237.905 169.893 236.406 170.64 235.383 171.466C235.582 170.18 235.481 168.556 234.901 168.41C234.416 168.287 233.729 169.231 233.257 170.259C233.049 169.18 232.627 168.155 232.141 168.155C231.447 168.155 230.885 170.235 230.885 171.59C230.885 171.666 230.887 171.738 230.891 171.807C230.821 171.727 230.741 171.643 230.65 171.555C229.673 170.611 227.782 169.564 227.299 170.058C226.96 170.406 227.405 171.421 228.038 172.321C226.968 171.941 225.808 171.774 225.559 172.205C225.224 172.786 226.656 174.234 227.82 174.936C227.75 174.928 227.677 174.921 227.598 174.915C226.24 174.823 224.116 175.239 224.068 175.927C224.035 176.41 225.034 176.899 226.103 177.179C225.039 177.577 224.045 178.195 224.136 178.684C224.245 179.279 225.915 179.487 227.228 179.365C226.247 180.301 225.183 181.978 225.627 182.47C225.952 182.83 227.001 182.457 227.947 181.89C227.493 182.926 227.246 184.066 227.662 184.343C228.212 184.708 229.72 183.435 230.515 182.339C230.434 183.68 230.757 185.521 231.396 185.594C231.88 185.649 232.416 184.678 232.746 183.629C233.097 184.705 233.672 185.72 234.168 185.653C234.813 185.565 235.094 183.678 234.974 182.337C235.794 183.387 237.174 184.511 237.695 184.164C238.111 183.887 237.864 182.748 237.41 181.711C238.356 182.279 239.405 182.651 239.73 182.291C240.174 181.8 239.11 180.123 238.129 179.187C239.442 179.308 241.112 179.1 241.222 178.506C241.312 178.016 240.318 177.398 239.254 177.001V177.001ZM233.501 180.792C233.227 180.829 232.976 180.883 232.785 181.018C232.582 180.818 232.285 180.757 231.956 180.72C231.587 180.678 231.252 180.674 230.996 180.885C230.903 180.627 230.673 180.443 230.405 180.265C230.174 180.112 229.951 179.986 229.717 179.961C229.699 179.678 229.518 179.436 229.296 179.191C229.155 179.035 229.014 178.895 228.857 178.801C229.083 178.527 229.057 178.181 228.987 177.8C228.937 177.529 228.872 177.282 228.727 177.098C228.919 176.888 228.967 176.59 228.989 176.261C229.014 175.902 229.004 175.576 228.795 175.334C229.334 175.402 229.594 175.068 229.836 174.649C229.974 174.41 230.085 174.18 230.093 173.947C230.377 173.909 230.606 173.713 230.837 173.476C231.035 173.274 231.202 173.074 231.265 172.844C231.492 173.033 231.8 173.061 232.141 173.061C232.472 173.061 232.774 173.034 232.998 172.858C233.172 173.015 233.416 173.096 233.684 173.164C233.941 173.229 234.183 173.272 234.403 173.229C234.483 173.411 234.626 173.577 234.789 173.744C235.02 173.981 235.25 174.177 235.533 174.214C235.542 174.448 235.653 174.678 235.791 174.917C235.953 175.198 236.124 175.442 236.382 175.55C236.352 175.714 236.355 175.894 236.368 176.083C236.391 176.412 236.438 176.709 236.63 176.92C236.485 177.104 236.42 177.351 236.37 177.622C236.3 178.002 236.274 178.349 236.501 178.623C236.344 178.716 236.202 178.856 236.061 179.013C235.839 179.258 235.658 179.499 235.64 179.783C235.406 179.807 235.183 179.933 234.953 180.086C234.638 180.296 234.376 180.513 234.325 180.85C234.089 180.736 233.807 180.751 233.501 180.792V180.792Z" fill="#FD7C5F"/>
<path d="M232.768 181.446C235.244 181.446 237.252 179.449 237.252 176.986C237.252 174.523 235.244 172.526 232.768 172.526C230.292 172.526 228.284 174.523 228.284 176.986C228.284 179.449 230.292 181.446 232.768 181.446Z" fill="#3F3D56"/>
<path d="M157.968 217.315C155.803 219.895 155.387 223.096 157.037 224.467C158.688 225.837 161.78 224.856 163.945 222.275C164.824 221.256 165.445 220.042 165.756 218.735L174.789 207.69L170.389 204.148L161.146 214.909C159.908 215.447 158.819 216.272 157.968 217.315V217.315Z" fill="#FFB6B6"/>
<path d="M197.444 162.723L200.588 175.11L185.201 199.61L169.493 215.314L164.402 211.112L180.244 191.505L192.252 166.243L197.444 162.723Z" fill="#E6E6E6"/>
<path d="M180.881 142.252C183.254 142.247 183.389 142.263 183.772 142.252C186.716 142.175 187.485 141.023 188.977 141.102C191.64 141.242 188.125 154.521 186.664 160.66C185.23 166.681 190.075 172.076 190.423 172.452C195.34 177.772 203.976 178.744 205.458 176.479C206.658 174.646 202.407 171.858 203.434 167.85C204.439 163.933 209.077 164.35 210.374 160.66C211.732 156.795 207.169 154.846 204.302 145.416C202.655 140.001 202.947 138.992 201.41 135.637C197.304 126.671 177.175 130.489 179.435 138.801C179.872 140.409 178.709 142.258 180.881 142.252V142.252Z" fill="#2F2E41"/>
</svg>
