<svg width="35" height="33" viewBox="0 0 35 33" fill="none" xmlns="http://www.w3.org/2000/svg">
<path d="M7.34523 3.6683C7.34474 4.6407 6.95734 5.57309 6.26824 6.26034C5.57915 6.94759 4.64481 7.33341 3.67078 7.33293C2.69674 7.33244 1.76279 6.94569 1.07439 6.25775C0.385981 5.56981 -0.000486559 4.63704 4.5974e-07 3.66463C0.000487478 2.69222 0.387889 1.75984 1.07698 1.07259C1.76608 0.385335 2.70041 -0.000485744 3.67445 4.58971e-07C4.64849 0.000486662 5.58244 0.38724 6.27084 1.07518C6.95925 1.76312 7.34571 2.69589 7.34523 3.6683ZM7.4554 10.0479H0.110179V33H7.4554V10.0479ZM19.0609 10.0479H11.7524V33H18.9874V20.9557C18.9874 14.246 27.7466 13.6227 27.7466 20.9557V33H35V18.4625C35 7.15144 22.0357 7.57308 18.9874 13.1278L19.0609 10.0479Z" fill="#FD7C5F"/>
</svg>
