<svg width="28" height="28" viewBox="0 0 28 28" fill="none" xmlns="http://www.w3.org/2000/svg">
<path d="M1.55556 28C1.11481 28 0.74563 27.776 0.448 27.328C0.149334 26.8816 0 26.3278 0 25.6667C0 25.0056 0.149334 24.4518 0.448 24.0053C0.74563 23.5573 1.11481 23.3333 1.55556 23.3333H26.4444C26.8852 23.3333 27.2544 23.5573 27.552 24.0053C27.8507 24.4518 28 25.0056 28 25.6667C28 26.3278 27.8507 26.8816 27.552 27.328C27.2544 27.776 26.8852 28 26.4444 28H1.55556ZM1.55556 16.3333C1.11481 16.3333 0.74563 16.1093 0.448 15.6613C0.149334 15.2149 0 14.6611 0 14C0 13.3389 0.149334 12.7843 0.448 12.3363C0.74563 11.8899 1.11481 11.6667 1.55556 11.6667H26.4444C26.8852 11.6667 27.2544 11.8899 27.552 12.3363C27.8507 12.7843 28 13.3389 28 14C28 14.6611 27.8507 15.2149 27.552 15.6613C27.2544 16.1093 26.8852 16.3333 26.4444 16.3333H1.55556ZM1.55556 4.66667C1.11481 4.66667 0.74563 4.44344 0.448 3.997C0.149334 3.549 0 2.99444 0 2.33333C0 1.67222 0.149334 1.11767 0.448 0.669667C0.74563 0.223223 1.11481 0 1.55556 0H26.4444C26.8852 0 27.2544 0.223223 27.552 0.669667C27.8507 1.11767 28 1.67222 28 2.33333C28 2.99444 27.8507 3.549 27.552 3.997C27.2544 4.44344 26.8852 4.66667 26.4444 4.66667H1.55556Z" fill="#FD7C5F"/>
</svg>
