<svg width="35" height="29" viewBox="0 0 35 29" fill="none" xmlns="http://www.w3.org/2000/svg">
<path d="M35 3.27376C33.6875 3.85577 32.3021 4.21952 30.8438 4.43777C32.3021 3.56476 33.4688 2.18251 33.9792 0.509252C32.5938 1.30951 31.0625 1.89151 29.3854 2.25526C28.0729 0.873004 26.1771 0 24.1354 0C20.1979 0 16.9896 3.20101 16.9896 7.12953C16.9896 7.71153 17.0625 8.22078 17.2083 8.73004C11.3021 8.43904 5.97917 5.60177 2.40625 1.23676C1.82292 2.32801 1.45833 3.49201 1.45833 4.80152C1.45833 7.27503 2.69792 9.45754 4.66667 10.767C3.5 10.6943 2.40625 10.4033 1.38542 9.89404V9.96679C1.38542 13.4588 3.86458 16.3688 7.14583 17.0236C6.5625 17.1691 5.90625 17.2418 5.25 17.2418C4.8125 17.2418 4.30208 17.1691 3.86458 17.0963C4.8125 19.9336 7.4375 22.0433 10.5729 22.0433C8.09375 23.9349 5.03125 25.0989 1.67708 25.0989C1.09375 25.0989 0.510417 25.0989 0 25.0261C3.20833 27.0631 6.92708 28.2271 11.0104 28.2271C24.2083 28.2271 31.4271 17.3146 31.4271 7.85703C31.4271 7.56603 31.4271 7.20228 31.4271 6.91128C32.8125 5.96553 34.0521 4.72877 35 3.27376Z" fill="#FD7C5F"/>
</svg>
