<svg width="73" height="73" viewBox="0 0 73 73" fill="none" xmlns="http://www.w3.org/2000/svg">
<path d="M0 8.7387C0.0962211 8.39979 0.194329 8.0628 0.286777 7.72389C1.16975 4.47075 4.22995 2.01797 7.50336 2.01031C16.1651 1.99308 24.8269 2.00265 33.4887 2.00265C33.6472 2.00265 33.8057 2.00265 34 2.00265C34 16.344 34 30.6184 34 45C22.6686 45 11.3352 45 0.00188669 45C0 32.9123 0 20.8264 0 8.7387ZM10.922 23.0437C10.7202 23.1816 10.5673 23.285 10.4145 23.3903C7.9505 25.0925 6.30154 27.3844 5.46573 30.3006C4.92237 32.1981 5.0733 34.1319 5.05632 36.0582C5.04123 37.7412 5.85817 38.5473 7.52788 38.5493C10.0919 38.5531 12.6578 38.5493 15.2218 38.5493C19.0329 38.5493 22.8459 38.555 26.657 38.5473C28.1362 38.5435 28.9701 37.6895 28.9833 36.196C28.9908 35.2406 29.0003 34.2851 28.9757 33.3297C28.8663 29.0866 27.0211 25.8009 23.6176 23.3845C23.4534 23.2677 23.2968 23.1433 23.1308 23.0207C26.7004 18.9615 25.8382 13.6002 22.7459 10.7511C19.4253 7.69134 14.6369 7.69517 11.2843 10.7645C8.23539 13.5523 7.29959 18.9328 10.922 23.0437Z" fill="#FD7C5F"/>
<path d="M0 49C24.3043 49 48.6067 49 72.9719 49C73.1548 51.5209 72.4461 53.6631 70.827 55.4505C69.3145 57.1198 67.4439 57.9955 65.2438 57.9955C46.0922 58.0015 26.9406 58.0015 7.78903 57.9955C4.03071 57.9935 0.861003 55.196 0.133341 51.2844C0.112388 51.1682 0.045717 51.062 0 50.9498C0 50.2985 0 49.6493 0 49Z" fill="#FD7C5F"/>
<path d="M39 45C39 30.658 39 16.3697 39 2.00085C39.2792 2.00085 39.5301 2.00085 39.781 2.00085C48.2039 2.00085 56.6249 1.99893 65.0479 2.00085C69.6375 2.00277 72.9992 5.42675 72.9992 10.1007C73.001 21.4807 72.9992 32.8608 72.9992 44.2408C72.9992 44.4766 72.9992 44.7143 72.9992 44.9981C61.6598 45 50.3601 45 39 45ZM49.8394 23.0374C49.8149 23.0777 49.8017 23.1314 49.7659 23.1563C49.6319 23.2541 49.4923 23.3384 49.3565 23.4324C46.8457 25.1693 45.0649 27.4986 44.431 30.5123C44.0538 32.3086 44.0934 34.2066 44.033 36.0605C43.9764 37.7935 44.8102 38.593 46.5269 38.593C50.8091 38.5949 55.0913 38.593 59.3735 38.593C61.4674 38.593 63.5613 38.6026 65.6553 38.5891C67.0909 38.5815 67.9341 37.7226 67.9473 36.2733C67.9567 35.2208 67.9567 34.1683 67.9341 33.1177C67.8756 30.4452 67.0173 28.0411 65.3346 26.0109C64.4065 24.8932 63.2633 23.9596 62.2125 22.9377C65.8666 18.7373 64.5725 13.31 61.6391 10.6835C58.4152 7.79631 53.7236 7.76564 50.4827 10.5436C47.4965 13.1048 46.0156 18.6396 49.8394 23.0374Z" fill="#FD7C5F"/>
<path d="M23.3627 66.579C23.8548 65.0754 24.3546 63.5445 24.8602 62C32.6104 62 40.3297 62 48.1378 62C48.6357 63.5173 49.1433 65.0637 49.6585 66.6335C51.0422 66.6335 52.3893 66.6277 53.7343 66.6354C55.0679 66.6413 56.0058 67.5555 56 68.8296C55.9942 70.0999 55.0563 70.9985 53.7093 70.9985C42.2345 71.0005 30.7597 71.0005 19.2849 70.9985C17.9437 70.9985 17.0039 70.0921 17 68.8219C16.9962 67.5516 17.936 66.6413 19.2714 66.6335C20.5702 66.6257 21.869 66.6277 23.1678 66.6238C23.2141 66.6257 23.2604 66.6043 23.3627 66.579Z" fill="#FD7C5F"/>
<path d="M24.9431 34C19.6353 34 14.3682 34 9.01001 34C8.89176 31.4098 9.81646 29.2561 12.0128 27.6262C14.5931 25.7111 18.129 25.4778 20.969 26.9777C23.6559 28.3957 25.3366 31.3297 24.9431 34Z" fill="#FD7C5F"/>
<path d="M16.9789 21C14.8057 20.9964 13.0268 19.22 13.0003 17.0268C12.9738 14.8032 14.8004 12.9876 17.055 13.0001C19.2193 13.0108 21.0035 14.8228 21 17.0036C20.9965 19.2183 19.1963 21.0053 16.9789 21Z" fill="#FD7C5F"/>
<path d="M48.0022 34C47.9441 31.1201 49.0319 28.7891 51.6779 27.2452C54.5232 25.5858 57.4847 25.584 60.328 27.2452C62.9721 28.7891 64.0541 31.1254 63.9979 34C58.6615 34 53.387 34 48.0022 34Z" fill="#FD7C5F"/>
<path d="M55.9771 21C53.8039 20.9946 52.025 19.2165 52.0002 17.025C51.9755 14.8014 53.8021 12.9876 56.0567 13.0001C58.2193 13.0108 60.0053 14.8263 60 17.0072C59.9929 19.22 58.1946 21.0053 55.9771 21Z" fill="#FD7C5F"/>
</svg>
