<?xml version="1.0" encoding="UTF-8" standalone="no"?>
<svg
   width="1240.8912"
   height="1174.5"
   viewBox="0 0 1240.8912 1174.5"
   fill="none"
   version="1.1"
   id="svg51"
   sodipodi:docname="Background_hero.svg"
   inkscape:version="1.2.2 (b0a8486541, 2022-12-01)"
   xmlns:inkscape="http://www.inkscape.org/namespaces/inkscape"
   xmlns:sodipodi="http://sodipodi.sourceforge.net/DTD/sodipodi-0.dtd"
   xmlns="http://www.w3.org/2000/svg"
   xmlns:svg="http://www.w3.org/2000/svg">
  <sodipodi:namedview
     id="namedview53"
     pagecolor="#ffffff"
     bordercolor="#000000"
     borderopacity="0.25"
     inkscape:showpageshadow="2"
     inkscape:pageopacity="0.0"
     inkscape:pagecheckerboard="0"
     inkscape:deskcolor="#d1d1d1"
     showgrid="false"
     inkscape:zoom="0.36906144"
     inkscape:cx="238.44268"
     inkscape:cy="506.6907"
     inkscape:window-width="1440"
     inkscape:window-height="831"
     inkscape:window-x="0"
     inkscape:window-y="0"
     inkscape:window-maximized="1"
     inkscape:current-layer="svg51" />
  <rect
     y="0"
     width="1240.8912"
     height="1174.5"
     fill="url(#paint0_linear_576_2673)"
     id="rect2"
     style="fill:url(#paint0_linear_576_2673);stroke-width:1.32309"
     x="0" />
  <g
     style="mix-blend-mode:multiply"
     opacity="0.5"
     id="g17"
     transform="translate(-97.068443,-9.5)">
    <mask
       id="mask0_576_2673"
       maskUnits="userSpaceOnUse"
       x="-133"
       y="0"
       width="413"
       height="780">
      <rect
         x="-133"
         width="412.52802"
         height="780"
         fill="url(#paint1_linear_576_2673)"
         id="rect4"
         y="0" />
    </mask>
    <g
       mask="url(#mask0_576_2673)"
       id="g15">
      <g
         style="mix-blend-mode:multiply"
         id="g9">
        <path
           d="M -107.472,802.52 C 87.6729,625.121 203.966,401.834 203.966,159.253 c 0,-60.9248 -7.336,-120.632 -21.414,-178.7017"
           stroke="#e3e3e3"
           stroke-width="46.971"
           id="path7" />
      </g>
      <g
         style="mix-blend-mode:multiply"
         id="g13">
        <path
           d="M 183.561,-18.4253 C 223.407,76.5518 244.81,177.199 244.81,281.406 244.81,471.161 173.841,649.11 49.7783,802.52"
           stroke="#e3e3e3"
           stroke-width="46.971"
           id="path11" />
      </g>
    </g>
  </g>
  <g
     style="mix-blend-mode:multiply"
     opacity="0.5"
     id="g32"
     transform="translate(-97.068443,-9.5)">
    <mask
       id="mask1_576_2673"
       maskUnits="userSpaceOnUse"
       x="230"
       y="229"
       width="1069"
       height="955">
      <rect
         x="230.062"
         y="229"
         width="1068.92"
         height="955"
         fill="url(#paint2_linear_576_2673)"
         id="rect19" />
    </mask>
    <g
       mask="url(#mask1_576_2673)"
       id="g30">
      <g
         opacity="0.5"
         id="g28">
        <path
           d="m 390.467,272.843 c -36.85,19.334 -53.75,62.939 -39.255,101.572 158.601,422.742 7.117,717.435 7.117,717.435 96.128,-105.912 228.476,-191.537 228.476,-191.537 25.021,-278.088 -38.297,-482.808 -82.794,-587.58 -18.613,-43.867 -70.98,-62.221 -113.544,-39.89 z"
           fill="#93556a"
           id="path22" />
        <path
           d="M 807,835.677 C 531.977,969.224 387.897,1123.66 322.072,1212.48 c -28.219,38.06 -19.335,91.59 19.671,117.92 37.251,25.17 87.857,15.8 114.617,-20.71 C 663.336,1027.3 1055.22,927.374 1055.22,927.374 939.089,923.576 807,835.677 807,835.677 Z"
           fill="#93556a"
           id="path24" />
        <path
           d="M 898.237,649.077 C 726.535,561.153 589.935,411.047 589.935,411.047 c 42.916,150.828 47.345,268.646 47.345,268.646 0,0 118.168,97.46 274.783,160.926 91.687,37.15 206.197,58.391 285.377,69.599 50.41,7.131 96.26,-30.881 98.51,-81.674 1.96,-44.06 -29.97,-82.145 -73.76,-87.889 -82.05,-10.733 -214.72,-35.669 -323.945,-91.603 z"
           fill="#93556a"
           id="path26" />
      </g>
    </g>
  </g>
  <defs
     id="defs49">
    <linearGradient
       id="paint0_linear_576_2673"
       x1="726.69202"
       y1="104.762"
       x2="-142.12"
       y2="273.34299"
       gradientUnits="userSpaceOnUse"
       gradientTransform="matrix(1.6678647,0,0,1.0495979,-3.2983398e-6,-68.223861)">
      <stop
         stop-color="#5B4A9A"
         id="stop34" />
      <stop
         offset="1"
         stop-color="#FD7C5F"
         id="stop36" />
    </linearGradient>
    <linearGradient
       id="paint1_linear_576_2673"
       x1="269.931"
       y1="27.715799"
       x2="-218.30701"
       y2="103.074"
       gradientUnits="userSpaceOnUse">
      <stop
         stop-color="#FD7C5F"
         id="stop39" />
      <stop
         offset="1"
         stop-color="#5B4A9A"
         id="stop41" />
    </linearGradient>
    <linearGradient
       id="paint2_linear_576_2673"
       x1="1274.12"
       y1="262.93399"
       x2="103.758"
       y2="645.23499"
       gradientUnits="userSpaceOnUse">
      <stop
         stop-color="#FD7C5F"
         id="stop44" />
      <stop
         offset="1"
         stop-color="#5B4A9A"
         id="stop46" />
    </linearGradient>
  </defs>
</svg>
